<svg id="Layer_1" enable-background="new 0 0 511.997 511.997" height="512" viewBox="0 0 511.997 511.997" width="512" xmlns="http://www.w3.org/2000/svg"><g><path d="m23.175 189.25v15c0 49.723 40.453 90.175 90.175 90.175h26.453v-105.175z" fill="#c9885b"/><path d="m372.194 189.25v105.175h26.453c49.723 0 90.175-40.453 90.175-90.175v-15z" fill="#c9885b"/><path d="m372.194 189.25v105.175h26.453c49.723 0 90.175-40.453 90.175-90.175v-15z" fill="#a05f4b"/><path d="m472.665 0v54.978c0 14.249-11.592 25.841-25.84 25.841h-10.16c4.055-7.733 6.363-16.52 6.363-25.841v-33.291h-30v33.291c0 14.249-11.592 25.841-25.841 25.841h-10.16c4.055-7.733 6.363-16.52 6.363-25.841v-11.605h-30v11.604c0 14.249-11.592 25.841-25.841 25.841h-1.974c-28.698 0-52.046 23.348-52.046 52.046v28.013h30v-28.013c0-12.156 9.89-22.046 22.046-22.046h121.25c30.791 0 55.84-25.05 55.84-55.841v-54.977z" fill="#804040"/><path d="m472.665 0v54.978c0 14.249-11.592 25.841-25.84 25.841h-10.16c4.055-7.733 6.363-16.52 6.363-25.841v-33.291h-30v33.291c0 14.249-11.592 25.841-25.841 25.841h-10.16c4.055-7.733 6.363-16.52 6.363-25.841v-11.605h-30v11.604c0 14.249-11.592 25.841-25.841 25.841h-1.974c-28.698 0-52.046 23.348-52.046 52.046v28.013h30v-28.013c0-12.156 9.89-22.046 22.046-22.046h121.25c30.791 0 55.84-25.05 55.84-55.841v-54.977z" fill="#4d2917"/><path d="m186.422 80.818h-1.974c-14.249 0-25.84-11.592-25.84-25.841v-11.604h-30v11.604c0 9.321 2.308 18.108 6.363 25.841h-10.16c-14.249 0-25.841-11.592-25.841-25.841v-33.29h-30v33.291c0 9.321 2.308 18.108 6.363 25.841h-10.16c-14.249 0-25.84-11.592-25.84-25.841v-54.978h-30v54.978c0 30.791 25.05 55.841 55.84 55.841h121.25c12.156 0 22.046 9.89 22.046 22.046v28.013h30v-28.013c0-28.698-23.348-52.047-52.047-52.047z" fill="#804040"/><path d="m402.194 215.211c0-38.23-31.103-69.333-69.333-69.333h-153.724c-38.23 0-69.333 31.103-69.333 69.333v150.591c0 26.421 7.046 51.227 19.356 72.639 22.514-49.742 72.224-81.851 126.839-81.851s104.325 32.11 126.839 81.852c12.31-21.412 19.356-46.218 19.356-72.639z" fill="#a05f4b"/><path d="m332.86 145.877h-76.862v210.713c54.615 0 104.325 32.11 126.839 81.852 12.31-21.412 19.356-46.218 19.356-72.639v-150.592c.001-38.231-31.102-69.334-69.333-69.334z" fill="#804040"/><path d="m255.999 326.59c-57.464 0-110.464 29.241-141.42 76.312 16.462 62.704 73.623 109.095 141.42 109.095s124.958-46.391 141.42-109.095c-30.956-47.071-83.956-76.312-141.42-76.312z" fill="#c9885b"/><path d="m255.999 326.59v185.407c67.797 0 124.958-46.391 141.42-109.095-30.956-47.071-83.956-76.312-141.42-76.312z" fill="#a05f4b"/><ellipse cx="255.999" cy="374.116" fill="#e20f5a" rx="52.949" ry="47.526"/><path d="m255.999 326.59v95.053c29.196 0 52.949-21.32 52.949-47.526s-23.753-47.527-52.949-47.527z" fill="#c21250"/><g><path d="m186.782 267.856h30v30.001h-30z" fill="#804040"/></g><g><path d="m295.215 267.856h30v30.001h-30z" fill="#804040"/></g><g><path d="m295.215 267.856h30v30.001h-30z" fill="#4d2917"/></g></g></svg>