<svg id="Layer_1" enable-background="new 0 0 512.008 512.008" height="512" viewBox="0 0 512.008 512.008" width="512" xmlns="http://www.w3.org/2000/svg"><g><path d="m104.726 187.82c-11.443 23.14-17.478 48.818-17.478 74.786 0 39.735 14.092 78.336 39.68 108.692l4.495 5.333h249.164l4.494-5.333c25.587-30.355 39.679-68.957 39.679-108.692 0-25.969-6.034-51.647-17.477-74.786z" fill="#fff5f5"/><path d="m385.081 371.298c25.587-30.355 39.679-68.957 39.679-108.692 0-25.969-6.034-51.647-17.477-74.786h-151.279v188.811h124.583z" fill="#ece6f2"/><path d="m397.559 406.69-2.568-.973h-277.974l-2.568.973c-31.779 12.041-53.13 42.96-53.13 76.939v28.378h389.371v-28.377c0-33.979-21.351-64.899-53.131-76.94z" fill="#fff5f5"/><path d="m450.69 483.63c0-33.979-21.352-64.898-53.131-76.939l-2.568-.973h-138.987v106.291h194.686z" fill="#ece6f2"/><g><path d="m241.004 266.677h30v51.333h-30z" fill="#fb3"/></g><g><path d="m176.776 236.675h30v30.002h-30z" fill="#143d66"/></g><g><path d="m305.21 236.675h30v30.002h-30z" fill="#143d66"/></g><path d="m102.064 0h307.881v120.237h-307.881z" fill="#143d66"/><path d="m256.004 0h153.941v120.237h-153.941z" fill="#0f244d"/><path d="m102.064 90.237h130.433v97.583h-130.433z" fill="#e20f5a"/><path d="m279.511 90.237h130.434v97.583h-130.434z" fill="#e20f5a"/><path d="m279.511 90.237h130.434v97.583h-130.434z" fill="#c21250"/><path d="m217.497 105.238h77.015v82.583h-77.015z" fill="#fb3"/><path d="m256.004 105.238h38.508v82.583h-38.508z" fill="#ff884d"/><path d="m309.511 187.82h-30v-67.583h-47.015v67.583h-30v-97.583h107.015z" fill="#fd9"/><path d="m256.004 90.237v30h23.507v67.583h30v-97.583z" fill="#fb3"/><path d="m282.586 412.004h95.39v100.004h-95.39z" fill="#69f"/><path d="m282.586 412.004h95.39v100.004h-95.39z" fill="#35f"/><path d="m372.976 346.615h-233.944c-26.299 0-47.694 21.396-47.694 47.695s21.396 47.694 47.694 47.694h233.944c26.299 0 47.694-21.396 47.694-47.694s-21.395-47.695-47.694-47.695z" fill="#9bf"/><g><path d="m42.621 172.821h426.767v30h-426.767z" fill="#143d66"/></g><g><path d="m305.21 236.675h30v30.002h-30z" fill="#0f244d"/></g><path d="m256.004 266.677h15v51.333h-15z" fill="#ff884d"/><path d="m372.976 346.615h-116.972v95.389h116.972c26.299 0 47.694-21.396 47.694-47.694s-21.395-47.695-47.694-47.695z" fill="#69f"/><path d="m256.004 172.821h213.384v30h-213.384z" fill="#0f244d"/></g></svg>