<svg id="Layer_1" enable-background="new 0 0 512.001 512.001" height="512" viewBox="0 0 512.001 512.001" width="512" xmlns="http://www.w3.org/2000/svg"><g><path d="m110.62 210.793h290.762v217.137h-290.762z" fill="#a05f4b"/><path d="m256.001 210.793h145.381v217.137h-145.381z" fill="#804040"/><path d="m362.682 408.997h-213.362c-48.526 0-88.005 39.479-88.005 88.004v15h389.372v-15c0-48.525-39.479-88.004-88.005-88.004z" fill="#21cab1"/><path d="m450.687 497.001c0-48.526-39.479-88.004-88.005-88.004h-106.681v103.004h194.686z" fill="#149397"/><g><path d="m241 408.997h30v103.004h-30z" fill="#b0e997"/></g><path d="m256.001 408.997h14.999v103.004h-14.999z" fill="#21cab1"/><path d="m140.621 195.793v186.161c26.596 34.656 68.42 57.043 115.38 57.043s88.783-22.387 115.38-57.042v-186.162z" fill="#ffe1d2"/><path d="m256.001 195.793v243.204c46.96 0 88.783-22.387 115.38-57.042v-186.162z" fill="#ffcbbc"/><g><path d="m186.031 273.296h30v30.002h-30z" fill="#143d66"/></g><g><path d="m295.971 273.296h30v30.002h-30z" fill="#143d66"/></g><g><path d="m256 391.779c-17.801 0-34.536-6.932-47.123-19.52l21.213-21.213c6.921 6.921 16.123 10.732 25.91 10.732 9.788 0 18.99-3.812 25.911-10.732l21.213 21.213c-12.587 12.587-29.323 19.52-47.124 19.52z" fill="#ffcbbc"/></g><circle cx="256.001" cy="40.587" fill="#b0e997" r="40.587"/><path d="m296.588 40.587c0-22.38-18.207-40.587-40.587-40.587v81.174c22.38 0 40.587-18.207 40.587-40.587z" fill="#21cab1"/><path d="m300.369 51.174h-88.736c-55.698 0-101.013 45.314-101.013 101.013v15h290.762v-15c0-55.699-45.314-101.013-101.013-101.013z" fill="#21cab1"/><path d="m401.382 152.187c0-55.699-45.314-101.013-101.013-101.013h-44.368v116.013h145.381z" fill="#149397"/><path d="m386.382 137.187h-260.762c-24.429 0-44.304 19.875-44.304 44.304s19.875 44.303 44.304 44.303h260.762c24.429 0 44.303-19.875 44.303-44.303 0-24.43-19.874-44.304-44.303-44.304z" fill="#b0e997"/><path d="m430.685 181.49c0-24.429-19.874-44.304-44.303-44.304h-130.381v88.607h130.381c24.429 0 44.303-19.874 44.303-44.303z" fill="#21cab1"/><g><path d="m295.971 273.296h30v30.002h-30z" fill="#0f244d"/></g><path d="m281.911 351.046c-6.921 6.921-16.122 10.732-25.91 10.732v30c17.801 0 34.536-6.932 47.123-19.52z" fill="#ffbcae"/></g></svg>