<svg id="Layer_1" enable-background="new 0 0 512.001 512.001" height="512" viewBox="0 0 512.001 512.001" width="512" xmlns="http://www.w3.org/2000/svg"><g><path d="m445.719 330.474c1.658-5.626 2.494-11.457 2.494-17.422 0-18.981-8.535-36.642-23.417-48.453-14.662-11.636-23.415-30.318-23.415-49.974v-33.831h-290.761v33.831c0 19.657-8.753 38.339-23.415 49.974-14.882 11.811-23.417 29.472-23.417 48.453 0 5.965.836 11.796 2.494 17.422-7.977 12.396-11.874 26.992-11.072 41.945.926 17.288 8.241 33.613 20.597 45.966 12.355 12.354 28.681 19.666 45.969 20.59l268.049.021.4-.021c17.289-.923 33.614-8.235 45.97-20.589s19.67-28.678 20.598-45.966c.8-14.953-3.096-29.55-11.074-41.946z" fill="#ece6f2"/><path d="m445.719 330.474c1.658-5.626 2.494-11.457 2.494-17.422 0-18.981-8.535-36.642-23.417-48.453-14.662-11.636-23.415-30.318-23.415-49.974v-33.831h-145.38v258.193l133.824.011.4-.021c17.289-.923 33.614-8.235 45.97-20.589s19.67-28.678 20.598-45.966c.8-14.955-3.096-29.552-11.074-41.948z" fill="#d7cfe6"/><path d="m170.996 408.997h170.009v103.004h-170.009z" fill="#fff5f5"/><path d="m256.001 408.997h85.004v103.004h-85.004z" fill="#ece6f2"/><path d="m362.682 408.997h-46.676v103.004h134.681v-15c-.001-48.525-39.479-88.004-88.005-88.004z" fill="#ff4d4d"/><path d="m362.682 408.997h-46.676v103.004h134.681v-15c-.001-48.525-39.479-88.004-88.005-88.004z" fill="#e20f5a"/><path d="m149.32 408.997c-48.526 0-88.004 39.479-88.004 88.004v15h134.681v-103.004z" fill="#ff4d4d"/><path d="m125.62 195.793v97.824c0 72.007 58.373 130.381 130.381 130.381 72.007 0 130.381-58.373 130.381-130.381v-97.824z" fill="#ffe1d2"/><path d="m256.001 195.793v228.204c72.007 0 130.381-58.373 130.381-130.381v-97.824h-130.381z" fill="#ffcbbc"/><g><path d="m256.001 371.776c-17.801 0-34.537-6.932-47.124-19.52l21.213-21.213c6.921 6.921 16.123 10.732 25.911 10.732s18.989-3.812 25.911-10.732l21.213 21.213c-12.588 12.588-29.324 19.52-47.124 19.52z" fill="#ffcbbc"/></g><circle cx="315.971" cy="268.296" fill="#b3d9ff" r="27.86"/><circle cx="315.971" cy="268.296" fill="#9bf" r="27.86"/><circle cx="196.03" cy="268.296" fill="#b3d9ff" r="27.86"/><path d="m386.382 253.296h-30.266c-6.094-16.256-21.787-27.86-40.145-27.86s-34.05 11.604-40.144 27.86h-39.651c-6.094-16.256-21.787-27.86-40.144-27.86s-34.051 11.604-40.145 27.86h-30.267v30h30.266c6.094 16.256 21.787 27.859 40.145 27.859s34.05-11.604 40.144-27.859h39.651c6.094 16.256 21.787 27.859 40.144 27.859s34.051-11.604 40.145-27.859h30.266v-30zm-190.351 27.86c-7.091 0-12.86-5.769-12.86-12.859s5.769-12.86 12.86-12.86 12.859 5.769 12.859 12.86-5.769 12.859-12.859 12.859zm119.94 0c-7.091 0-12.859-5.769-12.859-12.859s5.769-12.86 12.859-12.86 12.86 5.769 12.86 12.86-5.769 12.859-12.86 12.859z" fill="#143d66"/><path d="m356.116 253.296c-6.094-16.256-21.787-27.86-40.145-27.86s-34.05 11.604-40.144 27.86h-19.826v30h19.826c6.094 16.256 21.787 27.859 40.144 27.859s34.051-11.604 40.145-27.859h30.266v-30zm-40.145 27.86c-7.091 0-12.859-5.769-12.859-12.859s5.769-12.86 12.859-12.86 12.86 5.769 12.86 12.86-5.769 12.859-12.86 12.859z" fill="#0f244d"/><path d="m413.617 0h-42.082v42.082c0 23.204 18.878 42.082 42.082 42.082s42.081-18.877 42.081-42.082-18.878-42.082-42.081-42.082z" fill="#fff5f5"/><path d="m413.617 0h-42.082v42.082c0 23.204 18.878 42.082 42.082 42.082s42.081-18.877 42.081-42.082-18.878-42.082-42.081-42.082z" fill="#ece6f2"/><path d="m256.001 0v97.706h82.091c34.983 0 63.443-28.46 63.443-63.443v-34.263z" fill="#e20f5a"/><path d="m256.001 0v97.706h82.091c34.983 0 63.443-28.46 63.443-63.443v-34.263z" fill="#c21250"/><path d="m312.964 27.353c-13.927-17.383-34.689-27.353-56.963-27.353s-43.036 9.97-56.962 27.353l-100.016 124.833h313.956z" fill="#ff4d4d"/><path d="m312.964 27.353c-13.927-17.383-34.689-27.353-56.963-27.353v152.186h156.978z" fill="#e20f5a"/><path d="m386.382 122.186h-260.762c-24.429 0-44.304 19.875-44.304 44.303 0 24.429 19.875 44.304 44.304 44.304h260.762c24.429 0 44.303-19.875 44.303-44.304 0-24.428-19.875-44.303-44.303-44.303z" fill="#fff5f5"/><path d="m430.685 166.489c0-24.429-19.875-44.303-44.303-44.303h-130.381v88.607h130.381c24.428 0 44.303-19.875 44.303-44.304z" fill="#ece6f2"/><path d="m303.124 352.256-21.213-21.213c-6.921 6.921-16.123 10.732-25.911 10.732v30c17.801.001 34.537-6.931 47.124-19.519z" fill="#ffbcae"/></g></svg>