<svg id="Layer_1" enable-background="new 0 0 512.002 512.002" height="512" viewBox="0 0 512.002 512.002" width="512" xmlns="http://www.w3.org/2000/svg"><g><g><path d="m431.384 210.024h-30v-45.67c0-74.083-60.271-134.354-134.354-134.354h-22.057c-74.083 0-134.354 60.271-134.354 134.354v45.67h-30v-45.67c-.001-90.625 73.728-164.354 164.354-164.354h22.057c90.625 0 164.354 73.729 164.354 164.354z" fill="#143d66"/></g><path d="m267.03 0h-11.028v30h11.028c74.083 0 134.354 60.271 134.354 134.354v45.67h30v-45.67c0-90.625-73.729-164.354-164.354-164.354z" fill="#0f244d"/><path d="m416.384 195.024h-44.482l-5.152 146.133h49.635c24.814 0 45.002-20.188 45.002-45.002v-56.13c-.001-24.813-20.189-45.001-45.003-45.001z" fill="#fff5f5"/><path d="m416.384 195.024h-44.482l-5.152 146.133h49.635c24.814 0 45.002-20.188 45.002-45.002v-56.13c-.001-24.813-20.189-45.001-45.003-45.001z" fill="#ece6f2"/><path d="m140.101 195.024h-44.483c-24.814 0-45.002 20.188-45.002 45.001v56.13c0 24.814 20.188 45.002 45.002 45.002h49.635z" fill="#fff5f5"/><path d="m277.518 143.006c0 28.683-23.335 52.018-52.019 52.018h-114.879v98.591c0 33.199 11.493 65.672 32.361 91.437l4.502 5.559h217.036l4.502-5.559c20.868-25.765 32.36-58.238 32.36-91.437v-98.591h-41.845c-28.683 0-52.019-23.335-52.019-52.018z" fill="#ffe1d2"/><path d="m369.022 385.052c20.868-25.765 32.36-58.238 32.36-91.437v-98.591h-41.845c-28.683 0-52.019-23.335-52.019-52.018h-30c0 17.295-8.492 32.636-21.517 42.099v205.506h108.518z" fill="#ffcbbc"/><path d="m281.364 60.004h-50.725c-66.179 0-120.019 53.84-120.019 120.019v45.001h114.88c27.653 0 52.154-13.757 67.019-34.785 14.865 21.028 39.366 34.785 67.019 34.785h41.845v-45.001c-.001-66.179-53.841-120.019-120.019-120.019z" fill="#804040"/><path d="m292.518 190.239c14.865 21.028 39.366 34.785 67.019 34.785h41.845v-45.001c0-66.179-53.84-120.019-120.019-120.019h-25.362v159.13c14.778-5.943 27.445-16.06 36.517-28.895z" fill="#4d2917"/><g><path d="m186.031 253.293h30v30.002h-30z" fill="#143d66"/></g><g><path d="m295.971 253.293h30v30.002h-30z" fill="#143d66"/></g><g><path d="m256.001 360.609c-17.801 0-34.537-6.932-47.124-19.52l21.213-21.213c6.921 6.921 16.123 10.732 25.911 10.732 9.787 0 18.989-3.812 25.911-10.733l21.213 21.214c-12.588 12.588-29.323 19.52-47.124 19.52z" fill="#ffcbbc"/></g><path d="m402.415 418.481-3.197-1.621h-286.434l-3.197 1.621c-29.775 15.093-48.271 45.18-48.271 78.519v15h389.371v-15c0-33.339-18.497-63.426-48.272-78.519z" fill="#fd9"/><path d="m450.687 497c0-33.339-18.497-63.426-48.271-78.519l-3.197-1.621h-143.218v95.14h194.686z" fill="#fb3"/><path d="m282.583 426h95.389v86.001h-95.389z" fill="#ff884d"/><path d="m282.583 426h95.389v86.001h-95.389z" fill="#ff4d4d"/><path d="m372.973 360.61h-233.944c-26.299 0-47.694 21.396-47.694 47.695s21.395 47.695 47.694 47.695h233.944c26.299 0 47.694-21.396 47.694-47.695s-21.395-47.695-47.694-47.695z" fill="#fb3"/><path d="m372.973 360.61h-116.972v95.39h116.972c26.299 0 47.694-21.396 47.694-47.695s-21.395-47.695-47.694-47.695z" fill="#ff884d"/><g><path d="m295.971 253.293h30v30.002h-30z" fill="#0f244d"/></g><path d="m303.125 341.09-21.213-21.214c-6.921 6.921-16.124 10.733-25.911 10.733v30c17.801 0 34.536-6.932 47.124-19.519z" fill="#ffbcae"/></g></svg>