<svg id="Layer_1" enable-background="new 0 0 512.004 512.004" height="512" viewBox="0 0 512.004 512.004" width="512" xmlns="http://www.w3.org/2000/svg"><g><path d="m108.115 180.791v92.827c0 50.241 25.411 96.249 67.974 123.07l3.665 2.31h147.485l3.665-2.31c42.562-26.821 67.973-72.829 67.973-123.07v-92.827z" fill="#ffe1d2"/><path d="m253.496 180.791v218.207h73.743l3.665-2.31c42.562-26.821 67.973-72.829 67.973-123.07v-92.827z" fill="#ffcbbc"/><path d="m363.203 406.051v-37.054h-219.414v37.054c-47.13 1.601-84.979 40.44-84.979 87.953v18h389.372v-18c0-47.513-37.849-86.353-84.979-87.953z" fill="#69f"/><path d="m448.182 494.004c0-47.513-37.849-86.353-84.979-87.953v-37.054h-109.707v143.007h194.686z" fill="#35f"/><g><path d="m183.526 233.284h30v30.002h-30z" fill="#143d66"/></g><g><path d="m293.466 233.284h30v30.002h-30z" fill="#143d66"/></g><g><path d="m253.496 340.599c-17.801 0-34.537-6.932-47.124-19.519l21.213-21.213c6.921 6.92 16.123 10.732 25.911 10.732s18.99-3.812 25.911-10.732l21.213 21.214c-12.588 12.586-29.324 19.518-47.124 19.518z" fill="#ffcbbc"/></g><g><path d="m293.466 233.284h30v30.002h-30z" fill="#0f244d"/></g><path d="m411.112 0h-42.082v42.082c0 23.204 18.878 42.082 42.082 42.082s42.081-18.877 42.081-42.082-18.877-42.082-42.081-42.082z" fill="#fff5f5"/><path d="m411.112 0h-42.082v42.082c0 23.204 18.878 42.082 42.082 42.082s42.081-18.877 42.081-42.082-18.877-42.082-42.081-42.082z" fill="#ece6f2"/><path d="m253.496 0v97.706h82.091c34.983 0 63.443-28.46 63.443-63.443v-34.263z" fill="#e20f5a"/><path d="m253.496 0v97.706h82.091c34.983 0 63.443-28.46 63.443-63.443v-34.263z" fill="#c21250"/><path d="m310.459 27.353c-13.927-17.383-34.689-27.353-56.963-27.353s-43.036 9.97-56.962 27.353l-100.016 124.833h313.956z" fill="#ff4d4d"/><path d="m310.459 27.353c-13.927-17.383-34.689-27.353-56.963-27.353v152.186h156.978z" fill="#e20f5a"/><path d="m383.877 122.186h-260.762c-24.429 0-44.304 19.875-44.304 44.303 0 24.429 19.875 44.304 44.304 44.304h260.762c24.429 0 44.303-19.875 44.303-44.304 0-24.428-19.874-44.303-44.303-44.303z" fill="#fff5f5"/><path d="m428.18 166.489c0-24.429-19.875-44.303-44.303-44.303h-130.381v88.607h130.381c24.429 0 44.303-19.875 44.303-44.304z" fill="#ece6f2"/><path d="m279.407 299.866c-6.921 6.921-16.123 10.732-25.911 10.732v30c17.8 0 34.536-6.932 47.124-19.519z" fill="#ffbcae"/></g></svg>