<svg id="Layer_1" enable-background="new 0 0 512.002 512.002" height="512" viewBox="0 0 512.002 512.002" width="512" xmlns="http://www.w3.org/2000/svg"><g><path d="m383.309 0c-27.783 0-52.82 17.541-62.303 43.647l-3.049 8.393 71.646 80.798 8.688-2.011c30.199-6.988 51.29-33.534 51.29-64.553.002-36.544-29.729-66.274-66.272-66.274z" fill="#ece6f2"/><path d="m383.309 0c-27.783 0-52.82 17.541-62.303 43.647l-3.049 8.393 71.646 80.798 8.688-2.011c30.199-6.988 51.29-33.534 51.29-64.553.002-36.544-29.729-66.274-66.272-66.274z" fill="#d7cfe6"/><path d="m190.996 43.647c-9.483-26.106-34.52-43.647-62.303-43.647-36.543 0-66.273 29.73-66.273 66.273 0 31.02 21.091 57.565 51.29 64.553l8.688 2.011 71.646-80.798z" fill="#ece6f2"/><path d="m397.556 406.685-2.568-.973h-277.975l-2.567.973c-31.779 12.042-53.131 42.961-53.131 76.939v28.378h389.372v-28.378c0-33.979-21.351-64.898-53.131-76.939z" fill="#fff5f5"/><path d="m450.687 483.624c0-33.979-21.352-64.898-53.131-76.939l-2.568-.973h-138.976v106.291h194.675z" fill="#ece6f2"/><path d="m272.155 17.818h-32.308c-81.052 0-146.992 65.941-146.992 146.993v85.527c0 50.398 25.377 96.718 67.883 123.907l3.696 2.364h183.134l3.696-2.364c42.506-27.189 67.883-73.509 67.883-123.907v-85.527c0-81.052-65.94-146.993-146.992-146.993z" fill="#fff5f5"/><path d="m351.264 374.245c42.506-27.189 67.883-73.509 67.883-123.907v-85.527c0-81.052-65.94-146.993-146.992-146.993h-16.143v358.791h91.556z" fill="#ece6f2"/><g><path d="m285.323 323.346c-11.228 0-21.493-4.198-29.311-11.106-7.817 6.908-18.083 11.106-29.311 11.106-9.286 0-18.181-2.845-25.722-8.227l17.428-24.419c2.425 1.731 5.293 2.646 8.294 2.646 7.891 0 14.311-6.419 14.311-14.311v-23.871h30v23.871c0 7.891 6.42 14.311 14.311 14.311 3 0 5.867-.915 8.293-2.646l17.428 24.419c-7.541 5.382-16.436 8.227-25.721 8.227z" fill="#ece6f2"/></g><path d="m311.044 315.119-17.428-24.419c-2.426 1.731-5.293 2.646-8.293 2.646-7.891 0-14.311-6.419-14.311-14.311v-23.871h-15v57.075c7.817 6.908 18.083 11.106 29.311 11.106 9.285.001 18.18-2.844 25.721-8.226z" fill="#d7cfe6"/><path d="m297.768 203.935c-5.135-9.725-15.156-15.767-26.153-15.767h-31.22c-11 0-21.022 6.043-26.156 15.771s-4.468 21.412 1.739 30.491l15.614 22.848c5.516 8.069 14.644 12.887 24.417 12.887 9.778 0 18.908-4.821 24.422-12.894l15.605-22.847c6.203-9.082 6.867-20.764 1.732-30.489z" fill="#143d66"/><g><path d="m303.856 141.139h30v30.002h-30z" fill="#143d66"/></g><g><path d="m178.44 141.139h30v30.002h-30z" fill="#143d66"/></g><path d="m134.03 411.998h95.39v100.004h-95.39z" fill="#ff4d4d"/><path d="m372.973 346.609h-233.944c-26.299 0-47.694 21.396-47.694 47.695s21.396 47.694 47.694 47.694h233.944c26.299 0 47.694-21.396 47.694-47.694s-21.395-47.695-47.694-47.695z" fill="#e20f5a"/><g><path d="m303.856 141.139h30v30.002h-30z" fill="#0f244d"/></g><path d="m372.973 346.609h-116.961v95.389h116.961c26.299 0 47.694-21.396 47.694-47.694s-21.395-47.695-47.694-47.695z" fill="#c21250"/><path d="m297.768 203.935c-5.135-9.725-15.156-15.767-26.153-15.767h-15.603v81.997c9.777-.001 18.906-4.822 24.419-12.894l15.605-22.847c6.203-9.082 6.867-20.764 1.732-30.489z" fill="#0f244d"/></g></svg>