<svg id="Layer_1" enable-background="new 0 0 511.985 511.985" height="512" viewBox="0 0 511.985 511.985" width="512" xmlns="http://www.w3.org/2000/svg"><g><path d="m149.311 408.98c-48.526 0-88.005 39.479-88.005 88.004v15h89.679v-103.004z" fill="#fff5f5"/><path d="m450.678 496.985c0-48.526-39.479-88.004-88.005-88.004h-1.673v103.004h89.679v-15z" fill="#fff5f5"/><path d="m450.678 496.985c0-48.526-39.479-88.004-88.005-88.004h-1.673v103.004h89.679v-15z" fill="#ece6f2"/><path d="m362.674 408.98h-213.363c-9.906 0-19.433 1.646-28.326 4.678v98.327h270.015v-98.327c-8.893-3.031-18.421-4.678-28.326-4.678z" fill="#149397"/><path d="m391 511.985v-98.327c-8.893-3.031-18.421-4.678-28.326-4.678h-106.681v103.004h135.007z" fill="#12627c"/><g><path d="m240.993 460.483h30v31.502h-30z" fill="#fff5f5"/></g><g><path d="m300.996 460.483h30v31.502h-30z" fill="#fff5f5"/></g><g><path d="m180.989 460.483h30v31.502h-30z" fill="#fff5f5"/></g><g><path d="m300.996 460.483h30v31.502h-30z" fill="#ece6f2"/></g><path d="m255.993 460.483h15v31.502h-15z" fill="#ece6f2"/><path d="m110.612 200.009v93.59c0 80.163 65.218 145.381 145.381 145.381s145.38-65.217 145.38-145.38v-93.59h-290.761z" fill="#ffe1d2"/><path d="m255.993 200.009v238.971c80.163 0 145.38-65.218 145.38-145.381v-93.59z" fill="#ffcbbc"/><g><path d="m186.022 273.28h30v30.002h-30z" fill="#143d66"/></g><g><path d="m295.963 273.28h30v30.002h-30z" fill="#143d66"/></g><g><path d="m255.992 391.762c-17.801 0-34.536-6.932-47.123-19.52l21.213-21.213c6.921 6.921 16.123 10.732 25.91 10.732 9.788 0 18.99-3.812 25.911-10.732l21.213 21.213c-12.587 12.588-29.323 19.52-47.124 19.52z" fill="#ffcbbc"/></g><g><path d="m295.963 273.28h30v30.002h-30z" fill="#0f244d"/></g><path d="m281.903 351.03c-6.921 6.921-16.122 10.732-25.91 10.732v30c17.801 0 34.536-6.932 47.123-19.52z" fill="#ffbcae"/><path d="m416.595 0v18.604c0 12.34-2.631 24.296-7.422 35.221-15.508-2.781-27.318-16.363-27.318-32.659v-3.164h-30v3.164c0 26.608 16.539 49.411 39.87 58.711-8.885 9.228-19.803 16.6-32.21 21.282l-1.613.608 10.586 28.07 1.616-.609c22.584-8.522 41.778-23.522 55.507-43.377 13.729-19.854 20.985-43.108 20.985-67.247v-18.604z" fill="#ff4d4d"/><path d="m416.595 0v18.604c0 12.34-2.631 24.296-7.422 35.221-15.508-2.781-27.318-16.363-27.318-32.659v-3.164h-30v3.164c0 26.608 16.539 49.411 39.87 58.711-8.885 9.228-19.803 16.6-32.21 21.282l-1.613.608 10.586 28.07 1.616-.609c22.584-8.522 41.778-23.522 55.507-43.377 13.729-19.854 20.985-43.108 20.985-67.247v-18.604z" fill="#e20f5a"/><path d="m160.13 21.165v-3.164h-30v3.164c0 16.296-11.809 29.878-27.318 32.659-4.792-10.925-7.423-22.881-7.423-35.221v-18.603h-30v18.604c0 24.139 7.257 47.393 20.985 67.247 13.729 19.855 32.923 34.854 55.511 43.378l1.613.608 10.586-28.07-1.61-.607c-12.409-4.682-23.328-12.055-32.214-21.283 23.331-9.302 39.87-32.104 39.87-58.712z" fill="#ff4d4d"/><path d="m400.537 151.462c-20.045-57.464-74.402-96.072-135.261-96.072h-18.567c-60.859 0-115.216 38.608-135.26 96.073l-6.955 19.94h302.999z" fill="#a05f4b"/><path d="m400.537 151.462c-20.045-57.464-74.402-96.072-135.261-96.072h-9.283v116.013h151.5z" fill="#804040"/><path d="m386.374 141.402h-260.762c-24.429 0-44.304 19.875-44.304 44.304s19.875 44.303 44.304 44.303h260.762c24.429 0 44.303-19.875 44.303-44.303 0-24.429-19.875-44.304-44.303-44.304z" fill="#c9885b"/><path d="m430.677 185.706c0-24.429-19.874-44.304-44.303-44.304h-130.381v88.607h130.381c24.428 0 44.303-19.874 44.303-44.303z" fill="#a05f4b"/></g></svg>