<svg id="Layer_1" enable-background="new 0 0 511.997 511.997" height="512" viewBox="0 0 511.997 511.997" width="512" xmlns="http://www.w3.org/2000/svg"><g><path d="m368.416 408.98h-224.835c-45.363 0-82.268 36.905-82.268 82.268v20.737h389.371v-20.737c0-45.363-36.905-82.268-82.268-82.268z" fill="#ff884d"/><path d="m450.684 491.248c0-45.362-36.905-82.268-82.268-82.268h-112.418v103.004h194.686z" fill="#ff4d4d"/><path d="m125.618 253.1c0 36.568 29.645 66.213 66.213 66.213 10.017 0 19.903-2.273 28.914-6.647l6.34-3.078c18.257-8.862 39.57-8.862 57.827 0l6.341 3.078c9.011 4.374 18.897 6.647 28.914 6.647 36.568 0 66.213-29.645 66.213-66.213v-57.313h-260.762z" fill="#ffe1d2"/><path d="m255.999 302.942c9.893 0 19.785 2.216 28.914 6.647l6.341 3.078c9.011 4.374 18.897 6.646 28.914 6.646 36.568 0 66.213-29.645 66.213-66.213v-57.313h-130.382z" fill="#ffcbbc"/><path d="m110.618 195.787v97.947c0 16.606-3.83 33.407-11.383 49.935-4.025 8.81-6.066 18.217-6.066 27.961 0 17.594 6.743 34.239 18.986 46.869 9.428 9.724 21.334 16.269 34.332 19.017 8.066 25.169 30.508 43.648 57.079 46.462 11.598 17.272 31.289 28.018 52.433 28.018s40.835-10.747 52.433-28.018c26.571-2.814 49.013-21.293 57.079-46.462 12.998-2.749 24.904-9.293 34.332-19.017 12.244-12.63 18.986-29.275 18.986-46.869 0-9.744-2.041-19.151-6.066-27.961-7.553-16.528-11.383-33.329-11.383-49.935v-97.947h-30v57.313c0 28.239-22.974 51.213-51.213 51.213-7.702 0-15.436-1.778-22.364-5.141l-6.34-3.078c-10.987-5.333-23.25-8.152-35.464-8.152s-24.477 2.819-35.463 8.152l-6.341 3.078c-6.928 3.363-14.661 5.141-22.363 5.141-28.239 0-51.213-22.974-51.213-51.213v-57.313z" fill="#c9885b"/><path d="m412.762 343.669c-7.553-16.528-11.383-33.329-11.383-49.935v-97.947h-30v57.313c0 28.239-22.974 51.213-51.213 51.213-7.702 0-15.436-1.778-22.364-5.141l-6.34-3.078c-10.987-5.333-23.25-8.152-35.464-8.152v224.054c21.144 0 40.835-10.747 52.433-28.018 26.571-2.814 49.013-21.293 57.079-46.462 12.998-2.749 24.904-9.293 34.332-19.017 12.244-12.63 18.986-29.275 18.986-46.869.001-9.744-2.04-19.151-6.066-27.961z" fill="#a05f4b"/><g><path d="m186.029 238.289h30v30.002h-30z" fill="#143d66"/></g><g><path d="m295.969 238.289h30v30.002h-30z" fill="#143d66"/></g><g><path d="m255.999 374.01c-17.802 0-34.537-6.932-47.124-19.52l21.214-21.213c6.92 6.921 16.122 10.732 25.91 10.732s18.989-3.812 25.911-10.732l21.213 21.213c-12.588 12.588-29.323 19.52-47.124 19.52z" fill="#ffcbbc"/></g><g><path d="m295.969 238.289h30v30.002h-30z" fill="#0f244d"/></g><path d="m281.909 333.278c-6.921 6.921-16.123 10.732-25.911 10.732v30c17.801 0 34.537-6.932 47.124-19.52z" fill="#ffbcae"/><path d="m371.379 15c0 27.673-22.514 50.188-50.188 50.188s-50.187-22.515-50.187-50.188l-.011-15h-30v15c0 27.673-22.514 50.188-50.188 50.188-27.673 0-50.188-22.514-50.188-50.188h-30v133.406h290.761v-133.406z" fill="#fd9"/><path d="m401.379 15h-30c0 27.673-22.514 50.188-50.188 50.188s-50.187-22.515-50.187-50.188l-.011-15h-14.994v148.406h145.38z" fill="#fb3"/><path d="m110.617 123.407h290.761v85.003h-290.761z" fill="#fb3"/><path d="m255.999 123.407h145.38v85.003h-145.38z" fill="#ff884d"/></g></svg>