<svg id="Layer_1" enable-background="new 0 0 511.985 511.985" height="512" viewBox="0 0 511.985 511.985" width="512" xmlns="http://www.w3.org/2000/svg"><g><path d="m159.789 408.981h-16.214c-45.363 0-82.269 36.905-82.269 82.268v20.736h201.486z" fill="#21cab1"/><path d="m368.41 408.981h-148.615l103.004 103.004h127.88v-20.736c0-45.363-36.906-82.268-82.269-82.268z" fill="#21cab1"/><path d="m368.41 408.981h-112.417v36.198l66.806 66.806h127.88v-20.736c0-45.363-36.906-82.268-82.269-82.268z" fill="#149397"/><path d="m262.221 408.981h-118.646c-7.96 0-15.65 1.158-22.935 3.277l99.727 99.727h144.857z" fill="#b0e997"/><path d="m365.225 511.985-103.004-103.004h-6.228v103.004z" fill="#21cab1"/><path d="m386.374 188.411v105.189c0 72.007-58.373 130.381-130.381 130.381-72.007 0-130.381-58.373-130.381-130.381v-105.189z" fill="#c9885b"/><path d="m255.993 188.411v235.57c72.007 0 130.38-58.374 130.38-130.381v-105.189z" fill="#a05f4b"/><path d="m140.612 188.411h-30v105.189c0 80.163 65.218 145.381 145.381 145.381s145.381-65.218 145.381-145.381v-105.189h-30v105.189c0 24.284-7.547 46.834-20.41 65.443v-7.465c0-35.776-29.105-64.882-64.882-64.882h-60.179c-35.776 0-64.882 29.106-64.882 64.882v7.464c-12.862-18.609-20.409-41.159-20.409-65.442zm180.352 200.487c-18.517 12.664-40.893 20.082-64.971 20.082h-.001c-24.078 0-46.453-7.418-64.971-20.083v-37.32c0-19.234 15.647-34.882 34.882-34.882h60.179c19.234 0 34.882 15.648 34.882 34.882z" fill="#804040"/><path d="m371.374 188.411v105.189c0 24.284-7.547 46.834-20.41 65.443v-7.465c0-35.776-29.105-64.882-64.882-64.882h-30.089v30h30.089c19.234 0 34.882 15.648 34.882 34.882v37.32c-18.517 12.664-40.893 20.082-64.971 20.082v30c80.163 0 145.381-65.218 145.381-145.381v-105.188z" fill="#4d2917"/><g><path d="m186.022 233.278h30v30.002h-30z" fill="#143d66"/></g><g><path d="m295.963 233.278h30v30.002h-30z" fill="#143d66"/></g><g><path d="m255.993 378c-17.801 0-34.537-6.932-47.124-19.52l21.213-21.213c6.921 6.921 16.123 10.732 25.911 10.732 9.787 0 18.989-3.812 25.91-10.732l21.213 21.213c-12.587 12.587-29.322 19.52-47.123 19.52z" fill="#a05f4b"/></g><path d="m402.154 34.271c-17.326-21.779-43.226-34.27-71.057-34.27h-150.21c-27.831 0-53.73 12.491-71.057 34.27-17.326 21.779-23.676 49.823-17.42 76.942l21.269 72.662h284.629l21.268-72.662c6.255-27.119-.095-55.163-17.422-76.942z" fill="#fff5f5"/><path d="m419.575 111.213c6.256-27.119-.094-55.163-17.421-76.942-17.326-21.779-43.226-34.27-71.057-34.27h-75.104v183.874h142.314z" fill="#ece6f2"/><path d="m401.374 203.411h-290.762v-30h15c43.698 0 83.146-24.228 102.947-63.228l4.168-8.209h46.53l4.168 8.209c19.802 39 59.249 63.228 102.947 63.228h15.001v30z" fill="#ece6f2"/><path d="m401.374 173.411h-15.001c-43.698 0-83.146-24.228-102.947-63.228l-4.168-8.209h-23.265v101.437h145.381z" fill="#d7cfe6"/><g><path d="m240.993 0h30v71.275h-30z" fill="#ece6f2"/></g><path d="m255.993 0h15v71.275h-15z" fill="#d7cfe6"/><path d="m255.993 56.275c-22.062 0-40.012 17.949-40.012 40.011s17.949 40.011 40.012 40.011c22.062 0 40.011-17.949 40.011-40.011s-17.949-40.011-40.011-40.011z" fill="#fd9"/><g><path d="m295.963 233.278h30v30.002h-30z" fill="#0f244d"/></g><path d="m296.004 96.287c0-22.062-17.949-40.011-40.011-40.011v80.022c22.062 0 40.011-17.949 40.011-40.011z" fill="#fb3"/><path d="m281.903 337.267c-6.921 6.921-16.123 10.733-25.91 10.733v30c17.801 0 34.536-6.932 47.123-19.52z" fill="#804040"/></g></svg>