<svg id="Layer_1" enable-background="new 0 0 512.002 512.002" height="512" viewBox="0 0 512.002 512.002" width="512" xmlns="http://www.w3.org/2000/svg"><g><g><path d="m431.384 210.024h-30v-45.67c0-74.083-60.272-134.354-134.355-134.354h-22.056c-74.083 0-134.354 60.271-134.354 134.354v45.67h-30v-45.67c0-90.625 73.729-164.354 164.354-164.354h22.056c90.625 0 164.354 73.729 164.354 164.354v45.67z" fill="#143d66"/></g><path d="m431.384 210.024v-45.67c0-90.625-73.73-164.354-164.355-164.354h-11.028v30h11.028c74.083 0 134.354 60.271 134.354 134.354v45.67z" fill="#0f244d"/><path d="m475.722 380.477c1.657-5.626 2.493-11.457 2.493-17.422 0-18.982-8.535-36.643-23.417-48.453-2.456-1.949-4.801-4.144-6.968-6.521l-4.462-4.896h-374.734l-4.462 4.896c-2.169 2.38-4.514 4.574-6.967 6.521-14.883 11.811-23.418 29.471-23.418 48.453 0 5.966.836 11.796 2.493 17.422-7.977 12.396-11.873 26.992-11.071 41.944 1.614 30.128 22.288 55.869 51.445 64.051l1.988.558h354.718l1.988-.558c29.155-8.182 49.83-33.921 51.445-64.048.802-14.954-3.094-29.551-11.071-41.947z" fill="#c9885b"/><path d="m475.722 380.477c1.657-5.626 2.493-11.457 2.493-17.422 0-18.982-8.535-36.643-23.417-48.453-2.456-1.949-4.801-4.144-6.968-6.521l-4.462-4.896h-187.367v183.845h177.359l1.988-.558c29.155-8.182 49.83-33.921 51.445-64.048.802-14.954-3.094-29.551-11.071-41.947z" fill="#a05f4b"/><path d="m402.416 418.481-3.197-1.621h-286.435l-3.197 1.621c-29.775 15.093-48.272 45.18-48.272 78.519v15h389.372v-15c0-33.339-18.497-63.426-48.271-78.519z" fill="#69f"/><path d="m450.687 497c0-33.339-18.497-63.426-48.271-78.519l-3.197-1.621h-143.218v95.14h194.687v-15z" fill="#35f"/><path d="m416.385 195.024h-44.482l-5.152 146.133h49.635c24.813 0 45.001-20.188 45.001-45.002v-56.13c-.002-24.813-20.189-45.001-45.002-45.001z" fill="#fff5f5"/><path d="m416.385 195.024h-44.482l-5.152 146.133h49.635c24.813 0 45.001-20.188 45.001-45.002v-56.13c-.002-24.813-20.189-45.001-45.002-45.001z" fill="#ece6f2"/><path d="m140.101 195.024h-44.482c-24.814 0-45.002 20.188-45.002 45.001v56.13c0 24.814 20.188 45.002 45.002 45.002h49.634z" fill="#fff5f5"/><path d="m241.001 143.006c0 28.683-23.335 52.019-52.018 52.019h-78.363v98.59c0 33.199 11.493 65.672 32.361 91.437l4.503 5.559h217.036l4.502-5.559c20.867-25.765 32.359-58.238 32.359-91.437v-98.59h-78.361c-28.684 0-52.02-23.335-52.02-52.019z" fill="#ffe1d2"/><path d="m369.022 385.052c20.867-25.765 32.359-58.238 32.359-91.437v-98.59h-78.361c-28.684 0-52.02-23.335-52.02-52.019h-15v247.605h108.52z" fill="#ffcbbc"/><g><path d="m186.031 253.293h30v30.002h-30z" fill="#143d66"/></g><g><path d="m295.971 253.293h30v30.002h-30z" fill="#143d66"/></g><g><path d="m256.001 360.609c-17.8 0-34.535-6.932-47.123-19.519l21.213-21.214c6.922 6.921 16.123 10.733 25.91 10.733s18.989-3.812 25.911-10.733l21.213 21.214c-12.588 12.587-29.323 19.519-47.124 19.519z" fill="#ffcbbc"/></g><path d="m134.03 426h95.39v86.001h-95.39z" fill="#9bf"/><path d="m281.364 60.004h-50.725c-66.179 0-120.02 53.84-120.02 120.019v45.002h78.363c27.652 0 52.153-13.757 67.018-34.785 14.865 21.028 39.366 34.785 67.02 34.785h78.361v-45.002c.001-66.179-53.839-120.019-120.017-120.019z" fill="#c9885b"/><path d="m323.02 225.024h78.361v-45.002c0-66.179-53.84-120.019-120.018-120.019h-25.363v130.235c14.866 21.03 39.367 34.786 67.02 34.786z" fill="#a05f4b"/><path d="m372.973 360.61h-233.944c-26.299 0-47.694 21.396-47.694 47.695s21.395 47.695 47.694 47.695h233.944c26.299 0 47.694-21.396 47.694-47.695s-21.395-47.695-47.694-47.695z" fill="#b3d9ff"/><path d="m372.973 456c26.299 0 47.694-21.396 47.694-47.695s-21.396-47.695-47.694-47.695h-116.972v95.39z" fill="#9bf"/><g><path d="m295.971 253.293h30v30.002h-30z" fill="#0f244d"/></g><path d="m281.912 319.876c-6.922 6.921-16.124 10.733-25.911 10.733v30c17.801 0 34.536-6.932 47.124-19.519z" fill="#ffbcae"/></g></svg>