<svg id="Layer_1" enable-background="new 0 0 512.016 512.016" height="512" viewBox="0 0 512.016 512.016" width="512" xmlns="http://www.w3.org/2000/svg"><g><path d="m110.627 150.021v23.619c0 37.661-7.854 74.162-23.345 108.489-17.252 38.231-26 78.884-26 120.828v66.053h389.452v-66.053c0-41.944-8.748-82.597-26-120.828-15.491-34.327-23.345-70.828-23.345-108.489v-23.619z" fill="#fd9"/><path d="m450.734 402.957c0-41.944-8.748-82.597-26-120.828-15.491-34.327-23.345-70.828-23.345-108.489v-23.619h-145.37v318.989h194.715z" fill="#fb3"/><path d="m323.038 150.02c-37.013 0-67.018-30.005-67.018-67.018 0 37.013-30.005 67.018-67.018 67.018h-63.374v83.603c0 46.494 24.341 87.297 60.971 110.38h138.821c36.629-23.082 60.97-63.885 60.97-110.38v-83.603z" fill="#ffe1d2"/><path d="m323.038 150.02c-37.013 0-67.018-30.005-67.018-67.018v261.001h69.399c36.629-23.082 60.97-63.885 60.97-110.38v-83.603z" fill="#ffcbbc"/><path d="m281.37 0h-50.725c-66.179 0-120.019 53.84-120.019 120.019v45.002h78.374c27.653 0 52.154-13.757 67.019-34.785 14.865 21.028 39.366 34.785 67.019 34.785h78.351v-45.002c0-66.179-53.84-120.019-120.019-120.019z" fill="#fd9"/><g><path d="m186.038 193.29h30v30.002h-30z" fill="#143d66"/></g><g><path d="m295.978 193.29h30v30.002h-30z" fill="#143d66"/></g><g><path d="m256.008 300.605c-17.801 0-34.537-6.932-47.124-19.52l21.213-21.213c6.921 6.921 16.123 10.732 25.911 10.732 9.787 0 18.989-3.812 25.911-10.733l21.213 21.214c-12.588 12.588-29.324 19.52-47.124 19.52z" fill="#ffcbbc"/></g><path d="m365.715 366.057h-20.836v-37.054h-177.75v37.054h-20.828c-47.13 1.601-84.979 40.44-84.979 87.953v58.003h389.371v-58.003c.001-47.513-37.848-86.353-84.978-87.953z" fill="#e20f5a"/><path d="m450.694 454.01c0-47.513-37.849-86.353-84.979-87.953h-20.836v-37.054h-88.859v183.01h194.674z" fill="#c21250"/><g><path d="m241.008 401.998h30v30.002h-30z" fill="#fff5f5"/></g><g><path d="m241.008 462.001h30v30.002h-30z" fill="#fff5f5"/></g><g><path d="m211.006 432h30v30.001h-30z" fill="#fff5f5"/></g><g><path d="m271.01 432h30v30.001h-30z" fill="#fff5f5"/></g><g><path d="m360.69 452h30v60.003h-30z" fill="#ff4d4d"/></g><g><path d="m360.69 452h30v60.003h-30z" fill="#e20f5a"/></g><g><path d="m121.327 452h30v60.016h-30z" fill="#ff4d4d"/></g><g><path d="m295.978 193.29h30v30.002h-30z" fill="#0f244d"/></g><g><path d="m271.01 432h30v30.001h-30z" fill="#ece6f2"/></g><path d="m323.038 165.021h78.351v-45.002c0-66.179-53.84-120.019-120.019-120.019h-25.351v83.002 47.233c14.865 21.029 39.366 34.786 67.019 34.786z" fill="#fb3"/><path d="m281.919 259.872c-6.919 6.919-16.117 10.73-25.899 10.733v30c17.796-.003 34.527-6.935 47.112-19.519z" fill="#ffbcae"/><g fill="#ece6f2"><path d="m256.019 401.998h14.989v30.002h-14.989z"/><path d="m256.019 462.001h14.989v30.002h-14.989z"/></g></g></svg>