<svg id="Layer_1" enable-background="new 0 0 512.002 512.002" height="512" viewBox="0 0 512.002 512.002" width="512" xmlns="http://www.w3.org/2000/svg"><g><path d="m412.625 181.403-4.502-5.931-309.264.032-4.501 5.932c-23.25 30.64-35.539 67.206-35.539 105.745v224.821h86.004v-224.36c0-25.828 21.013-46.841 46.841-46.841s46.841 21.013 46.841 46.841h30c0-25.828 21.013-46.841 46.841-46.841s46.841 21.013 46.841 46.841v224.36h86.004v-224.82c-.002-38.555-12.3-75.132-35.566-105.779z" fill="#143d66"/><path d="m412.625 181.403-4.502-5.931-154.635.016v112.154h15.017c0-25.828 21.013-46.841 46.841-46.841s46.841 21.013 46.841 46.841v224.36h86.004v-224.82c-.002-38.555-12.3-75.132-35.566-105.779z" fill="#0f244d"/><path d="m315.344 210.802c-25.328 0-47.834 12.319-61.841 31.279-14.006-18.959-36.513-31.279-61.841-31.279-42.37 0-76.841 34.471-76.841 76.841v224.36h277.363v-224.36c.001-42.371-34.469-76.841-76.84-76.841z" fill="#fff5f5"/><path d="m392.185 287.643c0-42.37-34.471-76.841-76.841-76.841-25.328 0-47.834 12.319-61.841 31.279-.005-.007-.011-.014-.017-.022v269.944h138.698v-224.36z" fill="#ece6f2"/><path d="m411.103 0h-42.082v42.082c0 23.204 18.878 42.082 42.082 42.082s42.081-18.877 42.081-42.082-18.877-42.082-42.081-42.082z" fill="#fff5f5"/><g><path d="m176.663 294.763h30v30.002h-30z" fill="#143d66"/></g><g><path d="m300.344 294.763h30v30.002h-30z" fill="#143d66"/></g><path d="m305.729 355.092c-17.12-10.537-34.692-15.88-52.229-15.88s-35.107 5.343-52.223 15.881l-16.016 9.86 68.255 69.528 68.228-69.532z" fill="#fb3"/><g><path d="m300.344 294.763h30v30.002h-30z" fill="#0f244d"/></g><path d="m411.103 0h-42.082v42.082c0 23.204 18.878 42.082 42.082 42.082s42.081-18.877 42.081-42.082-18.877-42.082-42.081-42.082z" fill="#ece6f2"/><path d="m253.487 0v97.706h82.091c34.983 0 63.443-28.46 63.443-63.443v-34.263z" fill="#e20f5a"/><path d="m253.487 0v97.706h82.091c34.983 0 63.443-28.46 63.443-63.443v-34.263z" fill="#c21250"/><path d="m310.45 27.353c-13.927-17.383-34.689-27.353-56.963-27.353s-43.036 9.97-56.962 27.353l-100.016 124.833h313.956z" fill="#ff4d4d"/><path d="m310.45 27.353c-13.927-17.383-34.689-27.353-56.963-27.353v152.186h156.978z" fill="#e20f5a"/><path d="m383.868 122.186h-260.762c-24.429 0-44.304 19.875-44.304 44.303 0 24.429 19.875 44.304 44.304 44.304h260.762c24.429 0 44.303-19.875 44.303-44.304 0-24.428-19.874-44.303-44.303-44.303z" fill="#fff5f5"/><path d="m428.171 166.489c0-24.429-19.875-44.303-44.303-44.303h-130.381v88.607h130.381c24.429 0 44.303-19.875 44.303-44.304z" fill="#ece6f2"/><path d="m321.744 364.949-16.016-9.857c-17.12-10.537-34.692-15.88-52.229-15.88-.004 0-.009 0-.013 0v95.239l.029.03z" fill="#ff884d"/></g></svg>