<svg id="Layer_1" enable-background="new 0 0 511.977 511.977" height="512" viewBox="0 0 511.977 511.977" width="512" xmlns="http://www.w3.org/2000/svg"><g><path d="m101.01 215.001v33.467c0 25.716-10.932 49.486-29.992 65.216-16.352 13.495-25.729 33.383-25.729 54.566 0 38.996 31.726 70.722 70.722 70.722h260.761c38.996 0 70.722-31.726 70.722-70.722 0-21.183-9.378-41.071-25.729-54.566-19.061-15.729-29.992-39.5-29.992-65.216v-33.467z" fill="#804040"/><path d="m421.763 313.684c-19.061-15.729-29.992-39.5-29.992-65.216v-33.467h-145.381v223.971h130.381c38.996 0 70.722-31.726 70.722-70.722 0-21.182-9.378-41.071-25.73-54.566z" fill="#4d2917"/><path d="m171.387 408.972v28c0 41.357 33.646 75.004 75.003 75.004s75.004-33.646 75.004-75.004v-28z" fill="#ffcbbc"/><path d="m321.394 436.973v-28h-75.004v103.004c41.358 0 75.004-33.647 75.004-75.004z" fill="#ffbcae"/><path d="m353.072 408.972h-61.678v28c0 24.815-20.188 45.004-45.004 45.004-24.815 0-45.003-20.188-45.003-45.004v-28h-61.677c-48.526 0-88.005 39.479-88.005 88.004v15h194.685 194.686v-15c0-48.525-39.479-88.004-88.004-88.004z" fill="#21cab1"/><path d="m353.072 408.972h-61.678v28c0 24.815-20.188 45.004-45.004 45.004v30h194.686v-15c0-48.525-39.479-88.004-88.004-88.004z" fill="#149397"/><path d="m349.926 215.001c-37.013 0-67.018-30.005-67.018-67.018 0 37.013-30.005 67.018-67.018 67.018h-99.88v78.59c0 72.007 58.373 130.381 130.381 130.381 72.007 0 130.381-58.373 130.381-130.381v-78.59z" fill="#ffe1d2"/><path d="m349.926 215.001c-37.013 0-67.018-30.005-67.018-67.018 0 26.025-14.844 48.568-36.517 59.669v216.32c72.007 0 130.381-58.373 130.381-130.381v-78.59z" fill="#ffcbbc"/><g><path d="m176.421 263.271h30v30.002h-30z" fill="#143d66"/></g><g><path d="m286.361 263.271h30v30.002h-30z" fill="#143d66"/></g><g><path d="m246.39 381.753c-17.8 0-34.536-6.932-47.124-19.519l21.213-21.214c6.921 6.921 16.124 10.733 25.911 10.733 9.788 0 18.989-3.812 25.911-10.733l21.213 21.214c-12.587 12.587-29.323 19.519-47.124 19.519z" fill="#ffcbbc"/></g><path d="m271.753 74.981h-50.725c-66.178 0-120.018 53.84-120.018 120.018v35.001h114.879c27.653 0 52.154-13.757 67.019-34.785 14.864 21.028 39.365 34.785 67.019 34.785h41.845v-35c-.001-66.179-53.841-120.019-120.019-120.019z" fill="#804040"/><path d="m271.753 74.981h-25.363v149.129c14.778-5.942 27.445-16.06 36.518-28.895 14.864 21.028 39.365 34.785 67.019 34.785h41.845v-35c-.001-66.179-53.841-120.019-120.019-120.019z" fill="#4d2917"/><path d="m293.092 67.829 105.768 105.768 30.57-136.339z" fill="#ff4d4d"/><path d="m293.092 67.829 105.768 105.768 30.57-136.339z" fill="#e20f5a"/><path d="m455.077 11.613c-7.488-7.489-17.444-11.613-28.034-11.613s-20.546 4.124-28.034 11.612-11.612 17.444-11.612 28.034 4.124 20.546 11.612 28.035c7.488 7.488 17.444 11.611 28.034 11.611s20.546-4.124 28.033-11.612c7.488-7.488 11.612-17.444 11.612-28.034s-4.124-20.546-11.611-28.033z" fill="#fff5f5"/><g><path d="m330.976 23.11h30v195.205h-30z" fill="#fff5f5" transform="matrix(.707 -.707 .707 .707 15.977 279.998)"/></g><g><path d="m330.976 23.11h30v195.205h-30z" fill="#ece6f2" transform="matrix(.707 -.707 .707 .707 15.977 279.998)"/></g><g><path d="m286.361 263.271h30v30.002h-30z" fill="#0f244d"/></g><path d="m455.077 11.613c-7.488-7.489-17.444-11.613-28.034-11.613s-20.546 4.124-28.034 11.612-11.612 17.444-11.612 28.034 4.124 20.546 11.612 28.035c7.488 7.488 17.444 11.611 28.034 11.611s20.546-4.124 28.033-11.612c7.488-7.488 11.612-17.444 11.612-28.034s-4.124-20.546-11.611-28.033z" fill="#ece6f2"/><path d="m272.302 341.02c-6.922 6.921-16.124 10.733-25.911 10.733v30c17.801 0 34.536-6.932 47.124-19.519z" fill="#ffbcae"/></g></svg>