<svg id="Layer_1" enable-background="new 0 0 512.609 512.609" height="512" viewBox="0 0 512.609 512.609" width="512" xmlns="http://www.w3.org/2000/svg"><g><path d="m450.855 303.786c-28.131 0-55.061 8.243-78.208 23.89h-232.685c-23.147-15.647-50.077-23.89-78.209-23.89h-51.447v208.823h491.996v-208.823z" fill="#fff5f5"/><path d="m502.302 303.786h-51.447c-28.131 0-55.061 8.243-78.208 23.89h-116.339v184.934h245.994z" fill="#ece6f2"/><path d="m149.627 409.604 103.006 103.005h7.352l103.004-103.005z" fill="#ffcbbc"/><path d="m362.989 409.604h-106.681v103.005h3.677z" fill="#ffbcae"/><path d="m362.989 409.604h-28.889l-77.792 77.792-77.792-77.792h-28.889c-48.525 0-88.004 39.479-88.004 88.004v15h389.371v-15c0-48.525-39.479-88.004-88.005-88.004z" fill="#9bf"/><path d="m450.994 497.609c0-48.526-39.479-88.004-88.005-88.004h-28.889l-77.792 77.792v25.212h194.686z" fill="#69f"/><path d="m286.809 200.633c-28.684 0-52.019-23.335-52.019-52.019h-30c0 28.683-23.335 52.019-52.018 52.019h-41.846v93.59c0 80.163 65.218 145.381 145.381 145.381s145.381-65.218 145.381-145.381v-93.59z" fill="#ffe1d2"/><path d="m286.809 200.633c-11.388 0-21.925-3.688-30.501-9.919v248.89c80.163 0 145.381-65.218 145.381-145.381v-93.59z" fill="#ffcbbc"/><g><path d="m186.339 273.904h30v30.002h-30z" fill="#143d66"/></g><g><path d="m296.278 273.904h30v30.002h-30z" fill="#143d66"/></g><g><path d="m256.308 392.386c-17.801 0-34.536-6.932-47.124-19.519l21.213-21.214c6.922 6.921 16.124 10.733 25.911 10.733s18.988-3.812 25.91-10.733l21.213 21.214c-12.587 12.587-29.323 19.519-47.123 19.519z" fill="#ffcbbc"/></g><g><path d="m352.635 124.926-15.037-25.959c13.336-7.726 20.985-16.956 20.985-25.322.001-20.602-43.739-43.645-102.275-43.645-58.537 0-102.276 23.043-102.276 43.646 0 8.366 7.649 17.596 20.985 25.322l-15.037 25.959c-23.182-13.429-35.948-31.641-35.948-51.281 0-21.643 15.144-41.134 42.641-54.885 24.193-12.098 56.026-18.761 89.635-18.761s65.442 6.663 89.635 18.761c27.497 13.75 42.641 33.242 42.641 54.885 0 19.639-12.767 37.851-35.949 51.28z" fill="#fd9"/></g><path d="m358.584 73.646c0 8.366-7.649 17.596-20.985 25.322l15.037 25.959c23.182-13.429 35.948-31.641 35.948-51.281 0-21.643-15.144-41.134-42.641-54.885-24.192-12.098-56.025-18.761-89.635-18.761v30c58.536 0 102.276 23.043 102.276 43.646z" fill="#fb3"/><path d="m281.671 75.614h-50.725c-66.179 0-120.019 53.84-120.019 120.018v35.001h41.846c27.652 0 52.153-13.756 67.018-34.785 14.864 21.029 39.365 34.785 67.019 34.785h114.88v-35.001c-.001-66.178-53.841-120.018-120.019-120.018z" fill="#c9885b"/><path d="m401.689 230.633v-35.001c0-66.178-53.84-120.018-120.019-120.018h-25.362v149.129c9.434 3.793 19.726 5.89 30.501 5.89z" fill="#a05f4b"/><g><path d="m296.278 273.904h30v30.002h-30z" fill="#0f244d"/></g><path d="m282.219 351.653c-6.922 6.921-16.123 10.733-25.91 10.733v30c17.8 0 34.535-6.932 47.123-19.519z" fill="#ffbcae"/></g></svg>