<svg id="Layer_1" enable-background="new 0 0 512.021 512.021" height="512" viewBox="0 0 512.021 512.021" width="512" xmlns="http://www.w3.org/2000/svg"><g><path d="m135.878 234.964-14.223 5.798c-35.428 14.443-58.319 48.65-58.319 87.145v68.086h112.968v-54.754z" fill="#fd9"/><path d="m390.367 240.753-14.223-5.798-40.427 106.285v54.753h112.99v-68.086c0-38.495-22.899-72.704-58.34-87.154z" fill="#fd9"/><path d="m390.367 240.753-14.223-5.798-40.427 106.285v54.753h112.99v-68.086c0-38.495-22.899-72.704-58.34-87.154z" fill="#fb3"/><path d="m320.057 136.993c-27.407 0-49.704-22.297-49.704-49.704h-28.665c0 27.407-22.296 49.704-49.704 49.704h-74.886v94.215c0 48.004 24.28 91.964 64.949 117.593l3.502 2.207h140.922l3.502-2.207c40.668-25.628 64.948-69.588 64.948-117.593v-94.215z" fill="#ffe1d2"/><path d="m320.057 136.993c-27.407 0-49.703-22.297-49.703-49.704h-14.332v263.718h70.45l3.502-2.207c40.668-25.628 64.948-69.588 64.948-117.593v-94.215h-74.865z" fill="#ffcbbc"/><path d="m280.245 0h-48.467c-63.234 0-114.678 51.444-114.678 114.677v42.999h74.886c26.423 0 49.833-13.145 64.036-33.237 14.203 20.092 37.613 33.237 64.036 33.237h74.864v-42.999c-.001-63.233-51.445-114.677-114.677-114.677z" fill="#fd9"/><path d="m365.717 366.044h-11.001v-37.048h-197.411v37.048h-11.001c-47.131 1.601-84.979 40.44-84.979 87.953v58.003h389.372v-58.002c0-47.513-37.85-86.353-84.98-87.954z" fill="#149397"/><path d="m450.697 453.998c0-47.513-37.85-86.353-84.979-87.953h-11.001v-37.048h-98.695v183.003h194.675z" fill="#12627c"/><g><path d="m360.693 467.009h30v44.999h-30z" fill="#21cab1"/></g><g><path d="m121.328 467.009h30v45.012h-30z" fill="#21cab1"/></g><path d="m292.235 442.008 9.931-9.931-21.213-21.213-24.931 24.932-24.932-24.932-21.213 21.213 9.931 9.931h-38.801v70h30v-40h30.003v40h30v-40h30.004v40h30v-70z" fill="#21cab1"/><g><path d="m186.04 193.283h30v30.002h-30z" fill="#143d66"/></g><g><path d="m295.981 193.283h30v30.002h-30z" fill="#143d66"/></g><g><path d="m256.01 300.598c-17.801 0-34.536-6.932-47.123-19.52l21.213-21.213c6.921 6.921 16.123 10.732 25.91 10.732 9.788 0 18.99-3.812 25.911-10.732l21.213 21.213c-12.587 12.588-29.323 19.52-47.124 19.52z" fill="#ffcbbc"/></g><g><path d="m360.693 467.009h30v44.999h-30z" fill="#149397"/></g><g><path d="m295.981 193.283h30v30.002h-30z" fill="#0f244d"/></g><path d="m320.057 157.677h74.864v-42.999c0-63.234-51.444-114.678-114.677-114.678h-24.223v124.439c14.203 20.093 37.614 33.238 64.036 33.238z" fill="#fb3"/><path d="m281.921 259.865c-6.918 6.918-16.116 10.729-25.9 10.732v30c17.797-.003 34.529-6.935 47.113-19.519z" fill="#ffbcae"/><path d="m292.235 442.008 9.931-9.931-21.213-21.213-24.931 24.932-.001-.001v76.213h14.989v-40h30.004v40h30v-70z" fill="#149397"/></g></svg>