<svg id="Layer_1" enable-background="new 0 0 511.977 511.977" height="512" viewBox="0 0 511.977 511.977" width="512" xmlns="http://www.w3.org/2000/svg"><g><path d="m136.501 408.972 103.005 103.005h7.353l103.005-103.005z" fill="#ffcbbc"/><path d="m349.864 408.972h-106.682v103.005h3.677z" fill="#ffbcae"/><path d="m349.864 511.977v-103.005h-38.89l-67.791 67.791-67.792-67.791h-38.89v103.005z" fill="#fff5f5"/><path d="m349.864 511.977v-103.005h-38.89l-67.791 67.791h-.001v35.214z" fill="#ece6f2"/><path d="m136.501 408.972c-48.526 0-88.005 39.479-88.005 88.004v15h107.005v-103.004z" fill="#143d66"/><path d="m349.864 408.972h-19.001v103.004h107.005v-15c0-48.525-39.478-88.004-88.004-88.004z" fill="#143d66"/><path d="m349.864 408.972h-19.001v103.004h107.005v-15c0-48.525-39.478-88.004-88.004-88.004z" fill="#0f244d"/><path d="m356.719 200.001c-28.683 0-52.019-23.335-52.019-52.019h-30c0 28.683-23.335 52.019-52.019 52.019h-124.879v93.59c0 80.163 65.218 145.381 145.381 145.381s145.381-65.218 145.381-145.381v-93.59z" fill="#ffe1d2"/><path d="m356.719 200.001c-28.683 0-52.019-23.335-52.019-52.019h-30c0 21.407-13 39.829-31.518 47.801v243.189c80.163 0 145.381-65.218 145.381-145.381v-93.59z" fill="#ffcbbc"/><g><path d="m173.212 263.271h30v30.002h-30z" fill="#143d66"/></g><g><path d="m283.152 263.271h30v30.002h-30z" fill="#143d66"/></g><g><path d="m291.272 377.857h-13.832c-13.3 0-25.387-5.299-34.259-13.896-8.872 8.597-20.958 13.896-34.258 13.896h-13.832v-30h13.832c10.619 0 19.258-8.639 19.258-19.258h30c0 10.619 8.64 19.258 19.259 19.258h13.832z" fill="#804040"/></g><path d="m268.545 74.981h-50.725c-66.178 0-120.018 53.84-120.018 120.018v35.001h124.88c27.653 0 52.154-13.757 67.019-34.785 14.865 21.028 39.366 34.785 67.019 34.785h31.845v-35c-.002-66.179-53.841-120.019-120.02-120.019z" fill="#804040"/><path d="m268.545 74.981h-25.363v152.42c19.06-4.923 35.457-16.539 46.518-32.185 14.865 21.028 39.366 34.785 67.019 34.785h31.845v-35.001c-.001-66.179-53.84-120.019-120.019-120.019z" fill="#4d2917"/><g><path d="m283.152 263.271h30v30.002h-30z" fill="#0f244d"/></g><path d="m289.883 67.829 105.768 105.768 30.571-136.339z" fill="#ff4d4d"/><path d="m289.883 67.829 105.768 105.768 30.571-136.339z" fill="#e20f5a"/><path d="m451.869 11.613c-7.489-7.489-17.445-11.613-28.035-11.613s-20.545 4.124-28.034 11.612c-7.488 7.488-11.612 17.444-11.612 28.034s4.124 20.546 11.612 28.035c7.488 7.488 17.444 11.611 28.034 11.611s20.546-4.124 28.033-11.612c7.488-7.488 11.612-17.444 11.612-28.034s-4.123-20.546-11.61-28.033z" fill="#fff5f5"/><g><path d="m327.767 23.11h30v195.205h-30z" fill="#fff5f5" transform="matrix(.707 -.707 .707 .707 15.037 277.73)"/></g><g><path d="m327.767 23.11h30v195.205h-30z" fill="#ece6f2" transform="matrix(.707 -.707 .707 .707 15.037 277.73)"/></g><path d="m451.869 11.613c-7.489-7.489-17.445-11.613-28.035-11.613s-20.545 4.124-28.034 11.612c-7.488 7.488-11.612 17.444-11.612 28.034s4.124 20.546 11.612 28.035c7.488 7.488 17.444 11.611 28.034 11.611s20.546-4.124 28.033-11.612c7.488-7.488 11.612-17.444 11.612-28.034s-4.123-20.546-11.61-28.033z" fill="#ece6f2"/><path d="m277.441 347.857c-10.619 0-19.259-8.639-19.259-19.258h-15v35.362c8.872 8.597 20.958 13.896 34.259 13.896h13.832v-30z" fill="#4d2917"/></g></svg>