<svg id="Layer_1" enable-background="new 0 0 512.014 512.014" height="512" viewBox="0 0 512.014 512.014" width="512" xmlns="http://www.w3.org/2000/svg"><g><path d="m110.626 150.021v21.612c0 19.657-8.753 38.338-23.415 49.975-14.882 11.811-23.417 29.471-23.417 48.453 0 5.965.836 11.796 2.494 17.422-7.977 12.396-11.874 26.992-11.072 41.945.926 17.288 8.241 33.613 20.597 45.966 12.355 12.354 28.681 19.666 45.969 20.59l268.049.021.4-.021c17.289-.924 33.614-8.236 45.97-20.589 12.355-12.354 19.67-28.678 20.598-45.966.802-14.953-3.095-29.551-11.072-41.947 1.658-5.626 2.494-11.457 2.494-17.422 0-18.981-8.535-36.642-23.417-48.453-14.662-11.636-23.415-30.318-23.415-49.974v-21.612z" fill="#c9885b"/><path d="m445.726 287.482c1.658-5.626 2.494-11.457 2.494-17.422 0-18.981-8.535-36.642-23.417-48.453-14.662-11.636-23.415-30.318-23.415-49.974v-21.612h-145.37v245.974l133.812.011.4-.021c17.289-.924 33.614-8.236 45.97-20.589 12.355-12.354 19.67-28.678 20.598-45.966.802-14.954-3.095-29.552-11.072-41.948z" fill="#a05f4b"/><path d="m323.037 150.02c-37.013 0-67.018-30.005-67.018-67.018 0 37.013-30.005 67.018-67.019 67.018h-63.374v83.603c0 46.494 24.341 87.297 60.971 110.38h138.821c36.629-23.082 60.97-63.885 60.97-110.38v-83.603z" fill="#ffe1d2"/><path d="m323.037 150.02c-37.013 0-67.018-30.005-67.018-67.018v.005 260.996h69.399c36.629-23.082 60.97-63.885 60.97-110.38v-83.603z" fill="#ffcbbc"/><path d="m281.37 0h-50.725c-66.179 0-120.019 53.84-120.019 120.019v45.002h78.374c27.653 0 52.154-13.757 67.019-34.785 14.865 21.028 39.366 34.785 67.019 34.785h78.351v-45.002c-.001-66.179-53.841-120.019-120.019-120.019z" fill="#c9885b"/><path d="m365.714 366.057h-20.821v-37.054h-177.787v37.054h-20.806c-47.13 1.601-84.979 40.44-84.979 87.953v58.003h389.372v-58.003c0-47.513-37.849-86.352-84.979-87.953z" fill="#e20f5a"/><path d="m450.693 454.01c0-47.513-37.849-86.352-84.979-87.953h-20.821v-37.054h-88.875v183.01h194.675z" fill="#c21250"/><g><path d="m370.69 467.001h30v44.999h-30z" fill="#ff4d4d"/></g><g><path d="m111.324 467.001h30v45.012h-30z" fill="#ff4d4d"/></g><g><path d="m256.007 300.653c-17.8 0-34.536-6.932-47.124-19.519l21.213-21.214c6.921 6.921 16.124 10.733 25.911 10.733s18.989-3.812 25.911-10.733l21.213 21.214c-12.589 12.587-29.324 19.519-47.124 19.519z" fill="#ffcbbc"/></g><g><path d="m186.037 193.29h30v30.002h-30z" fill="#143d66"/></g><g><path d="m295.977 193.29h30v30.002h-30z" fill="#143d66"/></g><path d="m323.428 484.045h18.873l-77.375-85.639h-17.808l-77.385 85.639h18.877l-21.06 27.968h37.555l43.652-57.968h-11.482l18.746-20.745 18.744 20.745h-11.487l43.656 57.968h37.556z" fill="#ff4d4d"/><g><path d="m370.69 467.001h30v44.999h-30z" fill="#e20f5a"/></g><g><path d="m295.977 193.29h30v30.002h-30z" fill="#0f244d"/></g><path d="m323.037 165.021h78.351v-45.002c0-66.179-53.84-120.019-120.018-120.019h-25.352v130.235c14.865 21.029 39.366 34.786 67.019 34.786z" fill="#a05f4b"/><path d="m281.917 259.92c-6.919 6.919-16.117 10.73-25.899 10.733v30c17.796-.003 34.527-6.935 47.112-19.519z" fill="#ffbcae"/><path d="m323.428 484.045h18.873l-77.375-85.639h-8.908v34.897l.003-.003 18.744 20.745h-11.487l43.656 57.968h37.556z" fill="#e20f5a"/></g></svg>