<svg id="Layer_1" enable-background="new 0 0 511.996 511.996" height="512" viewBox="0 0 511.996 511.996" width="512" xmlns="http://www.w3.org/2000/svg"><g><path d="m362.679 408.991h-213.362c-48.526 0-88.004 39.479-88.004 88.005v15h374.372 15v-15c-.001-48.526-39.48-88.005-88.006-88.005z" fill="#69f"/><path d="m435.684 511.996h15v-15c0-48.526-39.479-88.004-88.005-88.004h-106.681v103.005h179.686z" fill="#35f"/><g><path d="m240.998 408.991h30v103.005h-30z" fill="#9bf"/></g><path d="m255.998 408.991h15v103.005h-15z" fill="#69f"/><path d="m110.617 195.788v97.822c0 80.163 65.218 145.381 145.381 145.381 80.164 0 145.381-65.218 145.381-145.381v-97.822z" fill="#ffe1d2"/><path d="m255.998 195.788v243.203c80.164 0 145.381-65.218 145.381-145.381v-97.822z" fill="#ffcbbc"/><path d="m302.628 25.593-21.213-21.213-10.574 10.574v-14.954h-30v14.954l-10.574-10.574-21.213 21.213 36.181 36.18 10.606-10.606 10.607 10.606z" fill="#9bf"/><path d="m302.628 25.593-21.213-21.213-10.574 10.574v-14.954h-14.843v51.324l10.45 10.449z" fill="#69f"/><path d="m301.366 36.167h-90.736c-60.662 0-110.013 49.352-110.013 110.014v15h295.763 15v-15c-.001-60.662-49.352-110.014-110.014-110.014z" fill="#69f"/><path d="m301.366 36.167h-45.369v125.014h140.381 15v-15c.001-60.662-49.35-110.014-110.012-110.014z" fill="#35f"/><path d="m412.531 131.181h-313.066c-22.691 0-41.152 18.461-41.152 41.152v141.732c0 22.691 18.461 41.152 41.152 41.152s41.152-18.461 41.152-41.152v-88.277h230.762v88.277c0 22.691 18.461 41.152 41.152 41.152s41.152-18.461 41.152-41.152v-141.732c.001-22.691-18.46-41.152-41.152-41.152z" fill="#9bf"/><g><path d="m186.028 273.291h30v30.001h-30z" fill="#143d66"/></g><g><path d="m295.968 273.291h30v30.001h-30z" fill="#143d66"/></g><g><path d="m255.998 391.773c-17.802 0-34.537-6.932-47.124-19.52l21.214-21.213c6.92 6.921 16.122 10.732 25.91 10.732s18.99-3.812 25.911-10.732l21.213 21.213c-12.588 12.588-29.323 19.52-47.124 19.52z" fill="#ffcbbc"/></g><g><path d="m295.968 273.291h30v30.001h-30z" fill="#0f244d"/></g><path d="m412.531 355.217c22.691 0 41.152-18.461 41.152-41.152v-141.732c0-22.691-18.461-41.152-41.152-41.152h-156.533v94.607h115.381v88.277c0 22.691 18.461 41.152 41.152 41.152z" fill="#69f"/><path d="m303.121 372.253-21.213-21.213c-6.921 6.921-16.123 10.732-25.911 10.732v30c17.802.001 34.537-6.931 47.124-19.519z" fill="#ffbcae"/></g></svg>