<svg id="Layer_1" enable-background="new 0 0 511.997 511.997" height="512" viewBox="0 0 511.997 511.997" width="512" xmlns="http://www.w3.org/2000/svg"><g><path d="m402.412 418.476-3.197-1.621h-286.433l-3.197 1.621c-29.775 15.092-48.272 45.179-48.272 78.519v15h389.372v-15c-.001-33.34-18.498-63.427-48.273-78.519z" fill="#149397"/><path d="m450.684 496.995c0-33.34-18.497-63.427-48.272-78.519l-3.197-1.621h-143.217v95.139h194.687v-14.999z" fill="#12627c"/><path d="m323.017 185.018c-28.684 0-52.02-23.335-52.02-52.019h-30c0 28.683-23.335 52.019-52.018 52.019h-78.363v108.591c0 33.199 11.493 65.671 32.361 91.437l4.503 5.559h217.036l4.502-5.559c20.867-25.765 32.359-58.237 32.359-91.437v-108.591z" fill="#ffe1d2"/><path d="m369.019 385.046c20.867-25.765 32.359-58.237 32.359-91.437v-108.591h-78.361c-28.684 0-52.02-23.335-52.02-52.019h-15v257.605h108.52z" fill="#ffcbbc"/><path d="m134.027 425.995h95.39v86.001h-95.39z" fill="#21cab1"/><path d="m372.97 360.605h-233.944c-26.299 0-47.694 21.396-47.694 47.695s21.396 47.695 47.694 47.695h233.944c26.299 0 47.694-21.396 47.694-47.695s-21.395-47.695-47.694-47.695z" fill="#b0e997"/><g><path d="m255.999 360.603c-17.801 0-34.537-6.932-47.124-19.52l21.213-21.213c6.921 6.921 16.123 10.732 25.911 10.732 9.787 0 18.989-3.812 25.91-10.732l21.213 21.213c-12.587 12.588-29.322 19.52-47.123 19.52z" fill="#ffcbbc"/></g><circle cx="320.969" cy="257.878" fill="#b3d9ff" r="27.86"/><circle cx="320.969" cy="257.878" fill="#9bf" r="27.86"/><circle cx="191.028" cy="257.878" fill="#b3d9ff" r="27.86"/><path d="m401.379 242.878h-40.265c-6.094-16.256-21.787-27.86-40.145-27.86-18.357 0-34.051 11.604-40.145 27.86h-49.651c-6.094-16.256-21.788-27.86-40.145-27.86s-34.05 11.604-40.144 27.86h-40.266v30h40.266c6.094 16.256 21.787 27.86 40.144 27.86s34.051-11.604 40.145-27.86h49.651c6.094 16.256 21.788 27.86 40.145 27.86s34.051-11.604 40.145-27.86h40.265zm-210.352 27.86c-7.091 0-12.859-5.769-12.859-12.86s5.769-12.86 12.859-12.86 12.86 5.769 12.86 12.86-5.769 12.86-12.86 12.86zm129.942 0c-7.091 0-12.86-5.769-12.86-12.86s5.77-12.86 12.86-12.86 12.859 5.769 12.859 12.86-5.768 12.86-12.859 12.86z" fill="#143d66"/><path d="m320.969 300.738c18.357 0 34.051-11.604 40.145-27.86h40.265v-30h-40.265c-6.094-16.256-21.787-27.86-40.145-27.86-18.357 0-34.051 11.604-40.145 27.86h-24.826v30h24.826c6.094 16.256 21.788 27.86 40.145 27.86zm0-55.72c7.091 0 12.859 5.769 12.859 12.86s-5.769 12.86-12.859 12.86-12.86-5.769-12.86-12.86 5.769-12.86 12.86-12.86z" fill="#0f244d"/><path d="m350.385 89.109c-2.844-49.967-44.304-89.109-94.387-89.109-50.082 0-91.542 39.142-94.387 89.109l-.902 15.853h190.579z" fill="#ece6f2"/><path d="m350.385 89.109c-2.844-49.967-44.304-89.109-94.387-89.109v104.962h95.29z" fill="#d7cfe6"/><path d="m281.361 59.999h-50.725c-66.179 0-120.02 53.84-120.02 120.018v35.001h78.363c27.652 0 52.153-13.757 67.018-34.785 14.865 21.028 39.366 34.785 67.02 34.785h78.361v-35.001c.001-66.179-53.839-120.018-120.017-120.018z" fill="#fff5f5"/><path d="m372.97 360.605h-116.972v95.39h116.972c26.299 0 47.694-21.396 47.694-47.695s-21.395-47.695-47.694-47.695z" fill="#21cab1"/><path d="m323.017 215.018h78.361v-35.001c0-66.178-53.84-120.018-120.018-120.018h-25.363v120.234c14.866 21.028 39.367 34.785 67.02 34.785z" fill="#ece6f2"/><path d="m303.122 341.083-21.213-21.213c-6.921 6.921-16.123 10.732-25.91 10.732h-.001v30h.001c17.801.001 34.536-6.931 47.123-19.519z" fill="#ffbcae"/></g></svg>