<svg id="Layer_1" enable-background="new 0 0 512.609 512.609" height="512" viewBox="0 0 512.609 512.609" width="512" xmlns="http://www.w3.org/2000/svg"><g><g><path d="m352.635 124.926-15.037-25.959c13.336-7.726 20.985-16.956 20.985-25.322.001-20.602-43.739-43.645-102.275-43.645-58.537 0-102.276 23.043-102.276 43.646 0 8.366 7.649 17.596 20.985 25.322l-15.037 25.959c-23.182-13.429-35.948-31.641-35.948-51.281 0-21.643 15.144-41.134 42.641-54.885 24.193-12.098 56.026-18.761 89.635-18.761s65.442 6.663 89.635 18.761c27.497 13.75 42.641 33.242 42.641 54.885 0 19.639-12.767 37.851-35.949 51.28z" fill="#fd9"/></g><path d="m358.584 73.646c0 8.366-7.649 17.596-20.985 25.322l15.037 25.959c23.182-13.429 35.948-31.641 35.948-51.281 0-21.643-15.144-41.134-42.641-54.885-24.192-12.098-56.025-18.761-89.635-18.761v30c58.536 0 102.276 23.043 102.276 43.646z" fill="#fb3"/><path d="m450.855 303.786c-28.131 0-55.061 8.243-78.208 23.89h-232.685c-23.147-15.647-50.077-23.89-78.209-23.89h-51.447v208.823h491.996v-208.823z" fill="#fff5f5"/><path d="m502.302 303.786h-51.447c-28.131 0-55.061 8.243-78.208 23.89h-116.339v184.934h245.994z" fill="#ece6f2"/><path d="m110.927 200.633h290.762v242.907h-290.762z" fill="#c9885b"/><path d="m256.308 200.633h145.381v242.907h-145.381z" fill="#a05f4b"/><path d="m149.627 409.604 103.006 103.005h7.352l103.004-103.005z" fill="#ffcbbc"/><path d="m362.989 409.604h-106.681v103.005h3.677z" fill="#ffbcae"/><path d="m362.989 409.604h-28.889l-77.792 77.792-77.792-77.792h-28.889c-48.525 0-88.004 39.479-88.004 88.004v15h389.371v-15c0-48.525-39.479-88.004-88.005-88.004z" fill="#9bf"/><path d="m450.994 497.609c0-48.526-39.479-88.004-88.005-88.004h-28.889l-77.792 77.792v25.212h194.686z" fill="#69f"/><path d="m323.326 200.634c-28.683 0-52.018-23.335-52.018-52.019h-15-15c0 28.684-23.335 52.019-52.019 52.019h-48.36v181.929c26.596 34.655 68.419 57.042 115.379 57.042 46.961 0 88.784-22.388 115.38-57.044v-181.927z" fill="#ffe1d2"/><path d="m323.326 200.634c-28.683 0-52.018-23.335-52.018-52.019h-15v290.989c46.961 0 88.784-22.388 115.38-57.044v-181.926z" fill="#ffcbbc"/><g><path d="m186.338 273.904h30v30.002h-30z" fill="#143d66"/></g><g><path d="m296.278 273.904h30v30.002h-30z" fill="#143d66"/></g><g><path d="m256.308 392.386c-17.801 0-34.537-6.932-47.124-19.52l21.213-21.213c6.921 6.921 16.123 10.732 25.911 10.732s18.99-3.812 25.91-10.732l21.214 21.213c-12.587 12.587-29.322 19.52-47.124 19.52z" fill="#ffcbbc"/></g><path d="m281.671 75.613h-50.725c-66.178 0-120.018 53.84-120.018 120.019v35.002h78.362c27.653 0 52.154-13.757 67.019-34.785 14.864 21.028 39.365 34.785 67.018 34.785h78.363v-35.002c-.001-66.179-53.841-120.019-120.019-120.019z" fill="#c9885b"/><g><path d="m296.278 273.904h30v30.002h-30z" fill="#0f244d"/></g><path d="m303.432 372.866-21.214-21.213c-6.92 6.921-16.122 10.732-25.91 10.732v30c17.802.001 34.537-6.932 47.124-19.519z" fill="#ffbcae"/><path d="m281.671 75.613h-25.362v120.235c14.864 21.028 39.365 34.785 67.018 34.785h78.363v-35.002c-.001-66.178-53.841-120.018-120.019-120.018z" fill="#a05f4b"/></g></svg>