<svg id="Layer_1" enable-background="new 0 0 511.998 511.998" height="512" viewBox="0 0 511.998 511.998" width="512" xmlns="http://www.w3.org/2000/svg"><g><path d="m65.722 392.031h380.554v119.709h-380.554z" fill="#a05f4b"/><path d="m255.955 392.031h190.321v119.709h-190.321z" fill="#804040"/><path d="m452.144 392.031h-35.868v119.709h35.868c33.004 0 59.854-26.851 59.854-59.854s-26.851-59.855-59.854-59.855z" fill="#c9885b"/><path d="m452.144 392.031h-35.868v119.709h35.868c33.004 0 59.854-26.851 59.854-59.854s-26.851-59.855-59.854-59.855z" fill="#a05f4b"/><path d="m59.854 392.031c-33.003 0-59.854 26.851-59.854 59.854s26.851 59.854 59.854 59.854h35.868v-119.708z" fill="#c9885b"/><path d="m404.119 189.392-4.044-8.645-288.178.008-4.043 8.646c-10.171 21.749-15.328 45.021-15.328 69.167 0 90.134 73.329 163.463 163.462 163.463 90.134 0 163.463-73.329 163.463-163.463 0-24.15-5.159-47.424-15.332-69.176z" fill="#c9885b"/><path d="m404.119 189.392-4.044-8.645-144.12.004v241.279h.033c90.134 0 163.463-73.329 163.463-163.463 0-24.149-5.159-47.423-15.332-69.175z" fill="#a05f4b"/><g><path d="m186.018 252.151h30v30.002h-30z" fill="#fff5f5"/></g><g><path d="m295.958 252.151h30v30.002h-30z" fill="#fff5f5"/></g><g><path d="m241.156 455.676h30v30.002h-30z" fill="#fff5f5"/></g><g><path d="m255.988 355.632c-17.801 0-34.537-6.933-47.124-19.52l21.213-21.213c6.921 6.921 16.123 10.732 25.911 10.732s18.989-3.812 25.911-10.732l21.213 21.213c-12.588 12.588-29.323 19.52-47.124 19.52z" fill="#fff5f5"/></g><g><path d="m295.958 252.151h30v30.002h-30z" fill="#ece6f2"/></g><path d="m413.571.258h-42.082v42.082c0 23.204 18.878 42.082 42.082 42.082s42.081-18.877 42.081-42.082-18.878-42.082-42.081-42.082z" fill="#fff5f5"/><path d="m413.571.258h-42.082v42.082c0 23.204 18.878 42.082 42.082 42.082s42.081-18.877 42.081-42.082-18.878-42.082-42.081-42.082z" fill="#ece6f2"/><path d="m255.955.258v97.706h82.091c34.983 0 63.443-28.46 63.443-63.443v-34.263z" fill="#e20f5a"/><path d="m255.955.258v97.706h82.091c34.983 0 63.443-28.46 63.443-63.443v-34.263z" fill="#c21250"/><path d="m312.917 27.611c-13.927-17.383-34.689-27.353-56.963-27.353s-43.036 9.97-56.962 27.353l-100.015 124.833h313.956z" fill="#ff4d4d"/><path d="m312.917 27.611c-13.927-17.383-34.689-27.353-56.963-27.353v152.186h156.978z" fill="#e20f5a"/><path d="m386.335 122.444h-260.761c-24.429 0-44.304 19.875-44.304 44.303 0 24.429 19.875 44.304 44.304 44.304h260.762c24.429 0 44.303-19.875 44.303-44.304 0-24.428-19.875-44.303-44.304-44.303z" fill="#fff5f5"/><g fill="#ece6f2"><path d="m430.639 166.747c0-24.429-19.875-44.303-44.303-44.303h-130.381v88.607h130.381c24.428 0 44.303-19.874 44.303-44.304z"/><path d="m255.955 455.676h15.201v30.002h-15.201z"/><path d="m303.111 336.113-21.213-21.213c-6.921 6.921-16.123 10.732-25.911 10.732-.011 0-.022-.001-.033-.001v30c.011 0 .022.001.033.001 17.802 0 34.537-6.932 47.124-19.519z"/></g></g></svg>