<svg id="Layer_1" enable-background="new 0 0 511.995 511.995" height="512" viewBox="0 0 511.995 511.995" width="512" xmlns="http://www.w3.org/2000/svg"><g><g><path d="m241.009 0h30v40.64h-30z" fill="#b3d9ff"/></g><path d="m256.074 0h14.935v40.64h-14.935z" fill="#9bf"/><path d="m402.412 418.475-3.197-1.621h-286.435l-3.197 1.621c-29.774 15.092-48.271 45.179-48.271 78.519v15h389.372v-15c0-33.341-18.497-63.428-48.272-78.519z" fill="#69f"/><path d="m450.684 496.993c0-33.34-18.497-63.427-48.271-78.519l-3.197-1.621h-143.142v95.14h194.609v-15z" fill="#35f"/><path d="m110.617 111.652v181.955c0 33.2 11.492 65.673 32.36 91.438l4.503 5.559h217.034l4.503-5.559c20.868-25.766 32.361-58.238 32.361-91.438v-181.955z" fill="#ffe1d2"/><path d="m369.018 385.045c20.868-25.766 32.361-58.238 32.361-91.438v-181.955h-145.305v278.951h108.44z" fill="#ffcbbc"/><path d="m282.579 425.993h95.39v86.001h-95.39z" fill="#9bf"/><path d="m282.579 425.993h95.39v86.001h-95.39z" fill="#69f"/><path d="m372.97 360.604h-233.945c-26.299 0-47.694 21.396-47.694 47.694s21.396 47.695 47.694 47.695h233.945c26.299 0 47.694-21.396 47.694-47.695s-21.395-47.694-47.694-47.694z" fill="#b3d9ff"/><g><path d="m304.165 347.863h-13.832c-13.301 0-25.387-5.299-34.259-13.896-8.871 8.597-20.958 13.896-34.258 13.896h-13.832v-30h13.832c10.619 0 19.258-8.639 19.258-19.258h30c0 10.619 8.64 19.258 19.259 19.258h13.832z" fill="#fff5f5"/></g><circle cx="320.968" cy="247.121" fill="#b3d9ff" r="27.86"/><circle cx="320.968" cy="247.121" fill="#9bf" r="27.86"/><circle cx="191.027" cy="247.121" fill="#b3d9ff" r="27.86"/><path d="m401.379 232.121h-40.266c-6.094-16.256-21.787-27.859-40.145-27.859-18.357 0-34.051 11.604-40.145 27.859h-49.651c-6.094-16.256-21.788-27.859-40.145-27.859s-34.05 11.604-40.144 27.859h-40.265v30h40.265c6.094 16.256 21.787 27.86 40.144 27.86s34.051-11.604 40.145-27.86h49.651c6.094 16.256 21.788 27.86 40.145 27.86s34.051-11.604 40.145-27.86h40.266zm-210.352 27.86c-7.091 0-12.859-5.77-12.859-12.86s5.769-12.859 12.859-12.859 12.86 5.769 12.86 12.859-5.769 12.86-12.86 12.86zm129.941 0c-7.091 0-12.86-5.77-12.86-12.86s5.77-12.859 12.86-12.859 12.859 5.769 12.859 12.859-5.768 12.86-12.859 12.86z" fill="#143d66"/><path d="m280.823 262.121c6.094 16.256 21.788 27.86 40.145 27.86s34.051-11.604 40.145-27.86h40.266v-30h-40.266c-6.094-16.256-21.787-27.859-40.145-27.859-18.357 0-34.051 11.604-40.145 27.859h-24.749v30zm40.145-27.859c7.091 0 12.859 5.769 12.859 12.859s-5.769 12.86-12.859 12.86-12.86-5.77-12.86-12.86 5.769-12.859 12.86-12.859z" fill="#0f244d"/><path d="m110.617 111.652v17.883c0 41.203 33.521 74.725 74.725 74.725h141.312c41.204 0 74.726-33.521 74.726-74.725v-17.883z" fill="#b3d9ff"/><path d="m401.379 129.535v-17.883h-145.305v92.607h70.579c41.204.001 74.726-33.521 74.726-74.724z" fill="#9bf"/><path d="m316.514 25.64h-121.033c-46.794 0-84.864 38.07-84.864 84.865v19.03h290.762v-19.03c0-46.795-38.07-84.865-84.865-84.865z" fill="#69f"/><path d="m401.379 110.505c0-46.795-38.07-84.865-84.865-84.865h-60.439v103.896h145.305v-19.031z" fill="#35f"/><path d="m372.97 360.604h-116.896v95.39h116.896c26.299 0 47.694-21.396 47.694-47.695s-21.395-47.695-47.694-47.695z" fill="#9bf"/><path d="m290.333 347.863h13.832v-30h-13.832c-10.619 0-19.259-8.639-19.259-19.258h-15v35.362c8.872 8.597 20.958 13.896 34.259 13.896z" fill="#ece6f2"/></g></svg>