<svg id="Layer_1" enable-background="new 0 0 511.98 511.98" height="512" viewBox="0 0 511.98 511.98" width="512" xmlns="http://www.w3.org/2000/svg"><g><path d="m282.731 0h-53.482l-104.252 146.618 196.939-91.482z" fill="#21cab1"/><path d="m282.731 0h-26.74v85.769l65.945-30.633z" fill="#149397"/><path d="m353.628 99.708-49.373-69.437-144.137 66.954-36.097 50.764h125.669z" fill="#ff4d4d"/><path d="m304.255 30.271-48.264 22.419v92.372l97.637-45.354z" fill="#e20f5a"/><path d="m335.948 74.843-157.469 73.146h209.481z" fill="#21cab1"/><path d="m335.948 74.843-79.957 37.141v36.005h131.969z" fill="#149397"/><path d="m149.309 408.976c-48.526 0-88.005 39.479-88.005 88.004v15h89.679v-103.004z" fill="#ff4d4d"/><path d="m450.676 496.98c0-48.526-39.479-88.004-88.005-88.004h-1.674v103.004h89.679z" fill="#ff4d4d"/><path d="m450.676 496.98c0-48.526-39.479-88.004-88.005-88.004h-1.674v103.004h89.679z" fill="#e20f5a"/><path d="m362.671 408.976h-213.362c-9.906 0-19.433 1.646-28.326 4.678v98.327h270.015v-98.327c-8.893-3.031-18.421-4.678-28.327-4.678z" fill="#21cab1"/><path d="m390.998 511.98v-98.327c-8.893-3.031-18.421-4.678-28.326-4.678h-106.681v103.005z" fill="#149397"/><g><path d="m240.991 460.479h30v31.502h-30z" fill="#ff4d4d"/></g><g><path d="m300.994 460.479h30v31.502h-30z" fill="#ff4d4d"/></g><g><path d="m180.987 460.479h30v31.502h-30z" fill="#ff4d4d"/></g><g><path d="m300.994 460.479h30v31.502h-30z" fill="#e20f5a"/></g><path d="m255.991 460.479h15v31.502h-15z" fill="#e20f5a"/><path d="m359.526 205.007c-28.683 0-52.019-23.335-52.019-52.019h-30c0 28.684-23.335 52.019-52.019 52.019h-114.879v88.592c0 80.163 65.218 145.381 145.381 145.381s145.38-65.218 145.38-145.381v-88.592z" fill="#ffe1d2"/><path d="m359.526 205.007c-28.683 0-52.019-23.335-52.019-52.019h-30c0 17.295-8.492 32.636-21.517 42.099v243.892c80.163 0 145.38-65.218 145.38-145.381v-88.592h-41.844z" fill="#ffcbbc"/><g><path d="m186.021 273.279h30v30.002h-30z" fill="#143d66"/></g><g><path d="m295.96 273.279h30v30.002h-30z" fill="#143d66"/></g><g><path d="m255.642 391.76c-17.8 0-34.536-6.932-47.124-19.518l21.212-21.215c6.921 6.921 16.124 10.732 25.912 10.732s18.99-3.812 25.911-10.732l21.212 21.215c-12.588 12.586-29.323 19.518-47.123 19.518z" fill="#ffcbbc"/></g><path d="m125.014 147.989c-9.442 17.456-14.405 36.981-14.405 57.018v25.001h114.879c27.665 0 52.156-13.781 67.019-34.825 14.863 21.044 39.354 34.825 67.019 34.825h41.845v-25.001c0-20.037-4.963-39.561-14.404-57.018z" fill="#804040"/><path d="m386.967 147.989h-130.976v76.121c14.78-5.951 27.444-16.082 36.517-28.927 14.863 21.044 39.354 34.825 67.019 34.825h41.845v-25.001c-.001-20.037-4.964-39.561-14.405-57.018z" fill="#4d2917"/><g><path d="m96.726 132.989h318.529v30h-318.529z" fill="#e20f5a"/></g><g><path d="m295.96 273.279h30v30.002h-30z" fill="#0f244d"/></g><path d="m281.553 351.028c-6.839 6.838-15.905 10.634-25.562 10.724v30c17.669-.09 34.269-7.006 46.774-19.509z" fill="#ffbcae"/><path d="m255.991 132.989h159.264v30h-159.264z" fill="#c21250"/></g></svg>