<svg id="Layer_1" enable-background="new 0 0 512.007 512.007" height="512" viewBox="0 0 512.007 512.007" width="512" xmlns="http://www.w3.org/2000/svg"><g><path d="m110.622 113.594v120.021c0 50.241 25.411 96.248 67.974 123.069l3.665 2.31h147.484l3.665-2.31c42.563-26.821 67.974-72.828 67.974-123.069v-120.021z" fill="#ffe1d2"/><path d="m256.015 113.594v245.399h73.731l3.665-2.31c42.563-26.821 67.974-72.828 67.974-123.069v-120.02z" fill="#ffcbbc"/><path d="m401.386 0c0 16.538-13.455 29.992-29.992 29.992h-178.168c-45.548 0-82.604 37.056-82.604 82.604v72.417-.011c0-16.538 13.455-29.992 29.992-29.992h208.168c45.548 0 82.604-37.056 82.604-82.604v-72.406z" fill="#fd9"/><path d="m431.386 72.406v-72.406h-30c0 16.538-13.455 29.992-29.992 29.992h-115.379v125.018h92.768c45.547 0 82.603-37.056 82.603-82.604z" fill="#fb3"/><g><path d="m186.034 193.28h30v30.002h-30z" fill="#143d66"/></g><g><path d="m295.974 193.28h30v30.002h-30z" fill="#143d66"/></g><g><path d="m256.003 300.595c-17.802 0-34.537-6.933-47.124-19.52l21.214-21.213c6.92 6.921 16.122 10.732 25.91 10.732s18.989-3.812 25.911-10.732l21.213 21.213c-12.587 12.588-29.323 19.52-47.124 19.52z" fill="#ffcbbc"/></g><path d="m365.71 366.048v-37.055h-219.414v37.055c-47.13 1.601-84.979 40.439-84.979 87.952v58.003h389.371v-58.003c.001-47.513-37.848-86.352-84.978-87.952z" fill="#69f"/><path d="m450.689 454c0-47.513-37.849-86.352-84.979-87.952v-37.055h-109.695v183.01h194.674z" fill="#35f"/><g><path d="m241.003 401.988h30v30.002h-30z" fill="#fff5f5"/></g><g><path d="m241.003 461.991h30v30.002h-30z" fill="#fff5f5"/></g><g><path d="m211.001 431.99h30v30.001h-30z" fill="#fff5f5"/></g><g><path d="m271.005 431.99h30v30.001h-30z" fill="#fff5f5"/></g><g><path d="m360.685 451.991h30v60.003h-30z" fill="#9bf"/></g><g><path d="m121.322 451.991h30v60.016h-30z" fill="#9bf"/></g><g><path d="m295.974 193.28h30v30.002h-30z" fill="#0f244d"/></g><g><path d="m360.685 451.991h30v60.003h-30z" fill="#69f"/></g><g><path d="m271.005 431.99h30v30.001h-30z" fill="#ece6f2"/></g><path d="m256.015 401.988h14.989v30.002h-14.989z" fill="#ece6f2"/><path d="m256.015 461.991h14.989v30.002h-14.989z" fill="#ece6f2"/><path d="m281.914 259.862c-6.919 6.918-16.116 10.729-25.899 10.732v30c17.797-.003 34.528-6.934 47.112-19.519z" fill="#ffbcae"/></g></svg>