<svg id="Layer_1" enable-background="new 0 0 512.059 512.059" height="512" viewBox="0 0 512.059 512.059" width="512" xmlns="http://www.w3.org/2000/svg"><g><path d="m362.71 409.054h-213.362c-48.526 0-88.004 39.479-88.004 88.005v15h389.372v-15c-.001-48.527-39.479-88.005-88.006-88.005z" fill="#e20f5a"/><path d="m450.715 497.059c0-48.526-39.479-88.005-88.005-88.005h-106.681v103.005h194.686z" fill="#c21250"/><g><path d="m241.029 424.054h30v88.005h-30z" fill="#fd9"/></g><path d="m256.029 424.054h15v88.005h-15z" fill="#fb3"/><path d="m110.648 141.731v151.942c0 80.163 65.218 145.38 145.381 145.38 80.164 0 145.381-65.217 145.381-145.38v-151.942z" fill="#ffe1d2"/><path d="m256.029 141.731v297.322c80.164 0 145.381-65.217 145.381-145.38v-151.942z" fill="#ffcbbc"/><g><path d="m186.059 263.353h30v30.002h-30z" fill="#143d66"/></g><g><path d="m295.999 263.353h30v30.002h-30z" fill="#143d66"/></g><g><path d="m304.119 377.939h-13.832c-13.301 0-25.387-5.299-34.258-13.896-8.872 8.598-20.958 13.896-34.258 13.896h-13.832v-30h13.832c10.619 0 19.258-8.639 19.258-19.258h30c0 10.619 8.64 19.258 19.259 19.258h13.832v30z" fill="#804040"/></g><path d="m110.648 141.731v17.882c0 41.203 33.521 74.725 74.725 74.725h141.312c41.204 0 74.726-33.521 74.726-74.725v-17.882z" fill="#143d66"/><path d="m256.029 141.731v92.606h70.656c41.204 0 74.726-33.521 74.726-74.725v-17.882h-145.382z" fill="#0f244d"/><g><path d="m362.71 409.054h88.006v30h-88.006z" fill="#fd9"/></g><g><path d="m61.343 409.054h88.005v30h-88.005z" fill="#fd9"/></g><path d="m110.648.077v33.974l145.393 78.043 145.368-78.044v-33.973z" fill="#ff4d4d"/><path d="m401.409 34.05v-33.973h-145.38v112.01l.012.007z" fill="#e20f5a"/><path d="m256.04 78.045-145.392-78.043v159.611h290.761v-159.613z" fill="#e20f5a"/><g><path d="m295.999 263.353h30v30.002h-30z" fill="#0f244d"/></g><g><path d="m362.71 409.054h88.006v30h-88.006z" fill="#fb3"/></g><path d="m401.409 0-145.369 78.045-.011-.006v81.574h145.38z" fill="#c21250"/><path d="m290.287 377.939h13.832v-30h-13.832c-10.619 0-19.259-8.639-19.259-19.258h-15v35.361c8.873 8.598 20.959 13.897 34.259 13.897z" fill="#4d2917"/></g></svg>