<svg id="Layer_1" enable-background="new 0 0 512.014 512.014" height="512" viewBox="0 0 512.014 512.014" width="512" xmlns="http://www.w3.org/2000/svg"><g><path d="m273.034 132.021c-28.684 0-52.019-23.335-52.019-52.019h-15-15c0 28.684-23.335 52.019-52.019 52.019h-28.371v101.603c0 50.241 25.411 96.249 67.974 123.07l3.665 2.31h147.485l3.665-2.31c42.562-26.821 67.973-72.829 67.973-123.07v-101.603z" fill="#ffe1d2"/><path d="m273.034 132.021c-5.957 0-11.678-1.02-17.013-2.872v229.854h73.729l3.665-2.31c42.562-26.821 67.973-72.829 67.973-123.07v-101.602z" fill="#ffcbbc"/><path d="m365.713 366.058v-37.055h-219.413v37.055c-47.131 1.601-84.979 40.439-84.979 87.952v58.003h389.372v-58.003c0-47.513-37.85-86.352-84.98-87.952z" fill="#149397"/><path d="m450.693 454.01c0-47.513-37.85-86.352-84.979-87.952v-37.055h-109.693v183.01h194.672z" fill="#12627c"/><g><path d="m186.037 190.289h30v30.002h-30z" fill="#143d66"/></g><g><path d="m295.977 190.289h30v30.002h-30z" fill="#143d66"/></g><g><path d="m304.097 304.876h-13.832c-13.301 0-25.387-5.299-34.259-13.896-8.871 8.598-20.958 13.896-34.258 13.896h-13.832v-30h13.832c10.619 0 19.258-8.64 19.258-19.259h30c0 10.619 8.64 19.259 19.259 19.259h13.832z" fill="#c9885b"/></g><path d="m281.37 0h-50.725c-66.179 0-120.02 53.84-120.02 120.019v42.002h28.371c27.653 0 52.154-13.757 67.019-34.785 14.864 21.028 39.365 34.785 67.019 34.785h128.354v-42.002c-.001-66.179-53.841-120.019-120.018-120.019z" fill="#c9885b"/><g><path d="m295.977 190.289h30v30.002h-30z" fill="#0f244d"/></g><g><path d="m370.69 467.001h30v44.999h-30z" fill="#21cab1"/></g><g><path d="m111.325 467.001h30v45.012h-30z" fill="#21cab1"/></g><path d="m323.428 484.045h18.873l-77.375-85.639h-17.808l-77.385 85.639h18.877l-21.06 27.968h37.555l43.652-57.968h-11.482l18.746-20.745 18.744 20.745h-11.487l43.656 57.968h37.556z" fill="#21cab1"/><g><path d="m370.69 467.001h30v44.999h-30z" fill="#149397"/></g><path d="m323.428 484.045h18.873l-77.375-85.639h-8.908v34.897l.003-.003 18.744 20.745h-11.487l43.656 57.968h37.556z" fill="#149397"/><g fill="#a05f4b"><path d="m304.097 304.876v-30h-13.832c-10.619 0-19.259-8.64-19.259-19.259h-14.985v35.376c8.871 8.589 20.95 13.883 34.244 13.883z"/><path d="m401.387 162.021v-42.002c0-66.179-53.84-120.019-120.017-120.019h-25.349v160.239c5.491 1.163 11.18 1.782 17.013 1.782z"/></g></g></svg>