<svg id="Layer_1" enable-background="new 0 0 511.99 511.99" height="512" viewBox="0 0 511.99 511.99" width="512" xmlns="http://www.w3.org/2000/svg"><g><path d="m146.808 408.985c-48.526 0-88.005 39.479-88.005 88.004v15h89.679v-103.004z" fill="#9bf"/><path d="m448.175 496.99c0-48.526-39.479-88.004-88.005-88.004h-1.674v103.004h89.679z" fill="#9bf"/><path d="m448.175 496.99c0-48.526-39.479-88.004-88.005-88.004h-1.674v103.004h89.679z" fill="#69f"/><path d="m360.171 408.985h-213.363c-9.906 0-19.433 1.646-28.326 4.678v98.327h270.015v-98.327c-8.893-3.031-18.421-4.678-28.326-4.678z" fill="#69f"/><path d="m388.497 511.99v-98.327c-8.893-3.031-18.421-4.678-28.326-4.678h-106.681v103.005z" fill="#35f"/><g><path d="m238.49 460.488h30v31.502h-30z" fill="#9bf"/></g><g><path d="m298.493 460.488h30v31.502h-30z" fill="#9bf"/></g><g><path d="m178.486 460.488h30v31.502h-30z" fill="#9bf"/></g><g><path d="m298.493 460.488h30v31.502h-30z" fill="#69f"/></g><path d="m253.49 460.488h15v31.502h-15z" fill="#69f"/><path d="m338.449 180.793-8.228 6.856c-33.388 27.823-75.711 43.146-119.174 43.146h-102.939v62.819c0 80.163 65.218 145.381 145.381 145.381s145.38-65.218 145.38-145.381v-112.821z" fill="#ffe1d2"/><path d="m338.449 180.793-8.228 6.856c-22.353 18.627-48.713 31.642-76.736 38.216v213.13h.004c80.163 0 145.38-65.218 145.38-145.381v-112.821z" fill="#ffcbbc"/><g><path d="m183.519 286.296h30v30.002h-30z" fill="#143d66"/></g><g><path d="m293.459 286.296h30v30.002h-30z" fill="#143d66"/></g><g><path d="m253.489 389.777c-17.801 0-34.537-6.932-47.124-19.52l21.213-21.213c6.921 6.921 16.123 10.732 25.911 10.732s18.99-3.812 25.911-10.732l21.213 21.213c-12.587 12.589-29.323 19.52-47.124 19.52z" fill="#ffcbbc"/></g><path d="m108.108 180.793v80.003h102.939c50.467 0 99.611-17.792 138.379-50.1l35.883-29.903z" fill="#fd9"/><path d="m385.309 180.793h-131.824v75.776c35.085-7.043 68.175-22.733 95.941-45.872z" fill="#fb3"/><g><path d="m293.459 286.296h30v30.002h-30z" fill="#0f244d"/></g><path d="m253.489 389.777c17.801 0 34.537-6.932 47.124-19.52l-21.213-21.212c-6.921 6.921-16.123 10.732-25.911 10.732-.001 0-.003 0-.004 0v30z" fill="#ffbcae"/><path d="m411.105 0h-42.082v42.082c0 23.204 18.878 42.082 42.082 42.082s42.081-18.877 42.081-42.082-18.877-42.082-42.081-42.082z" fill="#fff5f5"/><path d="m411.105 0h-42.082v42.082c0 23.204 18.878 42.082 42.082 42.082s42.081-18.877 42.081-42.082-18.877-42.082-42.081-42.082z" fill="#ece6f2"/><path d="m253.489 0v97.706h82.091c34.983 0 63.443-28.46 63.443-63.443v-34.263z" fill="#e20f5a"/><path d="m253.489 0v97.706h82.091c34.983 0 63.443-28.46 63.443-63.443v-34.263z" fill="#c21250"/><path d="m310.452 27.353c-13.927-17.383-34.689-27.353-56.963-27.353s-43.036 9.97-56.962 27.353l-100.016 124.833h313.956z" fill="#ff4d4d"/><path d="m310.452 27.353c-13.927-17.383-34.689-27.353-56.963-27.353v152.186h156.978z" fill="#e20f5a"/><path d="m383.87 122.186h-260.762c-24.429 0-44.304 19.875-44.304 44.303 0 24.429 19.875 44.304 44.304 44.304h260.762c24.429 0 44.303-19.875 44.303-44.304 0-24.428-19.874-44.303-44.303-44.303z" fill="#fff5f5"/><path d="m428.173 166.489c0-24.429-19.875-44.303-44.303-44.303h-130.381v88.607h130.381c24.429 0 44.303-19.875 44.303-44.304z" fill="#ece6f2"/></g></svg>