<svg id="Layer_1" enable-background="new 0 0 511.98 511.98" height="512" viewBox="0 0 511.98 511.98" width="512" xmlns="http://www.w3.org/2000/svg"><path d="m255.641 496.99c.182 0 .362-.012.543-.014h-1.087c.182.003.362.014.544.014z"/><g><path d="m424.716 347.109c-15.491-34.327-23.345-70.828-23.345-108.488v-38.62h-290.762v38.62c0 37.661-7.854 74.162-23.345 108.488-17.252 38.231-26 78.884-26 120.828v44.039h389.453v-44.039c-.001-41.943-8.749-82.595-26.001-120.828z" fill="#c9885b"/><path d="m450.716 467.938c0-41.943-8.748-82.596-26-120.828-15.491-34.327-23.345-70.828-23.345-108.488v-38.62h-145.381v311.976h194.726z" fill="#a05f4b"/><path d="m180.094 408.976v28c0 41.357 33.646 75.004 75.003 75.004s75.004-33.646 75.004-75.004v-28z" fill="#ffcbbc"/><path d="m330.101 436.976v-28h-74.111v102.982c40.946-.483 74.111-33.924 74.111-74.982z" fill="#ffbcae"/><path d="m149.309 408.972c-48.526 0-88.004 39.479-88.004 88.005v15h103.004v-103.005z" fill="#21cab1"/><path d="m450.675 496.977c0-48.526-39.479-88.005-88.004-88.005h-15v103.005h103.004z" fill="#21cab1"/><path d="m450.675 496.977c0-48.526-39.479-88.005-88.004-88.005h-15v103.005h103.004z" fill="#149397"/><path d="m361.779 408.976h-61.678v28c0 24.815-20.188 45.004-45.004 45.004-24.815 0-45.003-20.188-45.003-45.004v-28h-61.677c-4.802 0-9.513.393-14.108 1.136v101.868h120.789 122.573v-101.563c-5.156-.945-10.467-1.441-15.892-1.441z" fill="#ff4d4d"/><path d="m377.671 410.417c-5.156-.944-10.467-1.441-15.892-1.441h-61.678v28c0 24.516-19.708 44.502-44.111 44.981v30.023h121.681z" fill="#e20f5a"/><path d="m286.491 215.001c-37.013 0-67.018-30.005-67.018-67.019 0 37.013-30.005 67.019-67.018 67.019h-26.845v78.59c0 72.007 58.374 130.381 130.381 130.381 72.007 0 130.381-58.374 130.381-130.381v-78.59z" fill="#ffe1d2"/><path d="m286.491 215.001c-10.989 0-21.35-2.662-30.501-7.349v216.32c72.007 0 130.38-58.374 130.38-130.381v-78.59z" fill="#ffcbbc"/><g><path d="m186.02 258.015h30v30.002h-30z" fill="#143d66"/></g><g><path d="m295.96 258.015h30v30.002h-30z" fill="#143d66"/></g><g><path d="m255.641 376.496c-17.8 0-34.536-6.932-47.124-19.518l21.212-21.215c6.921 6.921 16.124 10.732 25.912 10.732s18.99-3.812 25.911-10.732l21.212 21.215c-12.587 12.587-29.323 19.518-47.123 19.518z" fill="#ffcbbc"/></g><path d="m125.01 147.989c-9.44 17.454-14.401 36.977-14.401 57.012v25h41.845c27.665 0 52.156-13.781 67.019-34.825 14.863 21.044 39.354 34.825 67.019 34.825h114.879v-25c0-20.034-4.962-39.557-14.401-57.012z" fill="#c9885b"/><path d="m401.371 230.001v-25c0-20.034-4.962-39.557-14.401-57.012h-130.98v76.115c9.432 3.797 19.724 5.897 30.501 5.897z" fill="#a05f4b"/><g><path d="m295.96 258.015h30v30.002h-30z" fill="#0f244d"/></g><path d="m282.73 0h-53.481l-104.252 146.618 196.939-91.482z" fill="#21cab1"/><path d="m282.73 0h-26.74v85.769l65.946-30.633z" fill="#149397"/><path d="m353.628 99.708-49.374-69.437-144.137 66.954-36.096 50.764h125.669z" fill="#ff4d4d"/><path d="m304.254 30.271-48.264 22.419v92.372l97.638-45.354z" fill="#e20f5a"/><path d="m335.947 74.843-157.469 73.146h209.481z" fill="#21cab1"/><path d="m335.947 74.843-79.957 37.141v36.005h131.969z" fill="#149397"/><g><path d="m96.725 132.989h318.529v30h-318.529z" fill="#e20f5a"/></g><path d="m255.99 132.989h159.264v30h-159.264z" fill="#c21250"/><path d="m281.552 335.764c-6.839 6.838-15.905 10.634-25.562 10.724v30c17.669-.09 34.269-7.006 46.774-19.509z" fill="#ffbcae"/></g></svg>