<svg id="Layer_1" enable-background="new 0 0 512.003 512.003" height="512" viewBox="0 0 512.003 512.003" width="512" xmlns="http://www.w3.org/2000/svg"><g><path d="m404.942 188.161-4.123-8.372h-294.645l-4.124 8.372c-11.486 23.32-17.31 48.365-17.31 74.44 0 39.734 14.091 78.335 39.679 108.691l4.495 5.333h249.165l4.494-5.333c25.587-30.355 39.679-68.956 39.679-108.691 0-26.075-5.824-51.12-17.31-74.44z" fill="#fff5f5"/><path d="m382.573 371.292c25.587-30.355 39.679-68.956 39.679-108.691 0-26.075-5.823-51.12-17.31-74.44l-4.123-8.372h-147.324v196.837h124.583z" fill="#ece6f2"/><path d="m395.051 406.685-2.568-.973h-277.974l-2.568.973c-31.779 12.04-53.13 42.96-53.13 76.939v28.379h389.371v-28.379c-.001-33.979-21.352-64.899-53.131-76.939z" fill="#fff5f5"/><path d="m448.181 483.625c0-33.979-21.352-64.899-53.13-76.939l-2.568-.973h-138.988v106.291h194.686z" fill="#ece6f2"/><path d="m131.525 411.999h95.389v100.005h-95.389z" fill="#ff4d4d"/><path d="m370.468 346.609h-233.944c-26.299 0-47.694 21.396-47.694 47.695s21.396 47.694 47.694 47.694h233.944c26.299 0 47.694-21.396 47.694-47.694s-21.395-47.695-47.694-47.695z" fill="#e20f5a"/><path d="m370.468 346.609h-116.973v95.39h116.973c26.299 0 47.694-21.396 47.694-47.694s-21.395-47.696-47.694-47.696z" fill="#c21250"/><g><path d="m238.496 266.672h30v51.333h-30z" fill="#fb3"/></g><g><path d="m174.268 236.67h30v30.002h-30z" fill="#143d66"/></g><g><path d="m302.702 236.67h30v30.002h-30z" fill="#143d66"/></g><g><path d="m302.702 236.67h30v30.002h-30z" fill="#0f244d"/></g><path d="m411.112 0h-42.082v42.082c0 23.204 18.878 42.082 42.082 42.082s42.081-18.877 42.081-42.082-18.878-42.082-42.081-42.082z" fill="#fff5f5"/><path d="m411.112 0h-42.082v42.082c0 23.204 18.878 42.082 42.082 42.082s42.081-18.877 42.081-42.082-18.878-42.082-42.081-42.082z" fill="#ece6f2"/><path d="m253.495 0v97.706h82.091c34.983 0 63.443-28.46 63.443-63.443v-34.263z" fill="#e20f5a"/><path d="m253.495 0v97.706h82.091c34.983 0 63.443-28.46 63.443-63.443v-34.263z" fill="#c21250"/><path d="m310.458 27.353c-13.926-17.383-34.689-27.353-56.963-27.353s-43.036 9.97-56.962 27.353l-100.016 124.833h313.956z" fill="#ff4d4d"/><path d="m310.458 27.353c-13.926-17.383-34.689-27.353-56.963-27.353v152.186h156.978z" fill="#e20f5a"/><path d="m383.876 122.186h-260.761c-24.429 0-44.304 19.875-44.304 44.303 0 24.429 19.875 44.304 44.304 44.304h260.762c24.429 0 44.303-19.875 44.303-44.304 0-24.428-19.875-44.303-44.304-44.303z" fill="#ece6f2"/><path d="m428.18 166.489c0-24.429-19.875-44.303-44.303-44.303h-130.382v88.607h130.381c24.429 0 44.304-19.875 44.304-44.304z" fill="#d7cfe6"/><path d="m253.495 266.672h15v51.333h-15z" fill="#ff884d"/></g></svg>