<svg id="Layer_1" enable-background="new 0 0 511.986 511.986" height="512" viewBox="0 0 511.986 511.986" width="512" xmlns="http://www.w3.org/2000/svg"><path d="m255.644 496.996c.182 0 .362-.012.543-.014h-1.087c.182.003.362.014.544.014z"/><g><path d="m110.455 361.542c0 26.165-21.286 47.451-47.45 47.451v30h385.663v-30c-24.925 0-45.407-19.32-47.294-43.769v-134.431h-30v77.767h-230.762v-77.767h-30.157z" fill="#804040"/><path d="m448.668 408.993c-24.925 0-45.407-19.32-47.294-43.769v-134.431h-30v77.767h-115.538v130.434h192.832z" fill="#4d2917"/><path d="m180.097 408.981v28c0 41.357 33.646 75.004 75.003 75.004s75.004-33.646 75.004-75.004v-28z" fill="#ffcbbc"/><path d="m330.105 436.982v-28h-74.111v102.982c40.945-.483 74.111-33.924 74.111-74.982z" fill="#ffbcae"/><path d="m149.312 408.978c-48.526 0-88.004 39.479-88.004 88.005v15h103.004v-103.005z" fill="#9bf"/><path d="m450.678 496.982c0-48.526-39.479-88.005-88.004-88.005h-15v103.005h103.004z" fill="#9bf"/><path d="m450.678 496.982c0-48.526-39.479-88.005-88.004-88.005h-15v103.005h103.004z" fill="#69f"/><path d="m361.782 408.981h-61.678v28c0 24.815-20.188 45.004-45.004 45.004-24.815 0-45.003-20.188-45.003-45.004v-28h-61.677c-4.802 0-9.513.393-14.108 1.136v101.868h120.789 122.573v-101.562c-5.156-.945-10.467-1.442-15.892-1.442z" fill="#69f"/><path d="m377.674 410.423c-5.156-.944-10.467-1.441-15.892-1.441h-61.678v28c0 24.516-19.708 44.502-44.111 44.981v30.023h121.681z" fill="#35f"/><path d="m306.007 230.793c-19.301 0-35.003-15.702-35.003-35.003h-30c0 19.301-15.702 35.003-35.003 35.003h-65.389v151.36c26.604 34.54 68.355 56.84 115.224 56.84 47.053 0 88.949-22.476 115.538-57.249v-150.951z" fill="#ffe1d2"/><path d="m306.007 230.793c-19.301 0-35.003-15.702-35.003-35.003h-15.168v243.203c47.053 0 88.949-22.476 115.538-57.249v-150.951z" fill="#ffcbbc"/><path d="m110.613 180.79v80.003h95.546c20.086 0 38.07-9.161 50.003-23.52 11.933 14.359 29.917 23.52 50.003 23.52h95.21v-80.003z" fill="#804040"/><path d="m255.836 180.79v56.854c.106-.126.22-.244.325-.371 11.933 14.359 29.917 23.52 50.003 23.52h95.21v-80.003z" fill="#4d2917"/><g><path d="m185.866 288.284h30v30.002h-30z" fill="#143d66"/></g><g><path d="m295.806 288.284h30v30.002h-30z" fill="#143d66"/></g><g><path d="m255.836 391.765c-17.801 0-34.537-6.932-47.124-19.52l21.213-21.213c6.921 6.921 16.123 10.732 25.911 10.732s18.99-3.812 25.911-10.732l21.213 21.213c-12.587 12.589-29.323 19.52-47.124 19.52z" fill="#ffcbbc"/></g><g><path d="m295.806 288.284h30v30.002h-30z" fill="#0f244d"/></g><path d="m255.836 391.765c17.801 0 34.537-6.932 47.124-19.52l-21.213-21.213c-6.921 6.921-16.123 10.732-25.911 10.732-.001 0-.003 0-.004 0v30c.002.001.003.001.004.001z" fill="#ffbcae"/><path d="m355.999 0c-28.406 0-51.517 23.11-51.517 51.517 0 .778.021 1.552.056 2.321l.347 7.799 63.605 40.471 7.209-2.985c19.328-8.004 31.816-26.69 31.816-47.605.001-28.408-23.109-51.518-51.516-51.518z" fill="#ece6f2"/><path d="m355.999 0c-28.406 0-51.517 23.11-51.517 51.517 0 .778.021 1.552.056 2.321l.347 7.799 63.605 40.471 7.209-2.985c19.328-8.004 31.816-26.69 31.816-47.605.001-28.408-23.109-51.518-51.516-51.518z" fill="#d7cfe6"/><path d="m155.987 0c-28.407 0-51.517 23.11-51.517 51.517 0 20.914 12.488 39.601 31.815 47.605l7.209 2.985 63.606-40.471.347-7.799c.034-.77.056-1.543.056-2.321 0-28.406-23.11-51.516-51.516-51.516z" fill="#ece6f2"/><path d="m302.932 36.517h-93.878c-54.28 0-98.441 44.16-98.441 98.441v68.829h290.762v-68.829c-.001-54.281-44.162-98.441-98.443-98.441z" fill="#fff5f5"/><path d="m401.374 134.958c0-54.281-44.161-98.441-98.442-98.441h-47.096v167.271h145.538z" fill="#ece6f2"/><g><path d="m240.993 120.152h30v30.002h-30z" fill="#143d66"/></g><g><path d="m190.99 90.15h30v30.002h-30z" fill="#143d66"/></g><g><path d="m290.996 90.15h30v30.002h-30z" fill="#143d66"/></g><g><path d="m290.996 90.15h30v30.002h-30z" fill="#0f244d"/></g><path d="m255.836 120.152h15.157v30.002h-15.157z" fill="#0f244d"/></g></svg>