<svg id="Layer_1" enable-background="new 0 0 511.99 511.99" height="512" viewBox="0 0 511.99 511.99" width="512" xmlns="http://www.w3.org/2000/svg"><g><path d="m130.705 278.227-13.197 5.381c-35.661 14.539-58.704 48.807-58.704 87.302v68.087h123.316v-51.062z" fill="#c9885b"/><path d="m389.472 283.608-13.197-5.381-51.415 109.71v51.06h123.315v-68.087c0-38.495-23.042-72.764-58.703-87.302z" fill="#c9885b"/><path d="m389.472 283.608-13.197-5.381-51.415 109.71v51.06h123.315v-68.087c0-38.495-23.042-72.764-58.703-87.302z" fill="#a05f4b"/><path d="m146.808 408.985c-48.526 0-88.005 39.479-88.005 88.004v15h89.679v-103.004z" fill="#b0e997"/><path d="m448.175 496.99c0-48.526-39.479-88.004-88.005-88.004h-1.674v103.004h89.679z" fill="#b0e997"/><path d="m448.175 496.99c0-48.526-39.479-88.004-88.005-88.004h-1.674v103.004h89.679z" fill="#21cab1"/><path d="m360.171 408.985h-213.363c-9.906 0-19.433 1.646-28.326 4.678v98.327h270.015v-98.327c-8.893-3.031-18.421-4.678-28.326-4.678z" fill="#e20f5a"/><path d="m388.497 511.99v-98.327c-8.893-3.031-18.421-4.678-28.326-4.678h-106.681v103.005z" fill="#c21250"/><g><path d="m238.49 460.488h30v31.502h-30z" fill="#b0e997"/></g><g><path d="m298.493 460.488h30v31.502h-30z" fill="#b0e997"/></g><g><path d="m178.486 460.488h30v31.502h-30z" fill="#b0e997"/></g><g><path d="m298.493 460.488h30v31.502h-30z" fill="#21cab1"/></g><path d="m253.49 460.488h15v31.502h-15z" fill="#21cab1"/><path d="m303.493 230.796c-19.301 0-35.004-15.702-35.004-35.003h-30c0 19.301-15.702 35.003-35.003 35.003h-95.378v62.819c0 80.163 65.218 145.381 145.382 145.381 80.163 0 145.38-65.218 145.38-145.381v-62.819z" fill="#ffe1d2"/><path d="m303.493 230.796c-19.301 0-35.004-15.702-35.004-35.003h-15v243.203h.001c80.164 0 145.38-65.218 145.38-145.381v-62.819z" fill="#ffcbbc"/><g><path d="m183.52 288.287h30v30.002h-30z" fill="#143d66"/></g><g><path d="m293.46 288.287h30v30.002h-30z" fill="#143d66"/></g><g><path d="m253.489 391.769c-17.801 0-34.536-6.932-47.123-19.52l21.213-21.213c6.921 6.921 16.123 10.732 25.91 10.732 9.788 0 18.99-3.812 25.911-10.732l21.213 21.213c-12.586 12.588-29.323 19.52-47.124 19.52z" fill="#ffcbbc"/></g><path d="m108.109 180.793v80.003h95.378c20.086 0 38.07-9.161 50.003-23.52 11.933 14.359 29.917 23.52 50.004 23.52h95.377v-80.003z" fill="#c9885b"/><path d="m253.489 180.793v56.484c11.933 14.359 29.917 23.52 50.004 23.52h95.377v-80.003h-145.381z" fill="#a05f4b"/><g><path d="m293.46 288.287h30v30.002h-30z" fill="#0f244d"/></g><path d="m411.105 0h-42.082v42.082c0 23.204 18.878 42.082 42.082 42.082s42.081-18.877 42.081-42.082-18.877-42.082-42.081-42.082z" fill="#fff5f5"/><path d="m411.105 0h-42.082v42.082c0 23.204 18.878 42.082 42.082 42.082s42.081-18.877 42.081-42.082-18.877-42.082-42.081-42.082z" fill="#ece6f2"/><path d="m253.489 0v97.706h82.091c34.983 0 63.443-28.46 63.443-63.443v-34.263z" fill="#e20f5a"/><path d="m253.489 0v97.706h82.091c34.983 0 63.443-28.46 63.443-63.443v-34.263z" fill="#c21250"/><path d="m310.452 27.353c-13.927-17.383-34.689-27.353-56.963-27.353s-43.036 9.97-56.962 27.353l-100.016 124.833h313.956z" fill="#ff4d4d"/><path d="m310.452 27.353c-13.927-17.383-34.689-27.353-56.963-27.353v152.186h156.978z" fill="#e20f5a"/><path d="m383.87 122.186h-260.762c-24.429 0-44.304 19.875-44.304 44.303 0 24.429 19.875 44.304 44.304 44.304h260.762c24.429 0 44.303-19.875 44.303-44.304 0-24.428-19.874-44.303-44.303-44.303z" fill="#fff5f5"/><path d="m428.173 166.489c0-24.429-19.875-44.303-44.303-44.303h-130.381v88.607h130.381c24.429 0 44.303-19.875 44.303-44.304z" fill="#ece6f2"/><path d="m253.489 391.769c17.801 0 34.537-6.932 47.124-19.52l-21.213-21.213c-6.921 6.921-16.123 10.732-25.911 10.732z" fill="#ffbcae"/></g></svg>