<svg id="Layer_1" enable-background="new 0 0 511.998 511.998" height="512" viewBox="0 0 511.998 511.998" width="512" xmlns="http://www.w3.org/2000/svg"><g><path d="m451.593 0v18.604c0 12.339-2.631 24.296-7.423 35.22-15.508-2.781-27.318-16.362-27.318-32.659v-3.164h-30v3.164c0 26.607 16.539 49.41 39.869 58.71-8.886 9.228-19.804 16.6-32.213 21.283l-1.033.39 10.591 28.068 1.033-.39c22.584-8.522 41.778-23.521 55.507-43.376 13.729-19.854 20.985-43.108 20.985-67.247v-18.603z" fill="#804040"/><path d="m451.593 0v18.604c0 12.339-2.631 24.296-7.423 35.22-15.508-2.781-27.318-16.362-27.318-32.659v-3.164h-30v3.164c0 26.607 16.539 49.41 39.869 58.71-8.886 9.228-19.804 16.6-32.213 21.283l-1.033.39 10.591 28.068 1.033-.39c22.584-8.522 41.778-23.521 55.507-43.376 13.729-19.854 20.985-43.108 20.985-67.247v-18.603z" fill="#4d2917"/><path d="m125.123 21.165v-3.164h-30v3.164c0 16.296-11.81 29.877-27.318 32.659-4.792-10.925-7.423-22.881-7.423-35.22v-18.604h-30v18.604c0 24.139 7.257 47.393 20.986 67.247s32.923 34.854 55.506 43.375l1.032.39 10.595-28.066-1.034-.391c-12.409-4.683-23.327-12.055-32.213-21.283 23.33-9.301 39.869-32.104 39.869-58.711z" fill="#804040"/><path d="m0 120.584v35.646c0 42.147 34.29 76.438 76.438 76.438h22.739l18.401-112.083h-117.578z" fill="#a05f4b"/><path d="m394.397 120.584 18.402 112.083h22.739c42.16 0 76.459-34.3 76.459-76.46v-35.623z" fill="#a05f4b"/><path d="m394.397 120.584 18.402 112.083h22.739c42.16 0 76.459-34.3 76.459-76.46v-35.623z" fill="#804040"/><path d="m450.673 224.683c0-107.35-87.335-194.685-194.686-194.685s-194.685 87.335-194.685 194.685v52.625c0 48.358 18.04 94.776 50.109 130.359-30.466 18.854-49.778 52.459-49.778 89.331v15h388.708v-15c0-36.872-19.312-70.477-49.777-89.331 32.069-35.583 50.109-82.001 50.109-130.359z" fill="#c9885b"/><path d="m450.673 224.683c0-107.35-87.335-194.685-194.686-194.685v482h194.354v-15c0-36.872-19.312-70.477-49.777-89.331 32.069-35.583 50.109-82.001 50.109-130.359z" fill="#a05f4b"/><path d="m356.197 155.693-2.215 1.846c-35.208 29.356-79.843 45.523-125.683 45.523h-104.626c-1.488 6.158-2.297 12.579-2.297 19.188v64.59c0 74.225 60.387 134.611 134.612 134.611s134.612-60.387 134.612-134.611v-64.59c0-27.432-13.603-51.731-34.403-66.557z" fill="#ffe1d2"/><path d="m356.197 155.693-2.215 1.846c-28.063 23.399-62.117 38.407-97.995 43.54v220.373c74.225 0 134.612-60.387 134.612-134.611v-64.59c.001-27.433-13.602-51.732-34.402-66.558z" fill="#ffcbbc"/><g><path d="m186.018 270.485h30v30.002h-30z" fill="#143d66"/></g><g><path d="m295.958 270.485h30v30.002h-30z" fill="#143d66"/></g><g><path d="m255.988 373.966c-17.802 0-34.537-6.933-47.124-19.52l21.214-21.213c6.92 6.921 16.122 10.732 25.91 10.732s18.989-3.812 25.911-10.732l21.213 21.213c-12.588 12.589-29.323 19.52-47.124 19.52z" fill="#ffcbbc"/></g><path d="m373.194 180.58 3.901-3.252c-14.633-22.141-39.734-36.785-68.202-36.785h-105.81c-45.054 0-81.708 36.653-81.708 81.707v10.812h106.925c52.847 0 104.304-18.638 144.894-52.482z" fill="#804040"/><path d="m377.094 177.328c-14.633-22.141-39.734-36.785-68.202-36.785h-52.904v90.798c42.913-5.314 83.752-22.866 117.206-50.761z" fill="#4d2917"/><g><path d="m240.988 459.996h30v30.002h-30z" fill="#fd9"/></g><g><path d="m295.958 270.485h30v30.002h-30z" fill="#0f244d"/></g><path d="m303.111 354.447-21.213-21.213c-6.921 6.921-16.123 10.732-25.911 10.732v30c17.802 0 34.537-6.931 47.124-19.519z" fill="#ffbcae"/><path d="m255.988 459.996h15v30.002h-15z" fill="#fb3"/></g></svg>