<svg id="Layer_1" enable-background="new 0 0 511.981 511.981" height="512" viewBox="0 0 511.981 511.981" width="512" xmlns="http://www.w3.org/2000/svg"><g><path d="m149.31 408.977c-48.526 0-88.005 39.479-88.005 88.004v15h89.679v-103.004z" fill="#21cab1"/><path d="m450.677 496.981c0-48.526-39.479-88.004-88.005-88.004h-1.674v103.004h89.679z" fill="#21cab1"/><path d="m450.677 496.981c0-48.526-39.479-88.004-88.005-88.004h-1.674v103.004h89.679z" fill="#149397"/><path d="m362.672 408.977h-213.362c-9.906 0-19.433 1.646-28.326 4.678v98.327h270.015v-98.327c-8.894-3.031-18.422-4.678-28.327-4.678z" fill="#149397"/><path d="m390.998 511.981v-98.327c-8.893-3.031-18.421-4.678-28.326-4.678h-106.681v103.004h135.007z" fill="#12627c"/><g><path d="m240.991 460.479h30v31.502h-30z" fill="#21cab1"/></g><g><path d="m300.994 460.479h30v31.502h-30z" fill="#21cab1"/></g><g><path d="m180.987 460.479h30v31.502h-30z" fill="#21cab1"/></g><g><path d="m300.994 460.479h30v31.502h-30z" fill="#149397"/></g><path d="m255.991 460.479h15v31.502h-15z" fill="#149397"/><path d="m346.008 230.783c-19.301 0-35.003-15.702-35.003-35.002h-15-15c0 19.3-15.702 35.002-35.003 35.002h-135.392v62.817c0 80.163 65.218 145.38 145.381 145.38s145.381-65.217 145.381-145.38v-62.817z" fill="#ffe1d2"/><path d="m346.008 230.783c-19.301 0-35.003-15.702-35.003-35.002h-15-15c0 15.829-10.566 29.231-25.013 33.542v209.657c80.163 0 145.38-65.217 145.38-145.38v-62.817z" fill="#ffcbbc"/><path d="m110.61 180.78v80.003h135.392c20.085 0 38.07-9.154 50.003-23.512 11.933 14.357 29.918 23.512 50.003 23.512h55.364v-80.003z" fill="#fd9"/><path d="m255.991 180.78v79.215c16.002-2.48 30.099-10.796 40.013-22.724 11.933 14.357 29.918 23.512 50.003 23.512h55.364v-80.003z" fill="#fb3"/><g><path d="m186.032 288.015h30v30.002h-30z" fill="#143d66"/></g><g><path d="m295.972 288.015h30v30.002h-30z" fill="#143d66"/></g><g><path d="m256.002 391.496c-17.801 0-34.536-6.932-47.124-19.519l21.213-21.213c6.921 6.92 16.123 10.731 25.911 10.731s18.99-3.812 25.911-10.732l21.212 21.215c-12.587 12.586-29.323 19.518-47.123 19.518z" fill="#ffcbbc"/></g><path d="m305.732 67.896c-13.794-11.997-31.459-18.604-49.741-18.604s-35.947 6.606-49.74 18.604l-72.923 63.415v31.835h245.327v-31.835z" fill="#21cab1"/><path d="m378.654 131.311-72.923-63.415c-13.794-11.997-31.459-18.604-49.74-18.604v113.854h122.663z" fill="#149397"/><path d="m342.923 121.5-43.466 10.867-43.466-10.867-43.467 10.867-43.466-10.867-58.467 14.617v74.663h290.799v-74.663z" fill="#ff4d4d"/><path d="m256.002 0c-21.861 0-39.646 17.785-39.646 39.646s17.785 39.646 39.646 39.646 39.646-17.785 39.646-39.646-17.785-39.646-39.646-39.646z" fill="#ff4d4d"/><g><path d="m295.972 288.015h30v30.002h-30z" fill="#0f244d"/></g><path d="m256.002 391.496c17.8 0 34.536-6.932 47.123-19.518l-21.212-21.215c-6.921 6.921-16.124 10.732-25.911 10.732-.004 0-.007 0-.011 0v30c.004.001.007.001.011.001z" fill="#ffbcae"/><g fill="#e20f5a"><path d="m401.39 136.117-58.467-14.617-43.466 10.867-43.466-10.867v89.28h145.399z"/><path d="m295.648 39.646c0-21.861-17.785-39.646-39.646-39.646-.004 0-.007 0-.011 0v79.292h.011c21.861 0 39.646-17.785 39.646-39.646z"/></g></g></svg>