<svg id="Layer_1" enable-background="new 0 0 511.989 511.989" height="512" viewBox="0 0 511.989 511.989" width="512" xmlns="http://www.w3.org/2000/svg"><g><path d="m178.486 408.985v28c0 41.357 33.646 75.004 75.003 75.004s75.004-33.646 75.004-75.004v-28z" fill="#ffcbbc"/><path d="m328.493 436.985v-28h-75.004v103.004c41.358 0 75.004-33.646 75.004-75.004z" fill="#ffbcae"/><path d="m360.171 408.985h-61.678v28c0 24.815-20.188 45.004-45.004 45.004-24.815 0-45.003-20.188-45.003-45.004v-28h-61.677c-48.526 0-88.005 39.479-88.005 88.004v15h194.686 194.686v-15c-.001-48.526-39.48-88.004-88.005-88.004z" fill="#69f"/><path d="m360.171 408.985h-61.678v28c0 24.815-20.188 45.004-45.004 45.004v30h194.686v-15c0-48.526-39.479-88.004-88.004-88.004z" fill="#35f"/><path d="m123.108 256.105c0 36.568 29.645 66.213 66.213 66.213 10.017 0 19.903-2.273 28.914-6.647l6.34-3.078c18.257-8.862 39.57-8.862 57.827 0l6.341 3.078c9.011 4.374 18.897 6.647 28.914 6.647 36.568 0 66.213-29.645 66.213-66.213v-60.311h-260.762z" fill="#ffe1d2"/><path d="m253.488 195.793v110.154c9.893 0 19.786 2.215 28.914 6.646l6.341 3.078c9.011 4.374 18.897 6.647 28.914 6.647 36.568 0 66.213-29.645 66.213-66.213v-60.311h-130.382z" fill="#ffcbbc"/><path d="m108.108 180.788v178.947c0 43.705 35.557 79.262 79.261 79.262h132.239c43.704 0 79.261-35.557 79.261-79.262v-178.942l-30-.005v75.317c0 28.239-22.974 51.213-51.213 51.213-7.702 0-15.435-1.777-22.362-5.141l-6.342-3.078c-10.987-5.333-23.251-8.152-35.464-8.152s-24.476 2.819-35.463 8.152l-6.34 3.078c-6.928 3.363-14.661 5.141-22.363 5.141-28.239 0-51.213-22.974-51.213-51.213v-75.317z" fill="#a05f4b"/><path d="m368.87 180.788v75.317c0 28.239-22.974 51.213-51.213 51.213-7.702 0-15.435-1.777-22.362-5.141l-6.342-3.078c-10.987-5.333-23.251-8.152-35.464-8.152v148.05h66.12c43.704 0 79.261-35.557 79.261-79.262v-178.942z" fill="#804040"/><g><path d="m183.519 246.294h30v30.001h-30z" fill="#143d66"/></g><g><path d="m293.459 246.294h30v30.001h-30z" fill="#143d66"/></g><g><path d="m253.489 377.014c-17.802 0-34.537-6.933-47.124-19.52l21.214-21.213c6.92 6.921 16.122 10.732 25.91 10.732s18.99-3.812 25.911-10.732l21.213 21.213c-12.587 12.589-29.323 19.52-47.124 19.52z" fill="#ffcbbc"/></g><g><path d="m293.459 246.294h30v30.001h-30z" fill="#0f244d"/></g><path d="m411.105 0h-42.082v42.082c0 23.204 18.878 42.082 42.082 42.082s42.081-18.877 42.081-42.082-18.878-42.082-42.081-42.082z" fill="#fff5f5"/><path d="m411.105 0h-42.082v42.082c0 23.204 18.878 42.082 42.082 42.082s42.081-18.877 42.081-42.082-18.878-42.082-42.081-42.082z" fill="#ece6f2"/><path d="m253.488 0v97.706h82.091c34.983 0 63.443-28.46 63.443-63.443v-34.263z" fill="#e20f5a"/><path d="m253.488 0v97.706h82.091c34.983 0 63.443-28.46 63.443-63.443v-34.263z" fill="#c21250"/><path d="m310.451 27.353c-13.926-17.383-34.689-27.353-56.963-27.353s-43.036 9.97-56.962 27.353l-100.016 124.833h313.956z" fill="#ff4d4d"/><path d="m310.451 27.353c-13.926-17.383-34.689-27.353-56.963-27.353v152.186h156.978z" fill="#e20f5a"/><path d="m383.869 122.186h-260.761c-24.429 0-44.304 19.875-44.304 44.303 0 24.429 19.875 44.304 44.304 44.304h260.762c24.429 0 44.303-19.875 44.303-44.304-.001-24.428-19.875-44.303-44.304-44.303z" fill="#fff5f5"/><path d="m428.172 166.489c0-24.429-19.875-44.303-44.303-44.303h-130.381v88.607h130.381c24.429 0 44.303-19.875 44.303-44.304z" fill="#ece6f2"/><path d="m300.613 357.495-21.213-21.213c-6.921 6.921-16.123 10.732-25.911 10.732h-.001v30h.001c17.801 0 34.537-6.931 47.124-19.519z" fill="#ffbcae"/></g></svg>