<svg id="Layer_1" enable-background="new 0 0 511.989 511.989" height="512" viewBox="0 0 511.989 511.989" width="512" xmlns="http://www.w3.org/2000/svg"><g><path d="m474.119 298.667c0-9.871-3.048-19.35-8.594-27.256 3.309-9.07 3.798-19.012 1.244-28.544-2.556-9.536-7.951-17.901-15.355-24.103.85-9.618-1.251-19.347-6.186-27.894-6.748-11.688-18.212-19.976-31.452-22.739l-1.516-.316h-312.531l-1.516.316c-13.24 2.764-24.704 11.052-31.452 22.739-4.935 8.547-7.035 18.275-6.186 27.894-7.403 6.2-12.8 14.567-15.355 24.102-2.554 9.533-2.064 19.475 1.244 28.545-5.546 7.906-8.594 17.385-8.594 27.256 0 9.869 3.046 19.345 8.59 27.25-3.312 9.071-3.802 19.015-1.246 28.549 2.554 9.534 7.948 17.899 15.35 24.1-.85 9.62 1.25 19.352 6.186 27.9s12.314 15.233 21.07 19.307c1.242 7.057 4.071 13.788 8.339 19.658l4.492 6.18h310.688l4.492-6.18c4.268-5.87 7.097-12.602 8.339-19.658 8.756-4.073 16.135-10.758 21.07-19.307s7.036-18.28 6.186-27.9c7.401-6.2 12.796-14.565 15.349-24.098 2.556-9.535 2.065-19.479-1.245-28.551 5.543-7.905 8.589-17.38 8.589-27.25z" fill="#804040"/><path d="m474.119 298.667c0-9.871-3.048-19.35-8.594-27.256 3.309-9.07 3.798-19.012 1.244-28.544-2.556-9.536-7.951-17.901-15.355-24.103.85-9.618-1.251-19.347-6.186-27.894-6.748-11.688-18.212-19.976-31.452-22.739l-1.516-.316h-156.266v283.795h155.344l4.492-6.18c4.268-5.87 7.097-12.602 8.339-19.658 8.756-4.073 16.135-10.758 21.07-19.307s7.036-18.28 6.186-27.9c7.401-6.2 12.796-14.565 15.349-24.098 2.556-9.535 2.065-19.479-1.245-28.551 5.544-7.904 8.59-17.379 8.59-27.249z" fill="#4d2917"/><path d="m180.992 408.985v28c0 41.357 33.646 75.004 75.003 75.004s75.004-33.646 75.004-75.004v-28z" fill="#a05f4b"/><path d="m330.999 436.985v-28h-75.004v103.004c41.358 0 75.004-33.646 75.004-75.004z" fill="#804040"/><path d="m362.677 408.985h-61.678v28c0 24.815-20.188 45.004-45.004 45.004-24.815 0-45.003-20.188-45.003-45.004v-28h-61.677c-48.526 0-88.005 39.479-88.005 88.004v15h194.686 194.686v-15c-.001-48.526-39.48-88.004-88.005-88.004z" fill="#e20f5a"/><path d="m362.677 408.985h-61.678v28c0 24.815-20.188 45.004-45.004 45.004v30h194.686v-15c0-48.526-39.479-88.004-88.004-88.004z" fill="#c21250"/><path d="m125.614 182.816v110.8c0 72.007 58.373 130.381 130.381 130.381 72.007 0 130.381-58.373 130.381-130.381v-110.8z" fill="#c9885b"/><path d="m255.994 182.816v241.18c72.007 0 130.381-58.373 130.381-130.381v-110.8h-130.381z" fill="#a05f4b"/><g><path d="m186.024 260.28h30v30.002h-30z" fill="#143d66"/></g><g><path d="m295.965 260.28h30v30.002h-30z" fill="#143d66"/></g><g><path d="m255.994 378.762c-17.801 0-34.536-6.933-47.123-19.52l21.213-21.213c6.921 6.921 16.123 10.732 25.91 10.732 9.788 0 18.99-3.812 25.911-10.732l21.213 21.213c-12.587 12.588-29.323 19.52-47.124 19.52z" fill="#a05f4b"/></g><g><path d="m295.965 260.28h30v30.002h-30z" fill="#0f244d"/></g><path d="m413.611 0h-42.082v42.082c0 23.204 18.878 42.082 42.082 42.082s42.081-18.877 42.081-42.082-18.878-42.082-42.081-42.082z" fill="#fff5f5"/><path d="m413.611 0h-42.082v42.082c0 23.204 18.878 42.082 42.082 42.082s42.081-18.877 42.081-42.082-18.878-42.082-42.081-42.082z" fill="#ece6f2"/><path d="m255.994 0v97.706h82.091c34.983 0 63.443-28.46 63.443-63.443v-34.263z" fill="#e20f5a"/><path d="m255.994 0v97.706h82.091c34.983 0 63.443-28.46 63.443-63.443v-34.263z" fill="#c21250"/><path d="m312.957 27.353c-13.926-17.383-34.689-27.353-56.963-27.353s-43.036 9.97-56.962 27.353l-100.016 124.833h313.956z" fill="#ff4d4d"/><path d="m312.957 27.353c-13.926-17.383-34.689-27.353-56.963-27.353v152.186h156.978z" fill="#e20f5a"/><path d="m386.375 122.186h-260.761c-24.429 0-44.304 19.875-44.304 44.303 0 24.429 19.875 44.304 44.304 44.304h260.762c24.429 0 44.303-19.875 44.303-44.304 0-24.428-19.875-44.303-44.304-44.303z" fill="#fff5f5"/><path d="m430.679 166.489c0-24.429-19.875-44.303-44.303-44.303h-130.382v88.607h130.381c24.429 0 44.304-19.875 44.304-44.304z" fill="#ece6f2"/><path d="m281.905 338.03c-6.921 6.921-16.123 10.732-25.911 10.732v30c17.801 0 34.537-6.933 47.124-19.52z" fill="#804040"/></g></svg>