<svg id="Layer_1" enable-background="new 0 0 511.998 511.998" height="512" viewBox="0 0 511.998 511.998" width="512" xmlns="http://www.w3.org/2000/svg"><g><path d="m395.653 355.922-3.6-2.198h-272.108l-3.6 2.198c-28.191 17.214-45.022 47.188-45.022 80.181v75.896h369.352v-75.896c-.001-32.993-16.831-62.967-45.022-80.181z" fill="#ff884d"/><path d="m440.674 436.103c0-32.992-16.83-62.967-45.021-80.181l-3.6-2.198h-136.054v158.274h184.675z" fill="#ff4d4d"/><g><path d="m240.999 418.085h30v93.913h-30z" fill="#ff4d4d"/></g><path d="m255.999 418.085h15v93.913h-15z" fill="#e20f5a"/><g><path d="m131.327 463.087h30v48.911h-30z" fill="#ff4d4d"/></g><g><path d="m350.671 463.087h30v48.911h-30z" fill="#ff4d4d"/></g><path d="m472.542 216.542c0-6.525-1.569-12.869-4.522-18.55 1.921-6.106 2.365-12.625 1.232-19.05-1.133-6.427-3.779-12.402-7.674-17.484.831-6.348.137-12.846-2.096-18.978-2.232-6.133-5.876-11.557-10.593-15.884-.283-6.396-2.096-12.674-5.358-18.323-3.263-5.653-7.794-10.362-13.191-13.807-1.39-6.248-4.265-12.116-8.46-17.116-4.195-4.998-9.475-8.849-15.387-11.303-2.454-5.913-6.305-11.193-11.303-15.386-4.968-4.169-10.854-7.052-17.11-8.451-3.444-5.401-8.154-9.935-13.809-13.198-5.599-3.233-11.899-5.071-18.325-5.358-4.327-4.717-9.752-8.362-15.886-10.596-4.438-1.615-9.068-2.434-13.764-2.434-1.753 0-3.493.112-5.215.337-5.081-3.892-11.054-6.538-17.479-7.671-6.385-1.125-12.971-.683-19.054 1.231-5.68-2.952-12.024-4.521-18.549-4.521s-12.869 1.569-18.549 4.521c-6.085-1.914-12.674-2.355-19.053-1.231-6.426 1.134-12.399 3.78-17.48 7.673-6.334-.826-12.888-.121-18.979 2.097-6.133 2.232-11.558 5.877-15.886 10.595-6.425.288-12.725 2.125-18.323 5.357-5.654 3.265-10.365 7.799-13.81 13.199-6.256 1.398-12.143 4.282-17.111 8.451-4.998 4.195-8.849 9.475-11.303 15.387-5.913 2.454-11.193 6.305-15.386 11.303-4.195 4.999-7.07 10.867-8.46 17.116-5.397 3.443-9.929 8.153-13.19 13.804-3.264 5.651-5.076 11.93-5.359 18.325-4.716 4.328-8.36 9.752-10.594 15.885-2.231 6.132-2.927 12.63-2.095 18.978-3.894 5.08-6.54 11.055-7.674 17.48-1.133 6.427-.688 12.947 1.232 19.054-2.952 5.681-4.522 12.024-4.522 18.55s1.57 12.869 4.522 18.55c-1.921 6.106-2.365 12.626-1.232 19.052 1.134 6.427 3.781 12.401 7.674 17.482-.831 6.348-.137 12.846 2.096 18.978 2.232 6.133 5.877 11.558 10.594 15.885.283 6.395 2.096 12.673 5.358 18.324 3.263 5.652 7.794 10.361 13.19 13.804 1.391 6.248 4.266 12.116 8.46 17.117 4.194 4.998 9.475 8.849 15.387 11.303 2.454 5.912 6.305 11.191 11.303 15.386 4.968 4.169 10.854 7.053 17.11 8.451 3.444 5.401 8.155 9.936 13.81 13.199 5.599 3.232 11.899 5.07 18.324 5.357 4.327 4.717 9.752 8.362 15.886 10.596 6.094 2.219 12.646 2.925 18.979 2.097 5.081 3.893 11.056 6.539 17.48 7.672 6.382 1.125 12.97.683 19.054-1.231 5.681 2.952 12.023 4.521 18.549 4.521s12.868-1.569 18.549-4.521c6.084 1.913 12.673 2.356 19.053 1.231 6.426-1.134 12.399-3.78 17.48-7.673 1.722.225 3.462.338 5.215.338 4.697 0 9.328-.819 13.765-2.435 6.134-2.232 11.559-5.877 15.887-10.595 6.425-.288 12.725-2.125 18.322-5.357 5.655-3.265 10.366-7.799 13.81-13.2 6.256-1.398 12.143-4.281 17.111-8.45 4.998-4.195 8.849-9.475 11.303-15.387 5.913-2.454 11.192-6.305 15.386-11.303 4.194-4.999 7.07-10.867 8.46-17.116 5.397-3.443 9.928-8.152 13.19-13.803 3.263-5.651 5.076-11.931 5.359-18.326 4.718-4.328 8.361-9.752 10.594-15.885 2.231-6.132 2.926-12.629 2.095-18.977 3.894-5.081 6.541-11.056 7.674-17.481 1.133-6.427.688-12.946-1.231-19.054 2.949-5.682 4.519-12.025 4.519-18.551z" fill="#fff5f5"/><path d="m472.542 216.542c0-6.525-1.569-12.869-4.522-18.55 1.921-6.106 2.365-12.625 1.232-19.05-1.133-6.427-3.779-12.402-7.674-17.484.831-6.348.137-12.846-2.096-18.978-2.232-6.133-5.876-11.557-10.593-15.884-.283-6.396-2.096-12.674-5.358-18.323-3.263-5.653-7.794-10.362-13.191-13.807-1.39-6.248-4.265-12.116-8.46-17.116-4.195-4.998-9.475-8.849-15.387-11.303-2.454-5.913-6.305-11.193-11.303-15.386-4.968-4.169-10.854-7.052-17.11-8.451-3.444-5.401-8.154-9.935-13.809-13.198-5.599-3.233-11.899-5.071-18.325-5.358-4.327-4.717-9.752-8.362-15.886-10.596-4.438-1.615-9.068-2.434-13.764-2.434-1.753 0-3.493.112-5.215.337-5.081-3.892-11.054-6.538-17.479-7.671-6.385-1.125-12.971-.683-19.054 1.231-5.68-2.952-12.024-4.521-18.549-4.521v433.085c6.525 0 12.868-1.569 18.549-4.521 6.084 1.913 12.673 2.356 19.053 1.231 6.426-1.134 12.399-3.78 17.48-7.673 1.722.225 3.462.338 5.215.338 4.697 0 9.328-.819 13.765-2.435 6.134-2.232 11.559-5.877 15.887-10.595 6.425-.288 12.725-2.125 18.322-5.357 5.655-3.265 10.366-7.799 13.81-13.2 6.256-1.398 12.143-4.281 17.111-8.45 4.998-4.195 8.849-9.475 11.303-15.387 5.913-2.454 11.192-6.305 15.386-11.303 4.194-4.999 7.07-10.867 8.46-17.116 5.397-3.443 9.928-8.152 13.19-13.803 3.263-5.651 5.076-11.931 5.359-18.326 4.718-4.328 8.361-9.752 10.594-15.885 2.231-6.132 2.926-12.629 2.095-18.977 3.894-5.081 6.541-11.056 7.674-17.481 1.133-6.427.688-12.946-1.231-19.054 2.951-5.68 4.521-12.023 4.521-18.549z" fill="#ece6f2"/><g><path d="m350.671 463.087h30v48.911h-30z" fill="#e20f5a"/></g><path d="m356.208 106.04-2.215 1.846c-35.208 29.356-79.843 45.523-125.683 45.523h-104.626c-1.488 6.158-2.297 12.579-2.297 19.188v64.59c0 74.225 60.387 134.611 134.612 134.611s134.612-60.387 134.612-134.611v-64.59c0-27.431-13.603-51.731-34.403-66.557z" fill="#ffe1d2"/><path d="m356.208 106.04-2.215 1.846c-28.063 23.399-62.117 38.407-97.995 43.54v220.373c74.225 0 134.612-60.387 134.612-134.611v-64.59c.001-27.432-13.602-51.732-34.402-66.558z" fill="#ffcbbc"/><g><path d="m186.029 220.833h30v30.002h-30z" fill="#143d66"/></g><g><path d="m295.969 220.833h30v30.002h-30z" fill="#143d66"/></g><g><path d="m255.999 324.314c-17.802 0-34.537-6.933-47.124-19.52l21.214-21.213c6.92 6.921 16.122 10.732 25.91 10.732s18.989-3.812 25.911-10.732l21.213 21.213c-12.587 12.588-29.323 19.52-47.124 19.52z" fill="#ffcbbc"/></g><path d="m373.205 130.928 3.901-3.252c-14.633-22.141-39.734-36.785-68.202-36.785h-105.809c-45.054 0-81.708 36.653-81.708 81.707v10.812h106.924c52.847 0 104.305-18.639 144.894-52.482z" fill="#c9885b"/><path d="m377.106 127.676c-14.633-22.141-39.734-36.785-68.202-36.785h-52.904v90.798c42.913-5.314 83.752-22.866 117.206-50.761z" fill="#a05f4b"/><g><path d="m295.969 220.833h30v30.002h-30z" fill="#0f244d"/></g><path d="m303.123 304.794-21.213-21.213c-6.921 6.921-16.123 10.732-25.911 10.732v30c17.801.001 34.537-6.931 47.124-19.519z" fill="#ffbcae"/></g></svg>