<svg id="Layer_1" enable-background="new 0 0 511.986 511.986" height="512" viewBox="0 0 511.986 511.986" width="512" xmlns="http://www.w3.org/2000/svg"><g><path d="m180.097 408.981v28c0 41.357 33.646 75.004 75.003 75.004s75.004-33.646 75.004-75.004v-28z" fill="#ffcbbc"/><path d="m330.105 436.982v-28h-74.111v102.982c40.945-.483 74.111-33.924 74.111-74.982z" fill="#ffbcae"/><path d="m149.312 408.978c-48.526 0-88.004 39.479-88.004 88.005v15h103.004v-103.005z" fill="#e20f5a"/><path d="m450.678 496.982c0-48.526-39.479-88.005-88.004-88.005h-15v103.005h103.004z" fill="#e20f5a"/><path d="m450.678 496.982c0-48.526-39.479-88.005-88.004-88.005h-15v103.005h103.004z" fill="#c21250"/><path d="m361.782 408.981h-61.678v28c0 24.815-20.188 45.004-45.004 45.004-24.815 0-45.003-20.188-45.003-45.004v-28h-61.677c-4.802 0-9.513.393-14.108 1.136v101.868h120.789 122.573v-101.562c-5.156-.945-10.467-1.442-15.892-1.442z" fill="#ff4d4d"/><path d="m377.674 410.423c-5.156-.944-10.467-1.441-15.892-1.441h-61.678v28c0 24.516-19.708 44.502-44.111 44.981v30.023h121.681z" fill="#e20f5a"/><path d="m255.644 496.996c.182 0 .362-.012.543-.014h-1.087c.182.003.362.014.544.014z"/><path d="m171.032 180.79 8.228 6.856c33.388 27.823 75.711 43.146 119.174 43.146h102.939v62.819c0 80.163-65.218 145.381-145.381 145.381s-145.38-65.218-145.38-145.381v-112.821z" fill="#ffe1d2"/><path d="m298.433 230.793c-14.42 0-28.713-1.697-42.597-4.967v213.166c.052 0 .103.002.155.002 80.164 0 145.381-65.218 145.381-145.381v-62.819h-102.939z" fill="#ffcbbc"/><g><path d="m295.962 286.293h30v30.002h-30z" fill="#143d66"/></g><g><path d="m186.022 286.293h30v30.002h-30z" fill="#143d66"/></g><g><path d="m255.992 389.774c17.801 0 34.537-6.932 47.124-19.52l-21.213-21.213c-6.921 6.921-16.123 10.732-25.911 10.732s-18.99-3.812-25.911-10.732l-21.213 21.213c12.587 12.588 29.323 19.52 47.124 19.52z" fill="#ffcbbc"/></g><path d="m401.373 180.79v80.003h-102.94c-50.467 0-99.611-17.792-138.379-50.1l-35.883-29.903z" fill="#fd9"/><g><path d="m295.962 286.293h30v30.002h-30z" fill="#0f244d"/></g><path d="m255.992 389.774c17.801 0 34.537-6.932 47.124-19.52l-21.213-21.213c-6.921 6.921-16.123 10.732-25.911 10.732-.052 0-.104-.003-.156-.004v30c.052.002.104.005.156.005z" fill="#ffbcae"/><path d="m401.373 260.793v-80.003h-145.537v75.742c13.953 2.812 28.221 4.261 42.597 4.261z" fill="#fb3"/><path d="m355.999 0c-28.406 0-51.517 23.11-51.517 51.517 0 .778.021 1.552.056 2.321l.347 7.799 63.605 40.471 7.209-2.985c19.328-8.004 31.816-26.69 31.816-47.605.001-28.408-23.109-51.518-51.516-51.518z" fill="#ece6f2"/><path d="m355.999 0c-28.406 0-51.517 23.11-51.517 51.517 0 .778.021 1.552.056 2.321l.347 7.799 63.605 40.471 7.209-2.985c19.328-8.004 31.816-26.69 31.816-47.605.001-28.408-23.109-51.518-51.516-51.518z" fill="#d7cfe6"/><path d="m155.987 0c-28.407 0-51.517 23.11-51.517 51.517 0 20.914 12.488 39.601 31.815 47.605l7.209 2.985 63.606-40.471.347-7.799c.034-.77.056-1.543.056-2.321 0-28.406-23.11-51.516-51.516-51.516z" fill="#ece6f2"/><path d="m302.932 36.517h-93.878c-54.28 0-98.441 44.16-98.441 98.441v68.829h290.762v-68.829c-.001-54.281-44.162-98.441-98.443-98.441z" fill="#fff5f5"/><path d="m401.374 134.958c0-54.281-44.161-98.441-98.442-98.441h-47.096v167.271h145.538z" fill="#ece6f2"/><g><path d="m240.993 120.152h30v30.002h-30z" fill="#143d66"/></g><g><path d="m190.99 90.15h30v30.002h-30z" fill="#143d66"/></g><g><path d="m290.996 90.15h30v30.002h-30z" fill="#143d66"/></g><g><path d="m290.996 90.15h30v30.002h-30z" fill="#0f244d"/></g><path d="m255.836 120.152h15.157v30.002h-15.157z" fill="#0f244d"/></g></svg>