<svg id="Layer_1" enable-background="new 0 0 512 512" height="512" viewBox="0 0 512 512" width="512" xmlns="http://www.w3.org/2000/svg"><g><path d="m149.165 408.997c-48.526 0-88.005 39.479-88.005 88.004v15h105.005v-103.004z" fill="#e20f5a"/><path d="m362.527 408.997h-17v103.003h105.004v-15c0-48.525-39.478-88.003-88.004-88.003z" fill="#e20f5a"/><path d="m362.527 408.997h-17v103.003h105.004v-15c0-48.525-39.478-88.003-88.004-88.003z" fill="#c21250"/><path d="m359.02 512v-103.003h-35.394l-67.78 67.779-67.78-67.779h-35.057v103.003z" fill="#b0e997"/><path d="m359.02 408.997h-35.394l-67.78 67.779-.004-.005v35.229h103.178z" fill="#21cab1"/><path d="m256.014 497.008 88.013-88.011h-176.026z" fill="#ffcbbc"/><path d="m256.014 497.009 88.013-88.012h-88.185v87.839z" fill="#ffbcae"/><path d="m371.771 240.453-4.773 98.219h15.747c39.969 0 72.486-32.518 72.486-72.486v-48.916z" fill="#ffcbbc"/><path d="m371.771 240.453-4.773 98.219h15.747c39.969 0 72.486-32.518 72.486-72.486v-48.916z" fill="#ffbcae"/><path d="m139.921 240.453-83.46-23.183v48.915c0 39.969 32.517 72.486 72.486 72.486h15.747z" fill="#ffcbbc"/><path d="m125.465 256.105c0 36.568 29.645 66.213 66.213 66.213 10.017 0 19.903-2.273 28.914-6.647l6.34-3.078c18.257-8.862 39.57-8.862 57.827 0l6.341 3.078c9.011 4.374 18.897 6.647 28.914 6.647 36.568 0 66.213-29.645 66.213-66.213v-60.311h-260.761z" fill="#ffe1d2"/><path d="m255.846 195.793v110.154c9.893 0 19.786 2.215 28.914 6.646l6.341 3.078c9.011 4.374 18.897 6.647 28.914 6.647 36.568 0 66.213-29.645 66.213-66.213v-60.311h-130.382z" fill="#ffcbbc"/><path d="m110.466 180.788v178.947c0 43.705 35.557 79.262 79.261 79.262h132.239c43.704 0 79.261-35.557 79.261-79.262v-178.942l-30-.005v75.317c0 28.239-22.974 51.213-51.213 51.213-7.702 0-15.435-1.777-22.362-5.141l-6.342-3.078c-10.987-5.333-23.251-8.152-35.464-8.152s-24.476 2.819-35.463 8.152l-6.34 3.078c-6.928 3.363-14.661 5.141-22.363 5.141-28.239 0-51.213-22.974-51.213-51.213v-75.317z" fill="#ece6f2"/><path d="m371.227 180.788v75.317c0 28.239-22.974 51.213-51.213 51.213-7.702 0-15.435-1.777-22.362-5.141l-6.342-3.078c-10.987-5.333-23.251-8.152-35.464-8.152v148.05h66.12c43.704 0 79.261-35.557 79.261-79.262v-178.942z" fill="#d7cfe6"/><g><path d="m185.877 246.294h30v30.001h-30z" fill="#143d66"/></g><g><path d="m295.817 246.294h30v30.001h-30z" fill="#143d66"/></g><g><path d="m255.846 377.014c-17.802 0-34.537-6.933-47.124-19.52l21.214-21.213c6.92 6.921 16.122 10.732 25.91 10.732s18.99-3.812 25.911-10.732l21.213 21.213c-12.587 12.589-29.322 19.52-47.124 19.52z" fill="#ffcbbc"/></g><g><path d="m295.817 246.294h30v30.001h-30z" fill="#0f244d"/></g><path d="m302.97 357.495-21.213-21.213c-6.921 6.921-16.123 10.732-25.911 10.732h-.001v30h.001c17.802 0 34.537-6.931 47.124-19.519z" fill="#ffbcae"/><path d="m413.458 0h-42.082v42.082c0 23.204 18.878 42.082 42.082 42.082s42.081-18.877 42.081-42.082-18.877-42.082-42.081-42.082z" fill="#fd9"/><path d="m413.458 0h-42.082v42.082c0 23.204 18.878 42.082 42.082 42.082s42.081-18.877 42.081-42.082-18.877-42.082-42.081-42.082z" fill="#fb3"/><path d="m255.842 0v97.706h82.091c34.983 0 63.443-28.46 63.443-63.443v-34.263z" fill="#21cab1"/><path d="m255.842 0v97.706h82.091c34.983 0 63.443-28.46 63.443-63.443v-34.263z" fill="#149397"/><path d="m312.805 27.353c-13.927-17.383-34.689-27.353-56.963-27.353s-43.036 9.97-56.962 27.353l-100.016 124.833h313.956z" fill="#b0e997"/><path d="m312.805 27.353c-13.927-17.383-34.689-27.353-56.963-27.353v152.186h156.978z" fill="#21cab1"/><path d="m375.609 123.104-39.921-9.98-39.922 9.98-39.921-9.98-39.921 9.98-39.921-9.98-39.921 9.98-54.921-13.73v57.116c0 24.429 19.875 44.304 44.303 44.304h260.762c24.429 0 44.304-19.875 44.304-44.304v-57.116z" fill="#e20f5a"/><path d="m375.609 123.104-39.921-9.98-39.922 9.98-39.921-9.98-.004.001v97.669h130.385c24.429 0 44.304-19.875 44.304-44.304v-57.116z" fill="#c21250"/></g></svg>