<svg id="Layer_1" enable-background="new 0 0 512 512" height="512" viewBox="0 0 512 512" width="512" xmlns="http://www.w3.org/2000/svg"><g><path d="m371.771 240.453-4.773 98.219h15.747c39.969 0 72.486-32.518 72.486-72.486v-48.916z" fill="#ffcbbc"/><path d="m371.771 240.453-4.773 98.219h15.747c39.969 0 72.486-32.518 72.486-72.486v-48.916z" fill="#ffbcae"/><path d="m139.921 240.453-83.46-23.183v48.915c0 39.969 32.517 72.486 72.486 72.486h15.747z" fill="#ffcbbc"/><path d="m432.387 337.22c-20.094-22.936-31.16-51.441-31.16-80.265v-76.162h-290.608v76.162c0 28.824-11.066 57.329-31.159 80.265-10.045 11.467-15.437 26.189-15.183 41.456.555 33.254 28.416 60.309 62.105 60.309h259.082c33.689 0 61.55-27.055 62.104-60.309.255-15.267-5.137-29.99-15.181-41.456z" fill="#ece6f2"/><path d="m432.387 337.22c-20.094-22.936-31.16-51.441-31.16-80.265v-76.162h-145.213v258.191h129.45c33.689 0 61.55-27.055 62.104-60.309.255-15.266-5.137-29.989-15.181-41.455z" fill="#d7cfe6"/><path d="m149.165 408.997c-48.526 0-88.005 39.479-88.005 88.004v15h105.005v-103.004z" fill="#e20f5a"/><path d="m362.527 408.997h-17v103.003h105.004v-15c0-48.525-39.478-88.003-88.004-88.003z" fill="#e20f5a"/><path d="m362.527 408.997h-17v103.003h105.004v-15c0-48.525-39.478-88.003-88.004-88.003z" fill="#c21250"/><path d="m359.02 512v-103.003h-35.394l-67.78 67.779-67.78-67.779h-35.057v103.003z" fill="#b0e997"/><path d="m359.02 408.997h-35.394l-67.78 67.779-.004-.005v35.229h103.178z" fill="#21cab1"/><path d="m256.014 497.008 88.013-88.011h-176.026z" fill="#ffcbbc"/><path d="m256.014 497.009 88.013-88.012h-88.185v87.839z" fill="#ffbcae"/><path d="m305.845 245.797c-27.616 0-50.003-22.387-50.003-50.003 0 27.616-22.387 50.003-50.003 50.003h-80.374v62.819c0 72.007 58.373 130.381 130.381 130.381 72.007 0 130.381-58.374 130.381-130.381v-62.819z" fill="#ffe1d2"/><path d="m305.845 245.797c-26.275 0-47.801-20.271-49.831-46.024v239.221c71.93-.091 130.213-58.427 130.213-130.378v-62.819z" fill="#ffcbbc"/><g><path d="m185.876 286.296h30v30.002h-30z" fill="#143d66"/></g><g><path d="m295.815 286.296h30v30.002h-30z" fill="#143d66"/></g><g><path d="m255.846 389.777c-17.801 0-34.537-6.932-47.124-19.52l21.213-21.213c6.921 6.921 16.123 10.732 25.911 10.732s18.99-3.812 25.911-10.732l21.213 21.213c-12.587 12.589-29.324 19.52-47.124 19.52z" fill="#ffcbbc"/></g><path d="m110.619 180.793v76.162h95.22c20.086 0 38.07-9.161 50.003-23.52 11.933 14.359 29.917 23.52 50.003 23.52h95.382v-76.162z" fill="#ece6f2"/><path d="m256.014 180.793v52.838c11.933 14.244 29.839 23.324 49.831 23.324h95.382v-76.162z" fill="#d7cfe6"/><g><path d="m295.815 286.296h30v30.002h-30z" fill="#0f244d"/></g><path d="m413.458 0h-42.082v42.082c0 23.204 18.878 42.082 42.082 42.082s42.081-18.877 42.081-42.082-18.877-42.082-42.081-42.082z" fill="#fd9"/><path d="m413.458 0h-42.082v42.082c0 23.204 18.878 42.082 42.082 42.082s42.081-18.877 42.081-42.082-18.877-42.082-42.081-42.082z" fill="#fb3"/><path d="m255.842 0v97.706h82.091c34.983 0 63.443-28.46 63.443-63.443v-34.263z" fill="#21cab1"/><path d="m255.842 0v97.706h82.091c34.983 0 63.443-28.46 63.443-63.443v-34.263z" fill="#149397"/><path d="m312.805 27.353c-13.927-17.383-34.689-27.353-56.963-27.353s-43.036 9.97-56.962 27.353l-100.016 124.833h313.956z" fill="#b0e997"/><path d="m312.805 27.353c-13.927-17.383-34.689-27.353-56.963-27.353v152.186h156.978z" fill="#21cab1"/><path d="m375.609 123.104-39.921-9.98-39.922 9.98-39.921-9.98-39.921 9.98-39.921-9.98-39.921 9.98-54.921-13.73v57.116c0 24.429 19.875 44.304 44.303 44.304h260.762c24.429 0 44.304-19.875 44.304-44.304v-57.116z" fill="#e20f5a"/><path d="m375.609 123.104-39.921-9.98-39.922 9.98-39.921-9.98-.004.001v97.669h130.385c24.429 0 44.304-19.875 44.304-44.304v-57.116z" fill="#c21250"/><path d="m302.97 370.258-21.213-21.213c-6.881 6.881-16.018 10.685-25.743 10.729v30c17.738-.044 34.409-6.968 46.956-19.516z" fill="#ffbcae"/></g></svg>