<svg id="Layer_1" enable-background="new 0 0 511.992 511.992" height="512" viewBox="0 0 511.992 511.992" width="512" xmlns="http://www.w3.org/2000/svg"><g><path d="m362.666 408.988h-213.362c-48.526 0-88.005 39.479-88.005 88.004v15h389.371v-15c0-48.525-39.478-88.004-88.004-88.004z" fill="#b0e997"/><path d="m450.67 496.992c0-48.525-39.479-88.004-88.005-88.004h-106.67v103.004h194.675z" fill="#21cab1"/><g><path d="m240.985 408.988h30v103.004h-30z" fill="#21cab1"/></g><path d="m255.996 408.988h14.989v103.004h-14.989z" fill="#149397"/><path d="m489.087 164.939v-7.773l-152.658-107.725-30.139 22.325c-3.079 2.28-6.731 3.486-10.563 3.486-3.922 0-7.644-1.258-10.763-3.638-8.271-6.311-18.556-9.785-28.96-9.785s-20.688 3.475-28.96 9.785l-.096.073c-3.1 2.335-6.789 3.569-10.676 3.569-3.828 0-7.479-1.204-10.557-3.482l-30.163-22.327-152.647 107.719v7.773c0 28.726 19.24 53.043 45.51 60.743-2.14 4.576-5.45 8.593-9.688 11.583l-35.822 25.278v7.773c0 28.727 19.24 53.043 45.51 60.742-2.14 4.576-5.45 8.594-9.688 11.584l-35.822 25.278v7.773c0 34.895 28.389 63.283 63.283 63.283h339.616c34.895 0 63.283-28.389 63.283-63.283v-7.773l-35.822-25.278c-4.237-2.99-7.548-7.008-9.688-11.584 26.27-7.699 45.51-32.016 45.51-60.742v-7.773l-35.822-25.278c-4.237-2.99-7.548-7.008-9.688-11.584 26.27-7.699 45.51-32.015 45.51-60.742z" fill="#149397"/><path d="m489.087 164.939v-7.773l-152.658-107.725-30.139 22.325c-3.079 2.28-6.731 3.486-10.563 3.486-3.922 0-7.644-1.258-10.763-3.638-8.271-6.311-18.556-9.785-28.96-9.785-.003 0-.006 0-.009 0v377.148h169.809c34.895 0 63.283-28.389 63.283-63.283v-7.773l-35.822-25.278c-4.237-2.99-7.548-7.008-9.688-11.584 26.27-7.699 45.51-32.016 45.51-60.742v-7.773l-35.822-25.278c-4.237-2.99-7.548-7.008-9.688-11.584 26.27-7.7 45.51-32.016 45.51-60.743z" fill="#12627c"/><path d="m240.996 162.248c0 26.202-21.316 47.52-47.519 47.52h-72.104v64.59c0 74.225 60.387 134.611 134.611 134.611 74.226 0 134.612-60.387 134.612-134.611v-64.59h-72.082c-26.202 0-47.52-21.317-47.52-47.52z" fill="#ffe1d2"/><path d="m318.515 209.768c-26.202 0-47.52-21.317-47.52-47.52h-15v246.721c74.221-.006 134.602-60.39 134.602-134.611v-64.59z" fill="#ffcbbc"/><g><path d="m186.015 256.267h30v30.002h-30z" fill="#143d66"/></g><g><path d="m295.955 256.267h30v30.002h-30z" fill="#143d66"/></g><g><path d="m255.985 359.748c-17.801 0-34.536-6.932-47.124-19.518l21.213-21.215c6.921 6.921 16.123 10.732 25.911 10.732s18.99-3.812 25.911-10.732l21.213 21.215c-12.588 12.586-29.323 19.518-47.124 19.518z" fill="#ffcbbc"/></g><path d="m308.889 128.061h-105.808c-45.054 0-81.707 36.653-81.707 81.707v15.812h72.104c25.632 0 48.398-12.505 62.519-31.735 14.12 19.23 36.887 31.735 62.52 31.735h72.082v-15.812c-.002-45.054-36.656-81.707-81.71-81.707z" fill="#804040"/><g><path d="m295.955 256.267h30v30.002h-30z" fill="#0f244d"/></g><path d="m308.889 128.061h-52.894v65.784c14.12 19.23 36.887 31.735 62.52 31.735h72.082v-15.812c0-45.054-36.654-81.707-81.708-81.707z" fill="#4d2917"/><path d="m281.896 319.015c-6.918 6.918-16.116 10.729-25.9 10.732v30c17.797-.003 34.528-6.934 47.113-19.517z" fill="#ffbcae"/><path d="m266.366 0h-20.739l-95.888 67.664 38.129 28.225c8.281 6.129 18.104 9.369 28.406 9.369h.001c10.403 0 20.688-3.476 28.959-9.785l.099-.075c3.1-2.335 6.787-3.567 10.672-3.567 3.923 0 7.645 1.257 10.763 3.637 8.271 6.311 18.557 9.786 28.961 9.786 10.309 0 20.136-3.244 28.42-9.38l38.093-28.218z" fill="#fff5f5"/><path d="m266.767 95.467c8.271 6.311 18.557 9.786 28.961 9.786 10.309 0 20.136-3.244 28.42-9.38l38.093-28.218-95.875-67.655h-10.37v91.831h.009c3.922-.001 7.644 1.256 10.762 3.636z" fill="#ece6f2"/></g></svg>