<svg id="Layer_1" enable-background="new 0 0 512.004 512.004" height="512" viewBox="0 0 512.004 512.004" width="512" xmlns="http://www.w3.org/2000/svg"><g><path d="m422.221 347.119c-15.491-34.328-23.346-70.829-23.346-108.488v-57.84h-290.762v57.84c0 37.661-7.854 74.162-23.346 108.488-17.252 38.231-25.999 78.884-25.999 120.828v44.039h389.452v-44.039c.001-41.945-8.747-82.598-25.999-120.828z" fill="#fd9"/><path d="m448.221 467.947c0-41.944-8.748-82.598-26-120.828-15.491-34.328-23.346-70.829-23.346-108.488v-57.84h-145.336v331.195h194.682z" fill="#fb3"/><path d="m123.158 195.79v77.827c0 46.494 24.341 87.297 60.971 110.38h138.821c36.629-23.082 60.97-63.885 60.97-110.38v-77.827z" fill="#ffe1d2"/><path d="m253.539 195.791v188.207h69.411c36.629-23.082 60.97-63.885 60.97-110.379v-77.827h-130.381z" fill="#ffcbbc"/><g><path d="m183.568 233.284h30v30.002h-30z" fill="#143d66"/></g><g><path d="m293.509 233.284h30v30.002h-30z" fill="#143d66"/></g><g><path d="m253.538 340.599c-17.801 0-34.536-6.932-47.123-19.52l21.213-21.213c6.921 6.921 16.123 10.732 25.91 10.732 9.788 0 18.99-3.812 25.911-10.732l21.213 21.213c-12.587 12.588-29.323 19.52-47.124 19.52z" fill="#ffcbbc"/></g><path d="m363.245 406.05h-20.771v-37.053h-177.825v37.053h-20.817c-47.131 1.602-84.979 40.44-84.979 87.953v18.001h389.372v-18.001c0-47.512-37.85-86.351-84.98-87.953z" fill="#69f"/><g><path d="m293.509 233.284h30v30.002h-30z" fill="#0f244d"/></g><path d="m411.155 0h-42.082v42.082c0 23.204 18.878 42.082 42.082 42.082s42.081-18.877 42.081-42.082-18.878-42.082-42.081-42.082z" fill="#fff5f5"/><path d="m411.155 0h-42.082v42.082c0 23.204 18.878 42.082 42.082 42.082s42.081-18.877 42.081-42.082-18.878-42.082-42.081-42.082z" fill="#ece6f2"/><path d="m253.539 0v97.706h82.091c34.983 0 63.443-28.46 63.443-63.443v-34.263z" fill="#e20f5a"/><path d="m253.539 0v97.706h82.091c34.983 0 63.443-28.46 63.443-63.443v-34.263z" fill="#c21250"/><path d="m310.501 27.353c-13.926-17.383-34.689-27.353-56.962-27.353s-43.036 9.97-56.962 27.353l-100.017 124.833h313.956z" fill="#ff4d4d"/><path d="m310.501 27.353c-13.926-17.383-34.689-27.353-56.962-27.353v152.186h156.978z" fill="#e20f5a"/><path d="m383.919 122.186h-260.761c-24.429 0-44.304 19.875-44.304 44.303 0 24.429 19.875 44.304 44.304 44.304h260.762c24.429 0 44.303-19.875 44.303-44.304 0-24.428-19.875-44.303-44.304-44.303z" fill="#fff5f5"/><path d="m428.223 166.489c0-24.429-19.875-44.303-44.303-44.303h-130.381v88.607h130.381c24.428 0 44.303-19.875 44.303-44.304z" fill="#ece6f2"/><path d="m279.449 299.867c-6.921 6.921-16.123 10.732-25.911 10.732v30c17.801 0 34.537-6.932 47.124-19.52z" fill="#ffbcae"/><path d="m448.225 494.003c0-47.513-37.85-86.352-84.979-87.953h-20.771v-37.053h-88.935v143.007h194.686v-18.001z" fill="#35f"/></g></svg>