<svg id="Layer_1" enable-background="new 0 0 511.985 511.985" height="512" viewBox="0 0 511.985 511.985" width="512" xmlns="http://www.w3.org/2000/svg"><g><path d="m455.406 330.458c1.657-5.627 2.494-11.457 2.494-17.423 0-19.627-9.46-38.279-25.306-49.894-13.479-9.881-21.526-25.281-21.526-41.195v-21.936h-47.037l-53.034 238.97h88.514l.4-.021c17.289-.924 33.614-8.235 45.97-20.589 12.355-12.354 19.67-28.678 20.598-45.966.801-14.952-3.096-29.55-11.073-41.946z" fill="#fd9"/><path d="m455.406 330.458c1.657-5.627 2.494-11.457 2.494-17.423 0-19.627-9.46-38.279-25.306-49.894-13.479-9.881-21.526-25.281-21.526-41.195v-21.936h-47.037l-53.034 238.97h88.514l.4-.021c17.289-.924 33.614-8.235 45.97-20.589 12.355-12.354 19.67-28.678 20.598-45.966.801-14.952-3.096-29.55-11.073-41.946z" fill="#fb3"/><path d="m167.344 200.01h-47.038v21.937c0 15.915-8.047 31.314-21.526 41.195-15.845 11.615-25.305 30.267-25.305 49.894 0 5.966.836 11.796 2.494 17.423-7.978 12.396-11.874 26.994-11.072 41.946.927 17.288 8.242 33.612 20.598 45.966 12.355 12.354 28.681 19.665 45.97 20.589l88.913.021z" fill="#fd9"/><path d="m159.006 408.98 103.004 103.005h7.354l103.004-103.005z" fill="#ffcbbc"/><path d="m372.368 408.98h-106.681v103.005h3.677z" fill="#ffbcae"/><path d="m460.372 511.985v-15c0-48.526-39.479-88.005-88.004-88.005h-38.89l-67.791 67.792-67.791-67.792h-38.89c-48.526 0-88.004 39.479-88.004 88.005v15z" fill="#e20f5a"/><path d="m296.188 215.01c-37.013 0-67.018-30.005-67.018-67.019 0 37.013-30.005 67.019-67.018 67.019h-26.845v78.59c0 72.007 58.373 130.381 130.381 130.381 72.007 0 130.381-58.373 130.381-130.381v-78.59z" fill="#ffe1d2"/><path d="m396.068 293.6v-78.59h-99.879c-10.989 0-21.35-2.662-30.502-7.35v216.321c72.007 0 130.381-58.374 130.381-130.381z" fill="#ffcbbc"/><g><path d="m305.657 253.279h30v30.001h-30z" fill="#143d66"/></g><g><path d="m195.717 253.279h30v30.001h-30z" fill="#143d66"/></g><g><path d="m265.687 371.761c-17.801 0-34.537-6.933-47.124-19.52l21.213-21.213c6.921 6.921 16.123 10.732 25.911 10.732s18.99-3.812 25.91-10.732l21.214 21.213c-12.587 12.587-29.322 19.52-47.124 19.52z" fill="#ffcbbc"/></g><path d="m291.049 74.99h-50.725c-66.179 0-120.019 53.84-120.019 120.019v35.001h41.846c27.653 0 52.154-13.757 67.018-34.785 14.865 21.028 39.366 34.785 67.019 34.785h114.879v-35.001c.001-66.179-53.839-120.019-120.018-120.019z" fill="#fd9"/><path d="m58.226 37.76h147.051v97.173h-147.051z" fill="#143d66" transform="matrix(.707 -.707 .707 .707 -22.467 118.453)"/><g><path d="m68.504 105.702h195.206v30h-195.206z" fill="#1f5c99" transform="matrix(.707 -.707 .707 .707 -36.698 152.808)"/></g><g><path d="m305.657 253.279h30v30.001h-30z" fill="#0f244d"/></g><path d="m460.372 496.985c0-48.526-39.479-88.005-88.004-88.005h-38.89l-67.791 67.792v35.213h194.686v-15z" fill="#c21250"/><path d="m291.049 74.99h-25.362v149.129c9.434 3.794 19.727 5.891 30.501 5.891h114.879v-35.001c.001-66.179-53.839-120.019-120.018-120.019z" fill="#fb3"/><path d="m291.597 331.028c-6.92 6.921-16.122 10.732-25.91 10.732v30c17.802 0 34.537-6.933 47.124-19.52z" fill="#ffbcae"/></g></svg>