<svg id="Layer_1" enable-background="new 0 0 511.989 511.989" height="512" viewBox="0 0 511.989 511.989" width="512" xmlns="http://www.w3.org/2000/svg"><g><path d="m402.409 418.469-3.197-1.621h-286.434l-3.197 1.621c-29.775 15.092-48.271 45.179-48.271 78.519v15h389.37v-15c0-33.341-18.496-63.427-48.271-78.519z" fill="#ff884d"/><path d="m450.68 496.987c0-33.34-18.497-63.427-48.271-78.519l-3.197-1.621h-143.217v95.14h194.685z" fill="#ff4d4d"/><path d="m255.838 0c-21.861 0-39.646 17.785-39.646 39.646 0 10.518 4.078 20.427 11.483 27.901l4.407 4.448 47.56-.036 4.399-4.453c7.379-7.47 11.444-17.364 11.444-27.86-.001-21.861-17.786-39.646-39.647-39.646z" fill="#ff4d4d"/><path d="m284.041 67.506c7.379-7.47 11.444-17.364 11.444-27.86 0-21.808-17.701-39.556-39.49-39.642v71.973l23.646-.018z" fill="#e20f5a"/><path d="m255.995 41.144c-109.941 0-199.385 89.443-199.385 199.385v27.178c0 34.475 21.946 65.047 54.609 76.075l18.677 6.306 252.236-.136 18.505-6.212c32.743-10.991 54.742-41.582 54.742-76.12v-27.091c0-109.942-89.443-199.385-199.384-199.385z" fill="#ff884d"/><path d="m255.995 41.144v308.875l126.137-.068 18.505-6.212c32.743-10.991 54.742-41.582 54.742-76.12v-27.091c0-109.941-89.443-199.384-199.384-199.384z" fill="#ff4d4d"/><path d="m304.587 197.011c-18.523 0-33.593-15.069-33.593-33.593h-30c0 18.523-15.07 33.593-33.593 33.593h-90.182c-4.29 13.701-6.605 28.266-6.605 43.363v53.228c0 33.199 11.493 65.672 32.361 91.437l4.502 5.56h217.036l4.502-5.56c20.868-25.765 32.36-58.238 32.36-91.437v-53.228c0-15.096-2.315-29.662-6.605-43.363z" fill="#ffe1d2"/><path d="m394.77 197.011h-90.183c-18.523 0-33.593-15.069-33.593-33.593h-15v227.179h108.518l4.502-5.56c20.868-25.765 32.36-58.238 32.36-91.437v-53.228c.001-15.094-2.313-29.66-6.604-43.361z" fill="#ffcbbc"/><g><path d="m186.025 253.281h30v30.001h-30z" fill="#143d66"/></g><g><path d="m295.965 253.281h30v30.001h-30z" fill="#143d66"/></g><g><path d="m255.995 360.596c-17.802 0-34.537-6.933-47.124-19.52l21.214-21.213c6.92 6.921 16.122 10.732 25.91 10.732s18.989-3.812 25.911-10.732l21.213 21.213c-12.588 12.588-29.324 19.52-47.124 19.52z" fill="#ffcbbc"/></g><path d="m255.995 204.397c11.674 13.823 29.125 22.614 48.593 22.614h96.168c-6.769-73.922-69.103-132.018-144.761-132.018s-137.992 58.096-144.761 132.018h96.167c19.468 0 36.919-8.791 48.594-22.614z" fill="#c9885b"/><path d="m304.587 227.011h96.168c-6.769-73.922-69.103-132.018-144.761-132.018v109.404c11.675 13.823 29.126 22.614 48.593 22.614z" fill="#a05f4b"/><path d="m134.023 425.987h95.389v86.001h-95.389z" fill="#e20f5a"/><path d="m372.967 360.598h-233.945c-26.299 0-47.694 21.396-47.694 47.695s21.396 47.694 47.694 47.694h233.944c26.299 0 47.694-21.396 47.694-47.695s-21.394-47.694-47.693-47.694z" fill="#ff4d4d"/><g><path d="m295.965 253.281h30v30.001h-30z" fill="#0f244d"/></g><path d="m372.967 455.987c26.299 0 47.694-21.396 47.694-47.695s-21.396-47.694-47.694-47.694h-116.972v95.39h116.972z" fill="#e20f5a"/><path d="m303.118 341.076-21.213-21.213c-6.921 6.921-16.123 10.732-25.911 10.732v30c17.801.001 34.537-6.931 47.124-19.519z" fill="#ffbcae"/></g></svg>