<svg id="Layer_1" enable-background="new 0 0 511.994 511.994" height="512" viewBox="0 0 511.994 511.994" width="512" xmlns="http://www.w3.org/2000/svg"><g><path d="m110.626 361.552c0 26.165-21.286 47.451-47.45 47.451v30h385.497v-30c-24.925 0-45.407-19.32-47.294-43.769v-134.431h-30v77.767h-230.596v-77.767h-30.157z" fill="#fd9"/><path d="m448.672 409.003c-24.925 0-45.407-19.32-47.294-43.77v-134.43h-30v77.767h-115.371v130.434h192.666v-30.001z" fill="#fb3"/><path d="m61.321 496.994v15h113.005v-103.005h-25.001c-48.525 0-88.004 39.479-88.004 88.005z" fill="#21cab1"/><path d="m362.688 408.989h-25.001v103.005h113.006v-15c0-48.526-39.479-88.005-88.005-88.005z" fill="#21cab1"/><path d="m362.688 408.989h-25.001v103.005h113.006v-15c0-48.526-39.479-88.005-88.005-88.005z" fill="#149397"/><path d="m149.326 408.989h213.362v103.005h-213.362z" fill="#149397"/><path d="m256.007 408.989h106.681v103.005h-106.681z" fill="#12627c"/><path d="m120.626 36.516h270.761v108.638h-270.761z" fill="#c9885b"/><path d="m256.007 36.516h135.38v108.638h-135.38z" fill="#a05f4b"/><path d="m263.175 230.79c-23.161 0-42.004-18.843-42.004-42.004h-30c0 23.161-18.843 42.004-42.003 42.004h-8.385v151.359c26.604 34.54 68.355 56.84 115.224 56.84 46.955 0 88.775-22.383 115.371-57.032v-151.167z" fill="#ffe1d2"/><path d="m256.007 230.166v208.824c46.955 0 88.775-22.383 115.371-57.032v-151.168h-108.203c-2.444 0-4.837-.222-7.168-.624z" fill="#ffcbbc"/><g><path d="m186.037 286.29h30v30.002h-30z" fill="#143d66"/></g><g><path d="m295.977 286.29h30v30.002h-30z" fill="#143d66"/></g><g><path d="m256.007 389.771c-17.8 0-34.536-6.932-47.124-19.52l21.213-21.213c6.921 6.921 16.124 10.732 25.911 10.732s18.989-3.812 25.911-10.733l21.213 21.215c-12.589 12.588-29.325 19.519-47.124 19.519z" fill="#ffcbbc"/></g><path d="m110.626 188.787v72.003h38.542c23.181 0 43.825-11.022 57.003-28.089 13.179 17.067 33.823 28.089 57.004 28.089h138.212v-72.003z" fill="#fd9"/><path d="m256.007 188.787v71.641c2.359.235 4.749.362 7.168.362h138.212v-72.003z" fill="#fb3"/><path d="m471.518 10.927v6.503c0 14.248-8.888 26.451-21.407 31.379v-48.809h-30v62.002c0 24.803-14.646 47.337-37.311 57.408l-12.504 5.556 12.182 27.416 12.504-5.556c27.813-12.36 47.439-37.424 53.297-66.557 30.163-5.013 53.239-31.276 53.239-62.839v-6.503z" fill="#804040"/><path d="m471.518 10.927v6.503c0 14.248-8.888 26.451-21.407 31.379v-48.809h-30v62.002c0 24.803-14.646 47.337-37.311 57.408l-12.504 5.556 12.182 27.416 12.504-5.556c27.813-12.36 47.439-37.424 53.297-66.557 30.163-5.013 53.239-31.276 53.239-62.839v-6.503z" fill="#4d2917"/><path d="m129.194 119.41c-22.666-10.071-37.311-32.605-37.311-57.408v-62.002h-30v48.809c-12.519-4.929-21.407-17.132-21.407-31.379v-6.503h-30v6.503c0 31.563 23.075 57.826 53.239 62.839 5.858 29.133 25.484 54.198 53.298 66.557l12.504 5.556 12.181-27.416z" fill="#804040"/><path d="m421.389 176.975-10.256-3.419c-11.811-3.937-19.746-14.946-19.746-27.395v-31.01h-270.761v31.01c0 12.448-7.935 23.458-19.745 27.395l-10.256 3.419z" fill="#a05f4b"/><path d="m411.133 173.556c-11.811-3.937-19.746-14.946-19.746-27.395v-31.01h-135.38v61.823h165.382z" fill="#804040"/><g><path d="m417.431 203.786h-323.233c-18.063 0-35.22-7.817-47.071-21.448l-5.835-6.709 22.637-19.688 5.836 6.711c6.152 7.076 15.058 11.134 24.434 11.134h323.233c9.376 0 18.281-4.058 24.433-11.132l5.837-6.712 22.637 19.686-5.836 6.711c-11.852 13.63-29.008 21.447-47.072 21.447z" fill="#c9885b"/></g><g><path d="m295.977 286.29h30v30.002h-30z" fill="#0f244d"/></g><path d="m447.701 155.942-5.837 6.712c-6.151 7.074-15.057 11.132-24.433 11.132h-161.424v30h161.424c18.063 0 35.22-7.817 47.07-21.447l5.836-6.711z" fill="#a05f4b"/><path d="m281.917 349.038c-6.922 6.922-16.124 10.733-25.911 10.733v30c17.799 0 34.535-6.932 47.124-19.519z" fill="#ffbcae"/></g></svg>