<svg id="Layer_1" enable-background="new 0 0 511.99 511.99" height="512" viewBox="0 0 511.99 511.99" width="512" xmlns="http://www.w3.org/2000/svg"><g><path d="m146.808 408.985c-48.526 0-88.005 39.479-88.005 88.004v15h89.679v-103.004z" fill="#fff5f5"/><path d="m448.175 496.99c0-48.526-39.479-88.004-88.005-88.004h-1.674v103.004h89.679z" fill="#fff5f5"/><path d="m448.175 496.99c0-48.526-39.479-88.004-88.005-88.004h-1.674v103.004h89.679z" fill="#ece6f2"/><path d="m360.17 408.985h-213.362c-9.906 0-19.433 1.646-28.326 4.678v98.327h270.015v-98.327c-8.893-3.031-18.421-4.678-28.327-4.678z" fill="#ff4d4d"/><path d="m388.496 511.99v-98.327c-8.893-3.031-18.421-4.678-28.326-4.678h-106.68v103.005z" fill="#e20f5a"/><g><path d="m238.49 460.488h30v31.502h-30z" fill="#fff5f5"/></g><g><path d="m298.493 460.488h30v31.502h-30z" fill="#fff5f5"/></g><g><path d="m178.486 460.488h30v31.502h-30z" fill="#fff5f5"/></g><g><path d="m298.493 460.488h30v31.502h-30z" fill="#ece6f2"/></g><path d="m253.49 460.488h15v31.502h-15z" fill="#ece6f2"/><path d="m108.108 180.794v112.822c0 80.163 65.218 145.381 145.382 145.381 80.163 0 145.38-65.218 145.38-145.381v-112.822z" fill="#ffe1d2"/><path d="m253.49 180.794v258.203c80.163 0 145.38-65.218 145.38-145.381v-112.822z" fill="#ffcbbc"/><g><path d="m301.813 374.398h-13.832c-13.3 0-25.387-5.299-34.258-13.896-8.872 8.597-20.958 13.896-34.259 13.896h-13.832v-30h13.832c10.619 0 19.259-8.639 19.259-19.258h30c0 10.619 8.639 19.258 19.258 19.258h13.832z" fill="#fff5f5"/></g><circle cx="318.46" cy="273.656" fill="#b3d9ff" r="27.86"/><circle cx="318.46" cy="273.656" fill="#9bf" r="27.86"/><circle cx="188.519" cy="273.656" fill="#b3d9ff" r="27.86"/><path d="m398.871 258.657h-40.266c-6.094-16.256-21.787-27.86-40.144-27.86s-34.051 11.604-40.145 27.86h-49.651c-6.094-16.256-21.788-27.86-40.145-27.86s-34.051 11.604-40.144 27.86h-40.266v30h40.266c6.094 16.256 21.787 27.859 40.144 27.859s34.051-11.604 40.145-27.859h49.651c6.094 16.256 21.788 27.859 40.145 27.859s34.05-11.604 40.144-27.859h40.266zm-210.352 27.859c-7.091 0-12.859-5.769-12.859-12.859s5.769-12.86 12.859-12.86 12.86 5.77 12.86 12.86-5.769 12.859-12.86 12.859zm129.941 0c-7.091 0-12.86-5.769-12.86-12.859s5.77-12.86 12.86-12.86 12.859 5.77 12.859 12.86-5.768 12.859-12.859 12.859z" fill="#143d66"/><path d="m358.605 258.657c-6.094-16.256-21.787-27.86-40.144-27.86s-34.051 11.604-40.145 27.86h-24.826v30h24.826c6.094 16.256 21.788 27.859 40.145 27.859s34.05-11.604 40.144-27.859h40.266v-30zm-40.145 27.859c-7.091 0-12.86-5.769-12.86-12.859s5.77-12.86 12.86-12.86 12.859 5.77 12.859 12.86-5.768 12.859-12.859 12.859z" fill="#0f244d"/><path d="m411.106 0h-42.082v42.082c0 23.204 18.878 42.082 42.082 42.082s42.081-18.877 42.081-42.082-18.878-42.082-42.081-42.082z" fill="#fff5f5"/><path d="m411.106 0h-42.082v42.082c0 23.204 18.878 42.082 42.082 42.082s42.081-18.877 42.081-42.082-18.878-42.082-42.081-42.082z" fill="#ece6f2"/><path d="m253.49 0v97.706h82.091c34.983 0 63.443-28.46 63.443-63.443v-34.263z" fill="#e20f5a"/><path d="m253.49 0v97.706h82.091c34.983 0 63.443-28.46 63.443-63.443v-34.263z" fill="#c21250"/><path d="m310.452 27.353c-13.926-17.383-34.689-27.353-56.962-27.353s-43.036 9.97-56.962 27.353l-100.016 124.833h313.956z" fill="#ff4d4d"/><path d="m310.452 27.353c-13.926-17.383-34.689-27.353-56.962-27.353v152.186h156.978z" fill="#e20f5a"/><path d="m383.87 122.186h-260.761c-24.429 0-44.304 19.875-44.304 44.303 0 24.429 19.875 44.304 44.304 44.304h260.761c24.429 0 44.303-19.875 44.303-44.304.001-24.428-19.874-44.303-44.303-44.303z" fill="#fff5f5"/><g fill="#ece6f2"><path d="m428.174 166.489c0-24.429-19.875-44.303-44.303-44.303h-130.381v88.607h130.38c24.429 0 44.304-19.875 44.304-44.304z"/><path d="m253.723 360.503c8.871 8.597 20.958 13.896 34.258 13.896h13.832v-30h-13.832c-10.619 0-19.258-8.639-19.258-19.258h-15.233v35.579c.076-.074.157-.143.233-.217z"/></g></g></svg>