<svg id="Layer_1" enable-background="new 0 0 512 512" height="512" viewBox="0 0 512 512" width="512" xmlns="http://www.w3.org/2000/svg"><g><path d="m360.448 408.997h-213.908c-48.375 0-87.731 39.355-87.731 87.73v15.273h389.371v-15.273c0-48.375-39.356-87.73-87.732-87.73z" fill="#e20f5a"/><path d="m448.18 496.727c0-48.375-39.356-87.73-87.732-87.73h-106.954v103.003h194.686z" fill="#c21250"/><path d="m383.876 230.796v109.988c0 73.641-50.853 137.525-122.619 154.039l-7.762 1.786-7.762-1.786c-71.765-16.514-122.619-80.398-122.619-154.039v-109.988" fill="#ece6f2"/><path d="m253.494 230.796v265.813h.001l7.762-1.786c71.765-16.514 122.619-80.398 122.619-154.039v-109.988" fill="#d7cfe6"/><path d="m123.113 180.793v177.083c23.763 48.018 73.276 81.12 130.382 81.12 57.105 0 106.617-33.101 130.381-81.118v-177.085z" fill="#ffe1d2"/><path d="m253.494 180.794v258.203h.001c57.105 0 106.617-33.101 130.381-81.119v-177.084z" fill="#ffcbbc"/><path d="m253.495 512-11.126-2.56c-38.002-8.745-72.307-30.363-96.593-60.873s-37.662-68.788-37.662-107.784v-159.99h30v159.99c0 32.236 11.057 63.88 31.133 89.101s48.434 43.092 79.849 50.32l4.398 1.013 4.398-1.013c31.415-7.229 59.773-25.1 79.849-50.32 20.077-25.221 31.133-56.864 31.133-89.101v-159.99h30v159.99c0 38.996-13.375 77.274-37.662 107.784s-58.591 52.128-96.593 60.873z" fill="#ece6f2"/><path d="m368.876 180.793v159.99c0 32.236-11.057 63.88-31.133 89.101s-48.434 43.092-79.849 50.32l-4.398 1.013h-.001v30.783h.001l11.126-2.56c38.002-8.745 72.307-30.363 96.593-60.873s37.662-68.788 37.662-107.784v-159.99z" fill="#d7cfe6"/><g><path d="m183.525 276.295h30v30.002h-30z" fill="#143d66"/></g><g><path d="m293.465 276.295h30v30.002h-30z" fill="#143d66"/></g><g><path d="m253.495 389.777c-17.802 0-34.537-6.933-47.124-19.52l21.214-21.213c6.92 6.921 16.122 10.732 25.91 10.732s18.989-3.812 25.911-10.732l21.213 21.213c-12.588 12.589-29.323 19.52-47.124 19.52z" fill="#ffcbbc"/></g><g><path d="m293.465 276.295h30v30.002h-30z" fill="#0f244d"/></g><path d="m411.11 0h-42.082v42.082c0 23.204 18.878 42.082 42.082 42.082s42.081-18.877 42.081-42.082-18.877-42.082-42.081-42.082z" fill="#fff5f5"/><path d="m411.11 0h-42.082v42.082c0 23.204 18.878 42.082 42.082 42.082s42.081-18.877 42.081-42.082-18.877-42.082-42.081-42.082z" fill="#ece6f2"/><path d="m253.494 0v97.706h82.091c34.983 0 63.443-28.46 63.443-63.443v-34.263z" fill="#e20f5a"/><path d="m253.494 0v97.706h82.091c34.983 0 63.443-28.46 63.443-63.443v-34.263z" fill="#c21250"/><path d="m310.457 27.353c-13.927-17.383-34.689-27.353-56.963-27.353s-43.036 9.97-56.962 27.353l-100.016 124.833h313.956z" fill="#ff4d4d"/><path d="m310.457 27.353c-13.927-17.383-34.689-27.353-56.963-27.353v152.186h156.978z" fill="#e20f5a"/><path d="m383.875 122.186h-260.762c-24.429 0-44.304 19.875-44.304 44.303 0 24.429 19.875 44.304 44.304 44.304h260.762c24.429 0 44.303-19.875 44.303-44.304 0-24.428-19.874-44.303-44.303-44.303z" fill="#fff5f5"/><path d="m428.178 166.489c0-24.429-19.875-44.303-44.303-44.303h-130.381v88.607h130.381c24.429 0 44.303-19.875 44.303-44.304z" fill="#ece6f2"/><path d="m253.495 389.777c17.801 0 34.537-6.932 47.124-19.52l-21.213-21.213c-6.921 6.921-16.123 10.732-25.911 10.732v30.001c-.001 0 0 0 0 0z" fill="#ffbcae"/></g></svg>