<svg id="Layer_1" enable-background="new 0 0 511.98 511.98" height="512" viewBox="0 0 511.98 511.98" width="512" xmlns="http://www.w3.org/2000/svg"><g><path d="m110.802 0h290.762v140.14h-290.762z" fill="#143d66"/><path d="m255.99 0h145.573v140.14h-145.573z" fill="#0f244d"/><path d="m110.802 110.14h290.762v73.633h-290.762z" fill="#1f5c99"/><path d="m255.99 110.14h145.573v73.633h-145.573z" fill="#143d66"/><path d="m149.309 408.976 103.005 103.004h7.353l103.005-103.004z" fill="#ffcbbc"/><path d="m362.672 408.976h-106.682v103.004h3.677z" fill="#ffbcae"/><path d="m362.672 511.98v-103.004h-38.891l-67.791 67.791-67.791-67.791h-38.89v103.004z" fill="#fff5f5"/><path d="m362.672 511.98v-103.004h-38.891l-67.791 67.791v-.001 35.214z" fill="#ece6f2"/><path d="m149.309 408.976c-48.526 0-88.005 39.479-88.005 88.004v15h107.005v-103.004z" fill="#143d66"/><path d="m362.672 408.976h-19.001v103.004h107.005v-15c0-48.526-39.479-88.004-88.004-88.004z" fill="#143d66"/><path d="m362.672 408.976h-19.001v103.004h107.005v-15c0-48.526-39.479-88.004-88.004-88.004z" fill="#0f244d"/><path d="m263.35 225.777c-18.9 0-35.563-12.724-40.521-30.942l-3.01-11.061h-26.944l-3.011 11.061c-4.958 18.219-21.621 30.942-40.521 30.942h-38.542v67.819c0 80.163 65.218 145.381 145.381 145.381s145.381-65.218 145.381-145.381v-67.819z" fill="#ffe1d2"/><path d="m256.182 438.978c80.163 0 145.381-65.218 145.381-145.381v-67.819h-138.213c-2.5 0-4.96-.229-7.36-.657v213.855c.065-.001.128.002.192.002z" fill="#ffcbbc"/><path d="m110.802 183.774v72.003h38.542c22.78 0 43.654-10.797 57.003-28.062 13.349 17.266 34.223 28.062 57.003 28.062h138.213v-72.003z" fill="#a05f4b"/><path d="m263.35 255.777h138.213v-72.003h-145.573v71.617c2.427.251 4.882.386 7.36.386z" fill="#804040"/><g><path d="m417.607 198.774h-323.233c-18.062 0-35.219-7.817-47.071-21.447l-5.837-6.712 22.639-19.686 5.836 6.712c6.152 7.075 15.058 11.133 24.433 11.133h323.233c9.375 0 18.28-4.058 24.433-11.133l5.835-6.711 22.639 19.684-5.836 6.712c-11.853 13.631-29.01 21.448-47.071 21.448z" fill="#143d66"/></g><g><path d="m186.214 284.279h30v30.002h-30z" fill="#143d66"/></g><g><path d="m296.154 284.279h30v30.002h-30z" fill="#143d66"/></g><g><path d="m304.274 390.865h-13.832c-13.3 0-25.387-5.299-34.258-13.896-8.872 8.598-20.958 13.896-34.258 13.896h-13.832v-30h13.832c10.619 0 19.258-8.639 19.258-19.258h30c0 10.619 8.639 19.258 19.258 19.258h13.832z" fill="#a05f4b"/></g><path d="m390.401 41.66c-34.067 0-61.782 27.716-61.782 61.782v36.697h34.142c34.067 0 61.782-27.716 61.782-61.783v-36.696z" fill="#21cab1"/><path d="m390.401 41.66c-34.067 0-61.782 27.716-61.782 61.782v36.697h34.142c34.067 0 61.782-27.716 61.782-61.783v-36.696z" fill="#149397"/><ellipse cx="328.619" cy="100.493" fill="#ff4d4d" rx="39.646" ry="39.646" transform="matrix(.987 -.16 .16 .987 -11.854 53.937)"/><g><path d="m296.154 284.279h30v30.002h-30z" fill="#0f244d"/></g><ellipse cx="328.619" cy="100.493" fill="#e20f5a" rx="39.646" ry="39.646" transform="matrix(.987 -.16 .16 .987 -11.854 53.937)"/><path d="m447.875 150.931-5.835 6.711c-6.153 7.075-15.058 11.133-24.433 11.133h-161.617v30h161.616c18.062 0 35.218-7.817 47.071-21.448l5.836-6.712z" fill="#0f244d"/><path d="m256.184 376.968c8.872 8.598 20.958 13.896 34.258 13.896h13.832v-30h-13.832c-10.619 0-19.258-8.639-19.258-19.258h-15.194v35.541c.064-.061.131-.118.194-.179z" fill="#804040"/></g></svg>