<svg id="Layer_1" enable-background="new 0 0 512.004 512.004" height="512" viewBox="0 0 512.004 512.004" width="512" xmlns="http://www.w3.org/2000/svg"><g><path d="m430.037 334.235c-20.093-22.936-31.159-51.441-31.159-80.265v-73.18h-290.762v73.18c0 28.824-11.066 57.329-31.16 80.266-10.045 11.468-15.437 26.19-15.182 41.456.555 33.254 28.415 60.308 62.104 60.308h259.236c33.689 0 61.549-27.054 62.104-60.308.256-15.267-5.136-29.99-15.181-41.457z" fill="#ece6f2"/><path d="m430.037 334.235c-20.093-22.936-31.159-51.441-31.159-80.265v-73.18h-145.381v255.209h129.618c33.689 0 61.549-27.054 62.104-60.308.255-15.266-5.137-29.989-15.182-41.456z" fill="#d7cfe6"/><path d="m123.116 195.79v77.827c0 46.494 24.341 87.297 60.971 110.38h138.821c36.629-23.082 60.97-63.885 60.97-110.38v-77.827z" fill="#ffe1d2"/><path d="m253.497 195.791v188.207h69.411c36.629-23.082 60.97-63.885 60.97-110.379v-77.827h-130.381z" fill="#ffcbbc"/><g><path d="m253.496 350.6c-17.801 0-34.536-6.932-47.123-19.52l21.213-21.213c6.921 6.921 16.123 10.732 25.91 10.732 9.788 0 18.99-3.812 25.911-10.732l21.213 21.213c-12.587 12.588-29.323 19.52-47.124 19.52z" fill="#ffcbbc"/></g><path d="m363.203 406.05h-20.771v-37.053h-177.825v37.053h-20.817c-47.131 1.602-84.979 40.44-84.979 87.953v18.001h389.372v-18.001c0-47.512-37.85-86.351-84.98-87.953z" fill="#21cab1"/><path d="m411.113 0h-42.082v42.082c0 23.204 18.878 42.082 42.082 42.082s42.081-18.877 42.081-42.082-18.878-42.082-42.081-42.082z" fill="#fff5f5"/><path d="m411.113 0h-42.082v42.082c0 23.204 18.878 42.082 42.082 42.082s42.081-18.877 42.081-42.082-18.878-42.082-42.081-42.082z" fill="#ece6f2"/><path d="m253.497 0v97.706h82.091c34.983 0 63.443-28.46 63.443-63.443v-34.263z" fill="#e20f5a"/><path d="m253.497 0v97.706h82.091c34.983 0 63.443-28.46 63.443-63.443v-34.263z" fill="#c21250"/><path d="m310.459 27.353c-13.926-17.383-34.689-27.353-56.962-27.353s-43.036 9.97-56.962 27.353l-100.016 124.833h313.956z" fill="#ff4d4d"/><path d="m310.459 27.353c-13.926-17.383-34.689-27.353-56.962-27.353v152.186h156.978z" fill="#e20f5a"/><path d="m383.877 122.186h-260.761c-24.429 0-44.304 19.875-44.304 44.303 0 24.429 19.875 44.304 44.304 44.304h260.762c24.429 0 44.303-19.875 44.303-44.304 0-24.428-19.875-44.303-44.304-44.303z" fill="#fff5f5"/><path d="m428.181 166.489c0-24.429-19.875-44.303-44.303-44.303h-130.381v88.607h130.381c24.428 0 44.303-19.875 44.303-44.304z" fill="#ece6f2"/><path d="m279.407 309.867c-6.921 6.921-16.123 10.732-25.911 10.732v30c17.801 0 34.537-6.932 47.124-19.52z" fill="#ffbcae"/><path d="m448.183 494.003c0-47.513-37.85-86.352-84.979-87.953h-20.771v-37.053h-88.935v143.007h194.686v-18.001z" fill="#149397"/><circle cx="313.483" cy="253.652" fill="#b3d9ff" r="27.86"/><circle cx="313.483" cy="253.652" fill="#9bf" r="27.86"/><circle cx="193.543" cy="253.652" fill="#b3d9ff" r="27.86"/><path d="m383.878 238.652h-30.249c-6.094-16.256-21.787-27.859-40.145-27.859s-34.051 11.604-40.145 27.859h-39.651c-6.094-16.256-21.787-27.859-40.145-27.859s-34.05 11.604-40.144 27.859h-30.283v30h30.282c6.094 16.256 21.787 27.86 40.144 27.86s34.051-11.604 40.145-27.86h39.651c6.094 16.256 21.787 27.86 40.145 27.86s34.051-11.604 40.145-27.86h30.249v-30zm-190.335 27.86c-7.091 0-12.859-5.77-12.859-12.86s5.769-12.859 12.859-12.859 12.86 5.769 12.86 12.859-5.769 12.86-12.86 12.86zm119.94 0c-7.091 0-12.86-5.77-12.86-12.86s5.769-12.859 12.86-12.859 12.86 5.769 12.86 12.859-5.769 12.86-12.86 12.86z" fill="#143d66"/><path d="m353.628 238.652c-6.094-16.256-21.787-27.859-40.145-27.859s-34.051 11.604-40.145 27.859h-19.842v30h19.842c6.094 16.256 21.787 27.86 40.145 27.86s34.051-11.604 40.145-27.86h30.249v-30zm-40.145 27.86c-7.091 0-12.86-5.77-12.86-12.86s5.769-12.859 12.86-12.859 12.86 5.769 12.86 12.859-5.769 12.86-12.86 12.86z" fill="#0f244d"/></g></svg>