<svg id="Layer_1" enable-background="new 0 0 511.985 511.985" height="512" viewBox="0 0 511.985 511.985" width="512" xmlns="http://www.w3.org/2000/svg"><g><path d="m162.11 408.98 103.004 103.005h7.354l103.004-103.005z" fill="#ffcbbc"/><path d="m375.472 408.98h-106.681v103.005h3.677z" fill="#ffbcae"/><path d="m463.477 511.985v-15c0-48.526-39.479-88.005-88.004-88.005h-38.89l-67.791 67.792-67.792-67.792h-38.89c-48.526 0-88.004 39.479-88.004 88.005v15z" fill="#69f"/><path d="m463.477 496.985c0-48.526-39.479-88.005-88.004-88.005h-38.89l-67.791 67.792v35.213h194.686v-15z" fill="#35f"/><path d="m138.41 256.1c0 36.568 29.645 66.213 66.213 66.213 10.017 0 19.903-2.273 28.914-6.647l6.34-3.078c18.257-8.862 39.57-8.862 57.827 0l6.341 3.078c9.011 4.374 18.897 6.647 28.914 6.647 36.568 0 66.213-29.645 66.213-66.213v-60.311h-260.762z" fill="#ffe1d2"/><path d="m268.79 195.789v110.154c9.893 0 19.786 2.215 28.914 6.646l6.341 3.078c9.011 4.374 18.897 6.647 28.914 6.647 36.568 0 66.213-29.645 66.213-66.213v-60.311h-130.382z" fill="#ffcbbc"/><g><path d="m198.822 246.29h30v30.001h-30z" fill="#143d66"/></g><path d="m414.174 44.998c0 16.538-13.454 29.992-29.992 29.992h-169.258l-91.513 91.513v193.227c0 43.705 35.557 79.262 79.261 79.262h132.239c43.704 0 79.261-35.557 79.261-79.262v-173.684c18.314-15.164 30.002-38.062 30.002-63.641v-77.407zm-30.002 211.102c0 28.239-22.974 51.213-51.213 51.213-7.702 0-15.435-1.777-22.362-5.141l-6.342-3.078c-10.987-5.333-23.251-8.152-35.464-8.152s-24.476 2.819-35.463 8.152l-6.34 3.078c-6.928 3.363-14.661 5.141-22.363 5.141-28.239 0-51.213-22.974-51.213-51.213v-21.109c.005-16.533 13.458-29.982 29.992-29.982h178.166c7.837 0 15.413-1.121 22.601-3.169v54.26z" fill="#c9885b"/><path d="m414.174 44.998c0 16.538-13.454 29.992-29.992 29.992h-115.39v130.019h92.779c7.837 0 15.413-1.121 22.601-3.169v54.26c0 28.239-22.974 51.213-51.213 51.213-7.702 0-15.435-1.777-22.362-5.141l-6.342-3.078c-10.987-5.333-23.25-8.152-35.463-8.152v148.05h66.12c43.704 0 79.261-35.557 79.261-79.262v-173.684c18.314-15.164 30.002-38.062 30.002-63.641v-77.407z" fill="#a05f4b"/><g><path d="m308.761 246.29h30v30.001h-30z" fill="#143d66"/></g><g><path d="m268.791 377.01c-17.802 0-34.537-6.933-47.124-19.52l21.214-21.213c6.92 6.921 16.122 10.732 25.91 10.732s18.99-3.812 25.911-10.732l21.213 21.213c-12.587 12.588-29.322 19.52-47.124 19.52z" fill="#ffcbbc"/></g><g><path d="m308.761 246.29h30v30.001h-30z" fill="#0f244d"/></g><path d="m315.915 357.49-21.213-21.213c-6.921 6.921-16.123 10.732-25.911 10.732h-.001v30h.001c17.802.001 34.537-6.931 47.124-19.519z" fill="#ffbcae"/><path d="m61.33 37.76h147.051v97.173h-147.051z" fill="#143d66" transform="matrix(.707 -.707 .707 .707 -21.558 120.648)"/><g><path d="m71.609 105.702h195.206v30h-195.206z" fill="#1f5c99" transform="matrix(.707 -.707 .707 .707 -35.788 155.003)"/></g></g></svg>