<svg id="Layer_1" enable-background="new 0 0 511.982 511.982" height="512" viewBox="0 0 511.982 511.982" width="512" xmlns="http://www.w3.org/2000/svg"><g><path d="m31.987 298.427v63.269h40.977c37.298 0 67.643-30.345 67.643-67.643v-63.269h-40.977c-37.298 0-67.643 30.345-67.643 67.643z" fill="#fd9"/><path d="m412.352 230.784h-40.977v63.269c0 37.298 30.345 67.643 67.643 67.643h40.977v-63.269c-.001-37.298-30.346-67.643-67.643-67.643z" fill="#fd9"/><path d="m412.352 230.784h-40.977v63.269c0 37.298 30.345 67.643 67.643 67.643h40.977v-63.269c-.001-37.298-30.346-67.643-67.643-67.643z" fill="#fb3"/><path d="m362.672 408.977c48.526 0 88.005 39.479 88.005 88.004v15h-89.679v-103.004z" fill="#e20f5a"/><path d="m362.672 408.977c48.526 0 88.005 39.479 88.005 88.004v15h-89.679v-103.004z" fill="#c21250"/><path d="m61.305 496.982c0-48.526 39.479-88.004 88.005-88.004h1.674v103.004h-89.679z" fill="#e20f5a"/><path d="m149.31 408.977h213.362c9.906 0 19.433 1.646 28.326 4.678v98.327h-270.015v-98.327c8.893-3.031 18.421-4.678 28.327-4.678z" fill="#ff4d4d"/><path d="m390.998 511.981v-98.327c-8.893-3.031-18.421-4.678-28.326-4.678h-106.693v103.004h135.019z" fill="#e20f5a"/><g><path d="m240.99 460.48h30v31.502h-30z" fill="#e20f5a"/></g><g><path d="m180.987 460.48h30v31.502h-30z" fill="#e20f5a"/></g><g><path d="m300.994 460.48h30v31.502h-30z" fill="#e20f5a"/></g><path d="m165.974 230.783c19.301 0 35.003-15.702 35.003-35.002h15 15c0 19.3 15.702 35.002 35.003 35.002h135.392v62.817c0 80.163-65.218 145.38-145.381 145.38s-145.381-65.216-145.381-145.379v-62.817h55.364z" fill="#ffe1d2"/><path d="m265.98 230.783c-3.475 0-6.83-.516-10-1.463v209.66h.011c80.163 0 145.381-65.217 145.381-145.38v-62.817z" fill="#ffcbbc"/><path d="m401.372 180.78v80.003h-135.392c-20.085 0-38.07-9.154-50.003-23.512-11.933 14.357-29.918 23.512-50.003 23.512h-55.364v-80.003z" fill="#fd9"/><path d="m401.372 260.783v-80.003h-145.393v79.214c3.263.506 6.598.789 10 .789z" fill="#fb3"/><g><path d="m295.949 288.016h30v30.002h-30z" fill="#143d66"/></g><g><path d="m186.01 288.016h30v30.002h-30z" fill="#143d66"/></g><g><path d="m255.979 391.496c17.801 0 34.536-6.932 47.124-19.519l-21.213-21.213c-6.921 6.92-16.123 10.731-25.911 10.731s-18.99-3.812-25.911-10.732l-21.212 21.215c12.588 12.586 29.323 19.518 47.123 19.518z" fill="#ffcbbc"/></g><path d="m206.25 67.896c13.794-11.997 31.459-18.604 49.741-18.604s35.947 6.606 49.74 18.604l72.923 63.415v31.835h-245.327v-31.835z" fill="#21cab1"/><path d="m378.654 131.311-72.923-63.415c-13.793-11.997-31.458-18.604-49.74-18.604-.004 0-.007 0-.011 0v113.853h122.675v-31.834z" fill="#149397"/><path d="m169.058 121.5 43.466 10.868 43.467-10.868 43.466 10.868 43.466-10.868 58.467 14.618v74.662h-290.798v-74.662z" fill="#ff4d4d"/><path d="m255.979 0c21.861 0 39.646 17.785 39.646 39.646s-17.785 39.646-39.646 39.646-39.646-17.785-39.646-39.646 17.786-39.646 39.646-39.646z" fill="#ff4d4d"/><g><path d="m300.994 460.48h30v31.502h-30z" fill="#c21250"/></g><g><path d="m295.949 288.016h30v30.002h-30z" fill="#0f244d"/></g><path d="m255.979 460.479h15.011v31.502h-15.011z" fill="#c21250"/><path d="m295.625 39.646c0-21.861-17.785-39.646-39.646-39.646v79.292c21.861 0 39.646-17.785 39.646-39.646z" fill="#e20f5a"/><path d="m303.103 371.978-21.213-21.213c-6.921 6.92-16.123 10.731-25.911 10.731v30c17.801 0 34.537-6.932 47.124-19.518z" fill="#ffbcae"/><path d="m401.39 136.118-58.467-14.618-43.466 10.868-43.466-10.868-.012.003v89.277h145.411z" fill="#e20f5a"/></g></svg>