<svg id="Layer_1" enable-background="new 0 0 512.025 512.025" height="512" viewBox="0 0 512.025 512.025" width="512" xmlns="http://www.w3.org/2000/svg"><g><path d="m110.632 110.948v122.664c0 50.241 25.41 96.249 67.973 123.07l3.665 2.31h147.485l3.665-2.31c42.562-26.821 67.973-72.829 67.973-123.07v-122.664z" fill="#c9885b"/><path d="m256.024 110.948v248.044h73.731l3.665-2.31c42.562-26.821 67.973-72.829 67.973-123.07v-122.664z" fill="#a05f4b"/><path d="m365.15 32.753c-12.514-12.473-29.343-19.49-47.266-19.49-5.724 0-11.344.711-16.797 2.12-12.843-9.978-28.531-15.383-45.063-15.383-16.485 0-32.135 5.375-44.959 15.3-5.485-1.427-11.14-2.146-16.901-2.146-17.985 0-34.855 7.058-47.378 19.602-31.056.616-56.128 26.071-56.128 57.271 0 31.586 25.697 57.283 57.283 57.283 7.651 0 15.188-1.526 22.175-4.459 7.646 2.931 15.829 4.459 24.048 4.459 10.589 0 20.859-2.456 30.172-7.164 9.855 4.708 20.648 7.164 31.688 7.164 10.996 0 21.751-2.438 31.575-7.111 9.341 4.746 19.65 7.222 30.285 7.222 8.273 0 16.505-1.546 24.19-4.513 6.948 2.896 14.437 4.402 22.033 4.402 31.586 0 57.282-25.697 57.282-57.283.001-31.238-25.134-56.715-56.239-57.274z" fill="#804040"/><g><path d="m186.042 193.278h30v30.002h-30z" fill="#143d66"/></g><g><path d="m295.983 193.278h30v30.002h-30z" fill="#143d66"/></g><g><path d="m256.012 300.594c-17.801 0-34.536-6.933-47.123-19.52l21.213-21.213c6.921 6.921 16.123 10.732 25.91 10.732 9.788 0 18.99-3.812 25.911-10.732l21.213 21.213c-12.587 12.587-29.323 19.52-47.124 19.52z" fill="#a05f4b"/></g><path d="m365.719 366.046v-37.054h-219.413v37.054c-47.131 1.601-84.979 40.44-84.979 87.953v58.003h389.372v-58.003c0-47.513-37.85-86.353-84.98-87.953z" fill="#69f"/><path d="m450.699 453.999c0-47.513-37.85-86.353-84.979-87.953v-37.054h-109.696v183.01h194.675z" fill="#35f"/><g><path d="m360.695 467.013h30v44.999h-30z" fill="#9bf"/></g><g><path d="m121.33 467.013h30v45.012h-30z" fill="#9bf"/></g><path d="m292.237 442.012 9.931-9.931-21.213-21.213-24.931 24.931-24.932-24.931-21.213 21.213 9.931 9.931h-38.801v70h30v-40h30.003v40h30v-40h30.004v40h30v-70z" fill="#9bf"/><g><path d="m295.983 193.278h30v30.002h-30z" fill="#0f244d"/></g><g><path d="m360.695 467.013h30v44.999h-30z" fill="#69f"/></g><path d="m317.884 147.42c8.273 0 16.505-1.546 24.19-4.513 6.948 2.896 14.437 4.402 22.033 4.402 31.586 0 57.282-25.697 57.282-57.283 0-31.237-25.135-56.715-56.24-57.273-12.514-12.473-29.343-19.49-47.266-19.49-5.724 0-11.344.711-16.797 2.12-12.842-9.978-28.53-15.383-45.062-15.383v147.31c10.996 0 21.751-2.438 31.575-7.111 9.341 4.745 19.65 7.221 30.285 7.221z" fill="#4d2917"/><path d="m281.923 259.861c-6.918 6.918-16.116 10.729-25.899 10.732v30c17.796-.003 34.528-6.935 47.112-19.519z" fill="#804040"/><path d="m292.237 442.012 9.931-9.931-21.213-21.213-24.931 24.931v76.213h14.988v-40h30.004v40h30v-70z" fill="#69f"/></g></svg>